{"glyphs":{"0":{"ha":694,"x_min":69,"x_max":625,"o":"m 149 229 l 519 692 l 550 614 l 179 156 l 149 229 m 347 -15 q 198 36 260 -15 q 103 187 136 88 q 69 428 69 286 q 103 666 69 567 q 198 819 136 765 q 347 874 260 874 q 497 819 435 874 q 592 666 558 765 q 625 428 625 567 q 592 187 625 286 q 497 36 558 88 q 347 -15 435 -15 m 347 81 q 435 121 399 81 q 490 239 471 161 q 510 428 510 317 q 490 612 510 535 q 435 732 471 689 q 347 775 399 775 q 260 732 296 775 q 204 612 224 689 q 185 428 185 535 q 204 239 185 317 q 260 121 224 161 q 347 81 296 81 z "},"1":{"ha":694,"x_min":114,"x_max":426,"o":"m 310 0 l 310 729 l 140 676 l 114 747 l 342 867 l 426 867 l 426 0 l 310 0 z "},"2":{"ha":694,"x_min":74,"x_max":614,"o":"m 94 90 q 233 230 171 168 q 344 344 296 292 q 426 442 393 396 q 477 533 460 488 q 494 626 494 578 q 484 694 494 667 q 455 740 474 722 q 410 765 436 757 q 356 774 385 774 q 294 765 324 774 q 239 738 265 756 q 190 693 213 721 q 175 663 178 674 q 174 642 172 653 l 167 635 l 157 642 l 74 706 q 145 797 103 760 q 241 854 188 835 q 354 874 294 874 q 486 843 429 874 q 576 757 543 813 q 610 625 610 701 q 591 517 610 569 q 538 416 572 465 q 458 317 504 367 q 358 213 413 267 q 246 99 304 160 l 551 99 q 585 101 575 99 q 603 113 594 104 l 614 113 l 614 99 l 614 0 l 94 0 l 94 90 z "},"3":{"ha":694,"x_min":85,"x_max":600,"o":"m 331 -15 q 194 10 260 -15 q 85 85 129 35 l 153 174 l 163 185 l 171 178 q 176 156 172 167 q 196 129 181 146 q 252 95 221 108 q 326 82 283 82 q 412 102 378 82 q 463 159 446 122 q 481 243 481 196 q 465 324 481 290 q 417 376 449 357 q 342 401 386 394 q 243 403 299 408 l 243 496 q 350 507 308 494 q 415 542 392 519 q 447 592 438 564 q 456 653 456 621 q 447 703 456 681 q 422 741 438 725 q 384 766 407 757 q 335 775 361 775 q 280 768 307 775 q 227 747 253 761 q 178 710 201 733 l 110 779 q 217 852 157 831 q 335 874 276 874 q 461 846 408 874 q 543 769 514 818 q 572 656 572 719 q 556 570 572 610 q 510 502 540 531 q 436 458 479 474 q 519 415 482 444 q 578 342 557 386 q 600 239 600 299 q 569 112 600 169 q 478 19 538 54 q 331 -15 418 -15 l 331 -15 z "},"4":{"ha":694,"x_min":63,"x_max":657,"o":"m 426 0 l 426 210 l 63 210 l 63 292 l 451 867 l 546 867 l 546 306 l 657 306 l 657 208 l 546 208 l 546 0 l 426 0 m 190 306 l 428 306 l 428 667 l 190 306 z "},"5":{"ha":694,"x_min":85,"x_max":625,"o":"m 347 -15 q 195 19 264 -15 q 85 119 126 54 l 172 188 l 183 196 l 190 189 q 194 168 189 178 q 213 140 199 158 q 272 97 239 111 q 350 83 304 83 q 413 97 383 83 q 463 136 442 111 q 497 197 485 161 q 510 276 510 233 q 497 357 510 321 q 463 418 485 393 q 410 457 440 443 q 343 471 379 471 q 285 462 314 471 q 233 435 257 453 q 188 393 208 418 l 115 418 l 144 865 l 592 865 l 592 765 l 243 765 l 229 533 q 274 552 251 544 q 319 563 296 560 q 365 567 343 567 q 469 547 422 567 q 552 489 517 526 q 606 398 588 451 q 625 276 625 344 q 588 121 625 186 q 490 20 551 56 q 347 -15 428 -15 l 347 -15 z "},"6":{"ha":694,"x_min":86,"x_max":617,"o":"m 363 -14 q 212 36 274 -14 q 118 178 150 86 q 86 396 86 271 q 126 657 86 550 q 235 820 165 764 q 397 876 306 876 q 504 857 453 876 q 597 796 556 838 l 528 717 l 519 706 l 511 714 q 504 734 510 725 q 481 757 499 743 q 458 768 469 764 q 433 774 446 772 q 404 775 419 775 q 356 768 382 775 q 303 742 329 761 q 255 688 278 722 q 217 599 232 654 q 201 467 203 544 q 248 518 219 497 q 310 551 276 539 q 376 563 343 563 q 470 543 426 563 q 547 487 514 524 q 598 397 579 450 q 617 279 617 344 q 583 126 617 193 q 492 23 549 60 q 363 -14 435 -14 l 363 -14 m 365 85 q 419 98 394 85 q 464 135 444 111 q 494 195 483 160 q 506 278 506 231 q 493 362 506 326 q 460 419 481 397 q 414 453 439 442 q 364 464 389 464 q 317 456 340 464 q 274 433 294 447 q 237 399 254 418 q 206 356 219 379 q 210 258 201 306 q 240 171 219 210 q 293 108 261 132 q 365 85 325 85 l 365 85 z "},"7":{"ha":694,"x_min":103,"x_max":606,"o":"m 201 0 q 284 257 242 131 q 372 508 326 383 q 465 760 417 633 l 103 760 l 103 865 l 606 865 l 606 800 q 528 604 567 703 q 456 406 490 506 q 390 205 421 306 q 328 0 358 104 l 201 0 z "},"8":{"ha":694,"x_min":75,"x_max":621,"o":"m 347 -14 q 203 17 264 -14 q 108 101 142 49 q 75 219 75 154 q 97 317 75 271 q 156 399 118 363 q 246 460 194 436 q 179 513 208 482 q 133 581 150 543 q 117 661 117 619 q 144 769 117 721 q 225 848 172 818 q 354 878 278 878 q 487 849 435 878 q 565 774 539 821 q 592 669 592 726 q 582 607 592 638 q 556 549 572 576 q 515 500 539 522 q 460 461 490 478 q 526 418 497 443 q 577 363 556 393 q 610 297 599 332 q 621 225 621 263 q 587 102 621 156 q 492 17 553 49 q 347 -14 431 -14 m 350 88 q 434 106 400 88 q 485 157 468 125 q 503 228 503 189 q 490 287 503 258 q 455 339 478 315 q 399 383 432 363 q 326 414 367 403 q 274 383 299 401 q 231 340 249 364 q 204 289 214 315 q 194 232 194 263 q 213 159 194 192 q 266 107 231 126 q 350 88 301 88 m 372 500 q 415 533 396 514 q 449 572 435 551 q 471 617 463 593 q 479 664 479 640 q 465 721 479 694 q 422 764 450 747 q 351 781 393 781 q 283 765 310 781 q 242 723 256 749 q 228 667 228 697 q 239 613 228 638 q 270 569 250 589 q 317 533 290 550 q 372 500 343 515 z "},"9":{"ha":694,"x_min":85,"x_max":614,"o":"m 315 -14 q 196 5 250 -14 q 97 64 142 24 l 164 149 l 174 160 l 182 153 q 189 133 183 142 q 211 108 194 124 q 255 90 232 96 q 307 83 278 83 q 395 113 358 83 q 456 192 432 142 q 492 306 479 242 q 504 439 504 369 q 488 630 504 556 q 435 740 471 704 q 346 775 400 775 q 285 763 313 775 q 237 725 257 750 q 206 665 217 700 q 196 586 196 631 q 208 516 196 547 q 240 463 219 485 q 288 431 261 442 q 346 419 315 419 q 422 429 390 419 q 481 463 454 439 q 531 525 508 486 l 540 414 q 488 365 517 386 q 422 333 458 344 q 340 321 385 321 q 239 340 286 321 q 157 394 192 358 q 103 478 122 429 q 85 588 85 528 q 105 701 85 649 q 160 792 125 753 q 243 852 196 831 q 344 874 290 874 q 490 826 429 874 q 582 694 550 779 q 614 494 614 610 q 578 213 614 325 q 476 44 543 100 q 315 -14 410 -12 l 315 -14 z "},"A":{"ha":694,"x_min":21,"x_max":674,"o":"m 500 236 l 178 236 l 199 324 l 476 324 l 500 236 m 346 632 l 136 0 l 21 0 l 331 878 l 364 878 l 674 0 l 554 0 l 346 632 z "},"Á":{"ha":694,"x_min":21,"x_max":674,"o":"m 500 236 l 178 236 l 199 324 l 476 324 l 500 236 m 346 632 l 136 0 l 21 0 l 331 878 l 364 878 l 674 0 l 554 0 l 346 632 z "},"Ă":{"ha":694,"x_min":21,"x_max":674,"o":"m 500 236 l 178 236 l 199 324 l 476 324 l 500 236 m 346 632 l 136 0 l 21 0 l 331 878 l 364 878 l 674 0 l 554 0 l 346 632 z "},"Ắ":{"ha":694,"x_min":21,"x_max":674,"o":"m 500 236 l 178 236 l 199 324 l 476 324 l 500 236 m 346 632 l 136 0 l 21 0 l 331 878 l 364 878 l 674 0 l 554 0 l 346 632 z "},"Ặ":{"ha":694,"x_min":21,"x_max":674,"o":"m 500 236 l 178 236 l 199 324 l 476 324 l 500 236 m 346 632 l 136 0 l 21 0 l 331 878 l 364 878 l 674 0 l 554 0 l 346 632 z "},"Ằ":{"ha":694,"x_min":21,"x_max":674,"o":"m 500 236 l 178 236 l 199 324 l 476 324 l 500 236 m 346 632 l 136 0 l 21 0 l 331 878 l 364 878 l 674 0 l 554 0 l 346 632 z "},"Ẳ":{"ha":694,"x_min":21,"x_max":674,"o":"m 500 236 l 178 236 l 199 324 l 476 324 l 500 236 m 346 632 l 136 0 l 21 0 l 331 878 l 364 878 l 674 0 l 554 0 l 346 632 m 464 1226 q 451 1180 464 1197 q 423 1150 439 1163 q 394 1122 407 1138 q 381 1082 381 1107 l 381 1071 l 301 1071 l 301 1110 q 313 1144 301 1129 q 340 1172 325 1160 q 367 1197 356 1185 q 379 1222 379 1210 q 367 1252 379 1242 q 335 1263 354 1263 q 296 1253 314 1263 q 268 1215 278 1244 l 215 1275 q 272 1322 240 1308 q 342 1336 304 1336 q 404 1322 376 1335 q 448 1284 432 1308 q 464 1226 464 1260 z "},"Ẵ":{"ha":694,"x_min":21,"x_max":674,"o":"m 500 236 l 178 236 l 199 324 l 476 324 l 500 236 m 346 632 l 136 0 l 21 0 l 331 878 l 364 878 l 674 0 l 554 0 l 346 632 m 465 1289 l 535 1256 q 480 1175 508 1199 q 415 1151 451 1151 q 367 1163 389 1151 q 328 1188 346 1174 q 295 1214 311 1203 q 263 1225 279 1225 q 228 1210 244 1225 q 201 1168 213 1196 l 132 1201 q 183 1278 149 1249 q 253 1307 218 1307 q 302 1296 279 1307 q 344 1269 325 1285 q 381 1243 364 1254 q 413 1232 397 1232 q 440 1245 428 1232 q 465 1289 453 1258 z "},"Â":{"ha":694,"x_min":21,"x_max":674,"o":"m 500 236 l 178 236 l 199 324 l 476 324 l 500 236 m 346 632 l 136 0 l 21 0 l 331 878 l 364 878 l 674 0 l 554 0 l 346 632 m 167 907 l 119 968 l 326 1103 l 361 1103 l 575 968 l 529 908 l 346 1003 l 167 907 z "},"Ấ":{"ha":694,"x_min":21,"x_max":754,"o":"m 500 236 l 178 236 l 199 324 l 476 324 l 500 236 m 346 632 l 136 0 l 21 0 l 331 878 l 364 878 l 674 0 l 554 0 l 346 632 z "},"Ậ":{"ha":694,"x_min":21,"x_max":674,"o":"m 500 236 l 178 236 l 199 324 l 476 324 l 500 236 m 346 632 l 136 0 l 21 0 l 331 878 l 364 878 l 674 0 l 554 0 l 346 632 m 167 907 l 119 968 l 326 1103 l 361 1103 l 575 968 l 529 908 l 346 1003 l 167 907 z "},"Ầ":{"ha":694,"x_min":21,"x_max":674,"o":"m 500 236 l 178 236 l 199 324 l 476 324 l 500 236 m 346 632 l 136 0 l 21 0 l 331 878 l 364 878 l 674 0 l 554 0 l 346 632 z "},"Ẩ":{"ha":694,"x_min":21,"x_max":674,"o":"m 500 236 l 178 236 l 199 324 l 476 324 l 500 236 m 346 632 l 136 0 l 21 0 l 331 878 l 364 878 l 674 0 l 554 0 l 346 632 z "},"Ẫ":{"ha":694,"x_min":21,"x_max":674,"o":"m 500 236 l 178 236 l 199 324 l 476 324 l 500 236 m 346 632 l 136 0 l 21 0 l 331 878 l 364 878 l 674 0 l 554 0 l 346 632 z "},"Ȁ":{"ha":694,"x_min":21,"x_max":674,"o":"m 500 236 l 178 236 l 199 324 l 476 324 l 500 236 m 346 632 l 136 0 l 21 0 l 331 878 l 364 878 l 674 0 l 554 0 l 346 632 z "},"Ä":{"ha":694,"x_min":21,"x_max":674,"o":"m 500 236 l 178 236 l 199 324 l 476 324 l 500 236 m 346 632 l 136 0 l 21 0 l 331 878 l 364 878 l 674 0 l 554 0 l 346 632 z "},"Ạ":{"ha":694,"x_min":21,"x_max":674,"o":"m 500 236 l 178 236 l 199 324 l 476 324 l 500 236 m 346 632 l 136 0 l 21 0 l 331 878 l 364 878 l 674 0 l 554 0 l 346 632 z "},"À":{"ha":694,"x_min":21,"x_max":674,"o":"m 500 236 l 178 236 l 199 324 l 476 324 l 500 236 m 346 632 l 136 0 l 21 0 l 331 878 l 364 878 l 674 0 l 554 0 l 346 632 z "},"Ả":{"ha":694,"x_min":21,"x_max":674,"o":"m 500 236 l 178 236 l 199 324 l 476 324 l 500 236 m 346 632 l 136 0 l 21 0 l 331 878 l 364 878 l 674 0 l 554 0 l 346 632 m 478 1107 q 465 1060 478 1078 q 437 1031 453 1043 q 408 1003 421 1018 q 394 963 394 988 l 394 951 l 315 951 l 315 990 q 327 1025 315 1010 q 354 1053 339 1040 q 381 1078 369 1065 q 393 1103 393 1090 q 381 1133 393 1122 q 349 1143 368 1143 q 310 1134 328 1143 q 282 1096 292 1125 l 229 1156 q 286 1203 254 1189 q 356 1217 318 1217 q 418 1202 390 1215 q 462 1165 446 1189 q 478 1107 478 1140 z "},"Ȃ":{"ha":694,"x_min":21,"x_max":674,"o":"m 500 236 l 178 236 l 199 324 l 476 324 l 500 236 m 346 632 l 136 0 l 21 0 l 331 878 l 364 878 l 674 0 l 554 0 l 346 632 m 226 957 l 146 994 q 231 1094 179 1058 q 347 1129 282 1129 q 466 1094 414 1129 q 549 994 518 1058 l 468 957 q 417 1031 446 1007 q 347 1054 388 1054 q 299 1044 321 1054 q 260 1013 278 1033 q 226 957 242 992 z "},"Ā":{"ha":694,"x_min":21,"x_max":674,"o":"m 500 236 l 178 236 l 199 324 l 476 324 l 500 236 m 346 632 l 136 0 l 21 0 l 331 878 l 364 878 l 674 0 l 554 0 l 346 632 z "},"Ą":{"ha":694,"x_min":21,"x_max":674,"o":"m 500 236 l 178 236 l 199 324 l 476 324 l 500 236 m 346 632 l 136 0 l 21 0 l 331 878 l 364 878 l 674 0 l 554 0 l 346 632 m 622 -235 l 588 -321 q 499 -292 536 -310 q 442 -247 463 -274 q 422 -185 422 -219 q 442 -112 422 -149 q 502 -40 463 -75 q 599 28 542 -4 l 642 0 q 584 -55 608 -26 q 547 -110 560 -83 q 535 -158 535 -136 q 556 -206 535 -186 q 622 -235 578 -226 z "},"Å":{"ha":694,"x_min":21,"x_max":674,"o":"m 500 236 l 178 236 l 199 324 l 476 324 l 500 236 m 346 632 l 136 0 l 21 0 l 331 878 l 364 878 l 674 0 l 554 0 l 346 632 z "},"Ǻ":{"ha":694,"x_min":21,"x_max":674,"o":"m 500 236 l 178 236 l 199 324 l 476 324 l 500 236 m 346 632 l 136 0 l 21 0 l 331 878 l 364 878 l 674 0 l 554 0 l 346 632 z "},"Ã":{"ha":694,"x_min":21,"x_max":674,"o":"m 500 236 l 178 236 l 199 324 l 476 324 l 500 236 m 346 632 l 136 0 l 21 0 l 331 878 l 364 878 l 674 0 l 554 0 l 346 632 z "},"Æ":{"ha":694,"x_min":14,"x_max":689,"o":"m 14 0 l 285 867 l 689 867 l 689 767 l 458 767 l 458 501 l 653 501 l 653 400 l 458 400 l 458 100 l 686 100 l 686 0 l 353 0 l 353 231 l 193 231 l 124 0 l 14 0 m 217 326 l 354 326 l 357 753 l 346 753 l 217 326 z "},"Ǽ":{"ha":694,"x_min":14,"x_max":689,"o":"m 14 0 l 285 867 l 689 867 l 689 767 l 458 767 l 458 501 l 653 501 l 653 400 l 458 400 l 458 100 l 686 100 l 686 0 l 353 0 l 353 231 l 193 231 l 124 0 l 14 0 m 217 326 l 354 326 l 357 753 l 346 753 l 217 326 z "},"B":{"ha":694,"x_min":61,"x_max":642,"o":"m 61 0 l 61 865 l 314 865 q 444 850 389 865 q 536 806 500 835 q 590 739 572 778 q 607 653 607 700 q 592 576 607 614 q 550 508 578 538 q 481 463 522 478 q 547 426 517 449 q 597 376 576 404 q 630 314 618 347 q 642 246 642 281 q 622 145 642 190 q 561 67 601 100 q 458 17 521 35 q 313 0 396 0 l 61 0 m 178 100 l 329 100 q 428 115 386 100 q 494 164 471 131 q 518 250 518 197 q 497 335 518 299 q 431 394 476 372 q 306 415 385 415 l 178 415 l 178 100 m 178 511 l 300 511 q 413 528 371 511 q 472 574 454 544 q 489 640 489 604 q 479 691 489 668 q 449 731 469 714 q 396 758 429 749 q 315 768 363 768 l 178 768 l 178 511 z "},"C":{"ha":694,"x_min":53,"x_max":657,"o":"m 393 -14 q 260 12 322 -14 q 152 92 199 38 q 79 229 106 146 q 53 428 53 313 q 72 605 53 529 q 126 733 92 681 q 203 815 160 785 q 295 860 247 846 q 392 874 343 874 q 555 828 488 874 q 657 704 622 782 l 568 653 l 556 647 l 551 657 q 550 678 554 668 q 535 707 546 688 q 466 765 501 750 q 392 781 431 781 q 301 758 343 781 q 229 690 260 735 q 183 581 199 646 q 167 435 167 517 q 184 291 167 356 q 232 181 201 226 q 303 110 263 135 q 392 85 344 85 q 458 96 426 85 q 515 131 489 107 q 561 186 542 154 l 644 128 q 540 21 601 56 q 393 -14 479 -14 l 393 -14 z "},"Ć":{"ha":694,"x_min":53,"x_max":657,"o":"m 393 -14 q 260 12 322 -14 q 152 92 199 38 q 79 229 106 146 q 53 428 53 313 q 72 605 53 529 q 126 733 92 681 q 203 815 160 785 q 295 860 247 846 q 392 874 343 874 q 555 828 488 874 q 657 704 622 782 l 568 653 l 556 647 l 551 657 q 550 678 554 668 q 535 707 546 688 q 466 765 501 750 q 392 781 431 781 q 301 758 343 781 q 229 690 260 735 q 183 581 199 646 q 167 435 167 517 q 184 291 167 356 q 232 181 201 226 q 303 110 263 135 q 392 85 344 85 q 458 96 426 85 q 515 131 489 107 q 561 186 542 154 l 644 128 q 540 21 601 56 q 393 -14 479 -14 l 393 -14 z "},"Č":{"ha":694,"x_min":53,"x_max":657,"o":"m 393 -14 q 260 12 322 -14 q 152 92 199 38 q 79 229 106 146 q 53 428 53 313 q 72 605 53 529 q 126 733 92 681 q 203 815 160 785 q 295 860 247 846 q 392 874 343 874 q 555 828 488 874 q 657 704 622 782 l 568 653 l 556 647 l 551 657 q 550 678 554 668 q 535 707 546 688 q 466 765 501 750 q 392 781 431 781 q 301 758 343 781 q 229 690 260 735 q 183 581 199 646 q 167 435 167 517 q 184 291 167 356 q 232 181 201 226 q 303 110 263 135 q 392 85 344 85 q 458 96 426 85 q 515 131 489 107 q 561 186 542 154 l 644 128 q 540 21 601 56 q 393 -14 479 -14 l 393 -14 z "},"Ç":{"ha":694,"x_min":53,"x_max":657,"o":"m 393 -14 q 260 12 322 -14 q 152 92 199 38 q 79 229 106 146 q 53 428 53 313 q 72 605 53 529 q 126 733 92 681 q 203 815 160 785 q 295 860 247 846 q 392 874 343 874 q 555 828 488 874 q 657 704 622 782 l 568 653 l 556 647 l 551 657 q 550 678 554 668 q 535 707 546 688 q 466 765 501 750 q 392 781 431 781 q 301 758 343 781 q 229 690 260 735 q 183 581 199 646 q 167 435 167 517 q 184 291 167 356 q 232 181 201 226 q 303 110 263 135 q 392 85 344 85 q 458 96 426 85 q 515 131 489 107 q 561 186 542 154 l 644 128 q 540 21 601 56 q 393 -14 479 -14 l 393 -14 z "},"Ḉ":{"ha":694,"x_min":53,"x_max":657,"o":"m 393 -14 q 260 12 322 -14 q 152 92 199 38 q 79 229 106 146 q 53 428 53 313 q 72 605 53 529 q 126 733 92 681 q 203 815 160 785 q 295 860 247 846 q 392 874 343 874 q 555 828 488 874 q 657 704 622 782 l 568 653 l 556 647 l 551 657 q 550 678 554 668 q 535 707 546 688 q 466 765 501 750 q 392 781 431 781 q 301 758 343 781 q 229 690 260 735 q 183 581 199 646 q 167 435 167 517 q 184 291 167 356 q 232 181 201 226 q 303 110 263 135 q 392 85 344 85 q 458 96 426 85 q 515 131 489 107 q 561 186 542 154 l 644 128 q 540 21 601 56 q 393 -14 479 -14 l 393 -14 z "},"Ĉ":{"ha":694,"x_min":53,"x_max":657,"o":"m 393 -14 q 260 12 322 -14 q 152 92 199 38 q 79 229 106 146 q 53 428 53 313 q 72 605 53 529 q 126 733 92 681 q 203 815 160 785 q 295 860 247 846 q 392 874 343 874 q 555 828 488 874 q 657 704 622 782 l 568 653 l 556 647 l 551 657 q 550 678 554 668 q 535 707 546 688 q 466 765 501 750 q 392 781 431 781 q 301 758 343 781 q 229 690 260 735 q 183 581 199 646 q 167 435 167 517 q 184 291 167 356 q 232 181 201 226 q 303 110 263 135 q 392 85 344 85 q 458 96 426 85 q 515 131 489 107 q 561 186 542 154 l 644 128 q 540 21 601 56 q 393 -14 479 -14 l 393 -14 m 194 907 l 147 968 l 354 1103 l 389 1103 l 603 968 l 557 908 l 374 1003 l 194 907 z "},"Ċ":{"ha":694,"x_min":53,"x_max":657,"o":"m 393 -14 q 260 12 322 -14 q 152 92 199 38 q 79 229 106 146 q 53 428 53 313 q 72 605 53 529 q 126 733 92 681 q 203 815 160 785 q 295 860 247 846 q 392 874 343 874 q 555 828 488 874 q 657 704 622 782 l 568 653 l 556 647 l 551 657 q 550 678 554 668 q 535 707 546 688 q 466 765 501 750 q 392 781 431 781 q 301 758 343 781 q 229 690 260 735 q 183 581 199 646 q 167 435 167 517 q 184 291 167 356 q 232 181 201 226 q 303 110 263 135 q 392 85 344 85 q 458 96 426 85 q 515 131 489 107 q 561 186 542 154 l 644 128 q 540 21 601 56 q 393 -14 479 -14 l 393 -14 z "},"D":{"ha":694,"x_min":69,"x_max":644,"o":"m 69 -1 l 69 865 l 278 865 q 406 851 354 865 q 493 812 457 838 q 558 747 529 786 q 606 659 588 708 q 635 553 625 610 q 644 428 644 496 q 619 249 642 328 q 551 114 596 169 q 435 28 506 58 q 261 -1 364 -1 l 69 -1 m 182 90 l 257 90 q 414 130 354 90 q 502 244 474 169 q 529 424 531 319 q 503 608 529 531 q 422 728 478 686 q 272 769 367 769 l 182 769 l 182 90 z "},"Ð":{"ha":694,"x_min":35,"x_max":654,"o":"m 99 -1 l 99 410 l 35 410 l 35 506 l 99 506 l 99 865 l 300 865 q 413 852 365 865 q 496 816 461 839 q 556 765 531 793 q 597 708 581 738 q 626 644 613 683 q 647 550 639 604 q 654 428 654 496 q 631 248 654 328 q 560 113 607 168 q 444 28 514 58 q 283 -1 375 -1 l 99 -1 m 207 94 l 281 94 q 425 133 367 94 q 513 246 483 172 q 542 424 542 319 q 516 608 542 531 q 435 726 490 685 q 294 767 381 767 l 207 767 l 207 506 l 347 506 l 347 410 l 207 410 l 207 94 z "},"Ď":{"ha":694,"x_min":69,"x_max":644,"o":"m 69 -1 l 69 865 l 278 865 q 406 851 354 865 q 493 812 457 838 q 558 747 529 786 q 606 659 588 708 q 635 553 625 610 q 644 428 644 496 q 619 249 642 328 q 551 114 596 169 q 435 28 506 58 q 261 -1 364 -1 l 69 -1 m 182 90 l 257 90 q 414 130 354 90 q 502 244 474 169 q 529 424 531 319 q 503 608 529 531 q 422 728 478 686 q 272 769 367 769 l 182 769 l 182 90 z "},"Đ":{"ha":694,"x_min":35,"x_max":654,"o":"m 99 -1 l 99 410 l 35 410 l 35 506 l 99 506 l 99 865 l 300 865 q 413 852 365 865 q 496 816 461 839 q 556 765 531 793 q 597 708 581 738 q 626 644 613 683 q 647 550 639 604 q 654 428 654 496 q 631 248 654 328 q 560 113 607 168 q 444 28 514 58 q 283 -1 375 -1 l 99 -1 m 207 94 l 281 94 q 425 133 367 94 q 513 246 483 172 q 542 424 542 319 q 516 608 542 531 q 435 726 490 685 q 294 767 381 767 l 207 767 l 207 506 l 347 506 l 347 410 l 207 410 l 207 94 z "},"Ḍ":{"ha":694,"x_min":69,"x_max":644,"o":"m 69 -1 l 69 865 l 278 865 q 406 851 354 865 q 493 812 457 838 q 558 747 529 786 q 606 659 588 708 q 635 553 625 610 q 644 428 644 496 q 619 249 642 328 q 551 114 596 169 q 435 28 506 58 q 261 -1 364 -1 l 69 -1 m 182 90 l 257 90 q 414 130 354 90 q 502 244 474 169 q 529 424 531 319 q 503 608 529 531 q 422 728 478 686 q 272 769 367 769 l 182 769 l 182 90 z "},"Ḏ":{"ha":694,"x_min":69,"x_max":644,"o":"m 69 -1 l 69 865 l 278 865 q 406 851 354 865 q 493 812 457 838 q 558 747 529 786 q 606 659 588 708 q 635 553 625 610 q 644 428 644 496 q 619 249 642 328 q 551 114 596 169 q 435 28 506 58 q 261 -1 364 -1 l 69 -1 m 182 90 l 257 90 q 414 130 354 90 q 502 244 474 169 q 529 424 531 319 q 503 608 529 531 q 422 728 478 686 q 272 769 367 769 l 182 769 l 182 90 z "},"E":{"ha":694,"x_min":78,"x_max":619,"o":"m 78 0 l 78 867 l 619 867 l 619 767 l 190 767 l 190 503 l 544 503 l 544 400 l 190 400 l 190 100 l 615 100 l 615 0 l 78 0 z "},"É":{"ha":694,"x_min":78,"x_max":619,"o":"m 78 0 l 78 867 l 619 867 l 619 767 l 190 767 l 190 503 l 544 503 l 544 400 l 190 400 l 190 100 l 615 100 l 615 0 l 78 0 z "},"Ĕ":{"ha":694,"x_min":78,"x_max":619,"o":"m 78 0 l 78 867 l 619 867 l 619 767 l 190 767 l 190 503 l 544 503 l 544 400 l 190 400 l 190 100 l 615 100 l 615 0 l 78 0 z "},"Ě":{"ha":694,"x_min":78,"x_max":619,"o":"m 78 0 l 78 867 l 619 867 l 619 767 l 190 767 l 190 503 l 544 503 l 544 400 l 190 400 l 190 100 l 615 100 l 615 0 l 78 0 z "},"Ḝ":{"ha":694,"x_min":78,"x_max":619,"o":"m 78 0 l 78 867 l 619 867 l 619 767 l 190 767 l 190 503 l 544 503 l 544 400 l 190 400 l 190 100 l 615 100 l 615 0 l 78 0 z "},"Ê":{"ha":694,"x_min":78,"x_max":619,"o":"m 78 0 l 78 867 l 619 867 l 619 767 l 190 767 l 190 503 l 544 503 l 544 400 l 190 400 l 190 100 l 615 100 l 615 0 l 78 0 m 182 907 l 135 968 l 342 1103 l 376 1103 l 590 968 l 544 908 l 361 1003 l 182 907 z "},"Ế":{"ha":694,"x_min":78,"x_max":769,"o":"m 78 0 l 78 867 l 619 867 l 619 767 l 190 767 l 190 503 l 544 503 l 544 400 l 190 400 l 190 100 l 615 100 l 615 0 l 78 0 z "},"Ệ":{"ha":694,"x_min":78,"x_max":619,"o":"m 78 0 l 78 867 l 619 867 l 619 767 l 190 767 l 190 503 l 544 503 l 544 400 l 190 400 l 190 100 l 615 100 l 615 0 l 78 0 m 182 907 l 135 968 l 342 1103 l 376 1103 l 590 968 l 544 908 l 361 1003 l 182 907 z "},"Ề":{"ha":694,"x_min":78,"x_max":619,"o":"m 78 0 l 78 867 l 619 867 l 619 767 l 190 767 l 190 503 l 544 503 l 544 400 l 190 400 l 190 100 l 615 100 l 615 0 l 78 0 z "},"Ể":{"ha":694,"x_min":78,"x_max":661,"o":"m 78 0 l 78 867 l 619 867 l 619 767 l 190 767 l 190 503 l 544 503 l 544 400 l 190 400 l 190 100 l 615 100 l 615 0 l 78 0 z "},"Ễ":{"ha":694,"x_min":78,"x_max":619,"o":"m 78 0 l 78 867 l 619 867 l 619 767 l 190 767 l 190 503 l 544 503 l 544 400 l 190 400 l 190 100 l 615 100 l 615 0 l 78 0 z "},"Ȅ":{"ha":694,"x_min":78,"x_max":619,"o":"m 78 0 l 78 867 l 619 867 l 619 767 l 190 767 l 190 503 l 544 503 l 544 400 l 190 400 l 190 100 l 615 100 l 615 0 l 78 0 z "},"Ë":{"ha":694,"x_min":78,"x_max":619,"o":"m 78 0 l 78 867 l 619 867 l 619 767 l 190 767 l 190 503 l 544 503 l 544 400 l 190 400 l 190 100 l 615 100 l 615 0 l 78 0 z "},"Ė":{"ha":694,"x_min":78,"x_max":619,"o":"m 78 0 l 78 867 l 619 867 l 619 767 l 190 767 l 190 503 l 544 503 l 544 400 l 190 400 l 190 100 l 615 100 l 615 0 l 78 0 z "},"Ẹ":{"ha":694,"x_min":78,"x_max":619,"o":"m 78 0 l 78 867 l 619 867 l 619 767 l 190 767 l 190 503 l 544 503 l 544 400 l 190 400 l 190 100 l 615 100 l 615 0 l 78 0 z "},"È":{"ha":694,"x_min":78,"x_max":619,"o":"m 78 0 l 78 867 l 619 867 l 619 767 l 190 767 l 190 503 l 544 503 l 544 400 l 190 400 l 190 100 l 615 100 l 615 0 l 78 0 z "},"Ẻ":{"ha":694,"x_min":78,"x_max":619,"o":"m 78 0 l 78 867 l 619 867 l 619 767 l 190 767 l 190 503 l 544 503 l 544 400 l 190 400 l 190 100 l 615 100 l 615 0 l 78 0 m 493 1107 q 481 1060 493 1078 q 452 1031 468 1043 q 423 1003 436 1018 q 410 963 410 988 l 410 951 l 331 951 l 331 990 q 342 1025 331 1010 q 369 1053 354 1040 q 397 1078 385 1065 q 408 1103 408 1090 q 396 1133 408 1122 q 364 1143 383 1143 q 325 1134 343 1143 q 297 1096 307 1125 l 244 1156 q 301 1203 269 1189 q 371 1217 333 1217 q 433 1202 406 1215 q 477 1165 461 1189 q 493 1107 493 1140 z "},"Ȇ":{"ha":694,"x_min":78,"x_max":619,"o":"m 78 0 l 78 867 l 619 867 l 619 767 l 190 767 l 190 503 l 544 503 l 544 400 l 190 400 l 190 100 l 615 100 l 615 0 l 78 0 m 242 957 l 161 994 q 246 1094 194 1058 q 363 1129 297 1129 q 481 1094 429 1129 q 564 994 533 1058 l 483 957 q 432 1031 461 1007 q 363 1054 403 1054 q 315 1044 336 1054 q 275 1013 293 1033 q 242 957 257 992 z "},"Ē":{"ha":694,"x_min":78,"x_max":619,"o":"m 78 0 l 78 867 l 619 867 l 619 767 l 190 767 l 190 503 l 544 503 l 544 400 l 190 400 l 190 100 l 615 100 l 615 0 l 78 0 z "},"Ḗ":{"ha":694,"x_min":78,"x_max":619,"o":"m 78 0 l 78 867 l 619 867 l 619 767 l 190 767 l 190 503 l 544 503 l 544 400 l 190 400 l 190 100 l 615 100 l 615 0 l 78 0 z "},"Ḕ":{"ha":694,"x_min":78,"x_max":619,"o":"m 78 0 l 78 867 l 619 867 l 619 767 l 190 767 l 190 503 l 544 503 l 544 400 l 190 400 l 190 100 l 615 100 l 615 0 l 78 0 z "},"Ę":{"ha":694,"x_min":78,"x_max":619,"o":"m 78 0 l 78 867 l 619 867 l 619 767 l 190 767 l 190 503 l 544 503 l 544 400 l 190 400 l 190 100 l 615 100 l 615 0 l 78 0 m 532 -235 l 497 -321 q 409 -292 446 -310 q 352 -247 372 -274 q 332 -185 332 -219 q 352 -112 332 -149 q 412 -40 372 -75 q 508 28 451 -4 l 551 0 q 494 -55 518 -26 q 457 -110 469 -83 q 444 -158 444 -136 q 466 -206 444 -186 q 532 -235 488 -226 z "},"Ẽ":{"ha":694,"x_min":78,"x_max":619,"o":"m 78 0 l 78 867 l 619 867 l 619 767 l 190 767 l 190 503 l 544 503 l 544 400 l 190 400 l 190 100 l 615 100 l 615 0 l 78 0 z "},"Ƹ":{"ha":694,"x_min":88,"x_max":607,"o":"m 372 -19 q 217 17 281 -19 q 121 111 154 53 q 88 239 88 169 q 110 351 88 300 q 172 442 132 403 q 269 502 213 481 q 392 524 325 524 l 468 524 l 468 433 q 355 426 404 436 q 273 392 306 415 q 224 333 240 369 q 207 247 207 296 q 228 158 207 196 q 289 101 250 121 q 382 82 328 82 q 453 93 424 82 q 507 126 482 104 q 526 155 521 146 q 529 175 531 164 l 536 183 l 546 175 l 607 85 q 502 7 561 33 q 372 -19 443 -19 l 372 -19 m 113 768 l 113 865 l 556 865 l 556 763 l 247 763 l 468 524 l 363 506 l 113 768 z "},"F":{"ha":694,"x_min":103,"x_max":615,"o":"m 103 0 l 103 867 l 615 867 l 615 768 l 214 768 l 214 517 l 538 517 l 538 418 l 214 418 l 214 0 l 103 0 z "},"G":{"ha":694,"x_min":44,"x_max":644,"o":"m 385 -14 q 203 40 279 -14 q 85 194 126 94 q 44 425 44 293 q 66 615 44 536 q 125 744 88 693 q 208 825 163 796 q 298 865 253 854 q 381 876 343 876 q 485 858 435 876 q 576 807 535 839 q 642 729 618 775 l 567 663 l 556 653 l 549 661 q 546 682 550 672 q 526 710 542 692 q 486 747 507 732 q 440 768 465 761 q 382 775 414 775 q 313 765 346 775 q 253 731 281 756 q 204 669 225 707 q 172 574 183 631 q 161 443 161 518 q 176 289 161 356 q 222 177 192 222 q 292 109 251 132 q 385 86 333 86 q 423 88 403 86 q 463 97 443 90 q 502 113 483 103 q 538 135 521 122 l 538 325 l 385 325 l 385 425 l 644 425 l 644 76 q 517 8 583 31 q 385 -14 451 -14 l 385 -14 z "},"Ğ":{"ha":694,"x_min":44,"x_max":644,"o":"m 385 -14 q 203 40 279 -14 q 85 194 126 94 q 44 425 44 293 q 66 615 44 536 q 125 744 88 693 q 208 825 163 796 q 298 865 253 854 q 381 876 343 876 q 485 858 435 876 q 576 807 535 839 q 642 729 618 775 l 567 663 l 556 653 l 549 661 q 546 682 550 672 q 526 710 542 692 q 486 747 507 732 q 440 768 465 761 q 382 775 414 775 q 313 765 346 775 q 253 731 281 756 q 204 669 225 707 q 172 574 183 631 q 161 443 161 518 q 176 289 161 356 q 222 177 192 222 q 292 109 251 132 q 385 86 333 86 q 423 88 403 86 q 463 97 443 90 q 502 113 483 103 q 538 135 521 122 l 538 325 l 385 325 l 385 425 l 644 425 l 644 76 q 517 8 583 31 q 385 -14 451 -14 l 385 -14 z "},"Ǧ":{"ha":694,"x_min":44,"x_max":644,"o":"m 385 -14 q 203 40 279 -14 q 85 194 126 94 q 44 425 44 293 q 66 615 44 536 q 125 744 88 693 q 208 825 163 796 q 298 865 253 854 q 381 876 343 876 q 485 858 435 876 q 576 807 535 839 q 642 729 618 775 l 567 663 l 556 653 l 549 661 q 546 682 550 672 q 526 710 542 692 q 486 747 507 732 q 440 768 465 761 q 382 775 414 775 q 313 765 346 775 q 253 731 281 756 q 204 669 225 707 q 172 574 183 631 q 161 443 161 518 q 176 289 161 356 q 222 177 192 222 q 292 109 251 132 q 385 86 333 86 q 423 88 403 86 q 463 97 443 90 q 502 113 483 103 q 538 135 521 122 l 538 325 l 385 325 l 385 425 l 644 425 l 644 76 q 517 8 583 31 q 385 -14 451 -14 l 385 -14 z "},"Ĝ":{"ha":694,"x_min":44,"x_max":644,"o":"m 385 -14 q 203 40 279 -14 q 85 194 126 94 q 44 425 44 293 q 66 615 44 536 q 125 744 88 693 q 208 825 163 796 q 298 865 253 854 q 381 876 343 876 q 485 858 435 876 q 576 807 535 839 q 642 729 618 775 l 567 663 l 556 653 l 549 661 q 546 682 550 672 q 526 710 542 692 q 486 747 507 732 q 440 768 465 761 q 382 775 414 775 q 313 765 346 775 q 253 731 281 756 q 204 669 225 707 q 172 574 183 631 q 161 443 161 518 q 176 289 161 356 q 222 177 192 222 q 292 109 251 132 q 385 86 333 86 q 423 88 403 86 q 463 97 443 90 q 502 113 483 103 q 538 135 521 122 l 538 325 l 385 325 l 385 425 l 644 425 l 644 76 q 517 8 583 31 q 385 -14 451 -14 l 385 -14 m 197 907 l 150 968 l 357 1103 l 392 1103 l 606 968 l 560 908 l 376 1003 l 197 907 z "},"Ģ":{"ha":694,"x_min":44,"x_max":644,"o":"m 385 -14 q 203 40 279 -14 q 85 194 126 94 q 44 425 44 293 q 66 615 44 536 q 125 744 88 693 q 208 825 163 796 q 298 865 253 854 q 381 876 343 876 q 485 858 435 876 q 576 807 535 839 q 642 729 618 775 l 567 663 l 556 653 l 549 661 q 546 682 550 672 q 526 710 542 692 q 486 747 507 732 q 440 768 465 761 q 382 775 414 775 q 313 765 346 775 q 253 731 281 756 q 204 669 225 707 q 172 574 183 631 q 161 443 161 518 q 176 289 161 356 q 222 177 192 222 q 292 109 251 132 q 385 86 333 86 q 423 88 403 86 q 463 97 443 90 q 502 113 483 103 q 538 135 521 122 l 538 325 l 385 325 l 385 425 l 644 425 l 644 76 q 517 8 583 31 q 385 -14 451 -14 l 385 -14 m 333 -392 l 281 -344 q 336 -277 314 -312 q 358 -219 358 -242 q 343 -187 358 -201 q 312 -156 328 -172 q 296 -115 296 -140 q 319 -58 296 -81 q 378 -36 343 -36 q 442 -67 415 -36 q 469 -149 469 -99 q 455 -222 469 -183 q 410 -302 440 -260 q 333 -392 379 -344 z "},"Ġ":{"ha":694,"x_min":44,"x_max":644,"o":"m 385 -14 q 203 40 279 -14 q 85 194 126 94 q 44 425 44 293 q 66 615 44 536 q 125 744 88 693 q 208 825 163 796 q 298 865 253 854 q 381 876 343 876 q 485 858 435 876 q 576 807 535 839 q 642 729 618 775 l 567 663 l 556 653 l 549 661 q 546 682 550 672 q 526 710 542 692 q 486 747 507 732 q 440 768 465 761 q 382 775 414 775 q 313 765 346 775 q 253 731 281 756 q 204 669 225 707 q 172 574 183 631 q 161 443 161 518 q 176 289 161 356 q 222 177 192 222 q 292 109 251 132 q 385 86 333 86 q 423 88 403 86 q 463 97 443 90 q 502 113 483 103 q 538 135 521 122 l 538 325 l 385 325 l 385 425 l 644 425 l 644 76 q 517 8 583 31 q 385 -14 451 -14 l 385 -14 z "},"Ḡ":{"ha":694,"x_min":44,"x_max":644,"o":"m 385 -14 q 203 40 279 -14 q 85 194 126 94 q 44 425 44 293 q 66 615 44 536 q 125 744 88 693 q 208 825 163 796 q 298 865 253 854 q 381 876 343 876 q 485 858 435 876 q 576 807 535 839 q 642 729 618 775 l 567 663 l 556 653 l 549 661 q 546 682 550 672 q 526 710 542 692 q 486 747 507 732 q 440 768 465 761 q 382 775 414 775 q 313 765 346 775 q 253 731 281 756 q 204 669 225 707 q 172 574 183 631 q 161 443 161 518 q 176 289 161 356 q 222 177 192 222 q 292 109 251 132 q 385 86 333 86 q 423 88 403 86 q 463 97 443 90 q 502 113 483 103 q 538 135 521 122 l 538 325 l 385 325 l 385 425 l 644 425 l 644 76 q 517 8 583 31 q 385 -14 451 -14 l 385 -14 z "},"H":{"ha":694,"x_min":64,"x_max":632,"o":"m 64 865 l 183 865 l 197 865 l 197 854 q 187 836 189 846 q 185 803 185 826 l 185 501 l 499 501 l 499 865 l 618 865 l 632 865 l 632 854 q 622 836 624 846 q 619 803 619 826 l 619 0 l 499 0 l 499 404 l 185 404 l 185 0 l 64 0 l 64 865 z "},"Ħ":{"ha":694,"x_min":10,"x_max":681,"o":"m 10 685 l 10 776 l 681 776 l 681 685 l 10 685 m 64 865 l 183 865 l 197 865 l 197 854 q 187 836 189 846 q 185 803 185 826 l 185 501 l 499 501 l 499 865 l 618 865 l 632 865 l 632 854 q 622 836 624 846 q 619 803 619 826 l 619 0 l 499 0 l 499 404 l 185 404 l 185 0 l 64 0 l 64 865 z "},"Ḫ":{"ha":694,"x_min":64,"x_max":632,"o":"m 64 865 l 183 865 l 197 865 l 197 854 q 187 836 189 846 q 185 803 185 826 l 185 501 l 499 501 l 499 865 l 618 865 l 632 865 l 632 854 q 622 836 624 846 q 619 803 619 826 l 619 0 l 499 0 l 499 404 l 185 404 l 185 0 l 64 0 l 64 865 z "},"Ĥ":{"ha":694,"x_min":64,"x_max":632,"o":"m 64 865 l 183 865 l 197 865 l 197 854 q 187 836 189 846 q 185 803 185 826 l 185 501 l 499 501 l 499 865 l 618 865 l 632 865 l 632 854 q 622 836 624 846 q 619 803 619 826 l 619 0 l 499 0 l 499 404 l 185 404 l 185 0 l 64 0 l 64 865 m 167 907 l 119 968 l 326 1103 l 361 1103 l 575 968 l 529 908 l 346 1003 l 167 907 z "},"Ḥ":{"ha":694,"x_min":64,"x_max":632,"o":"m 64 865 l 183 865 l 197 865 l 197 854 q 187 836 189 846 q 185 803 185 826 l 185 501 l 499 501 l 499 865 l 618 865 l 632 865 l 632 854 q 622 836 624 846 q 619 803 619 826 l 619 0 l 499 0 l 499 404 l 185 404 l 185 0 l 64 0 l 64 865 z "},"I":{"ha":694,"x_min":107,"x_max":571,"o":"m 107 0 l 107 97 l 278 97 l 278 768 l 117 768 l 117 865 l 563 865 l 563 768 l 392 768 l 392 96 l 571 96 l 571 0 l 107 0 z "},"Í":{"ha":694,"x_min":107,"x_max":571,"o":"m 107 0 l 107 97 l 278 97 l 278 768 l 117 768 l 117 865 l 563 865 l 563 768 l 392 768 l 392 96 l 571 96 l 571 0 l 107 0 z "},"Ĭ":{"ha":694,"x_min":107,"x_max":571,"o":"m 107 0 l 107 97 l 278 97 l 278 768 l 117 768 l 117 865 l 563 865 l 563 768 l 392 768 l 392 96 l 571 96 l 571 0 l 107 0 z "},"Î":{"ha":694,"x_min":107,"x_max":571,"o":"m 107 0 l 107 97 l 278 97 l 278 768 l 117 768 l 117 865 l 563 865 l 563 768 l 392 768 l 392 96 l 571 96 l 571 0 l 107 0 m 154 907 l 107 968 l 314 1103 l 349 1103 l 563 968 l 517 908 l 333 1003 l 154 907 z "},"Ȉ":{"ha":694,"x_min":90,"x_max":571,"o":"m 107 0 l 107 97 l 278 97 l 278 768 l 117 768 l 117 865 l 563 865 l 563 768 l 392 768 l 392 96 l 571 96 l 571 0 l 107 0 z "},"Ï":{"ha":694,"x_min":107,"x_max":571,"o":"m 107 0 l 107 97 l 278 97 l 278 768 l 117 768 l 117 865 l 563 865 l 563 768 l 392 768 l 392 96 l 571 96 l 571 0 l 107 0 z "},"Ḯ":{"ha":694,"x_min":107,"x_max":571,"o":"m 107 0 l 107 97 l 278 97 l 278 768 l 117 768 l 117 865 l 563 865 l 563 768 l 392 768 l 392 96 l 571 96 l 571 0 l 107 0 z "},"İ":{"ha":694,"x_min":107,"x_max":571,"o":"m 107 0 l 107 97 l 278 97 l 278 768 l 117 768 l 117 865 l 563 865 l 563 768 l 392 768 l 392 96 l 571 96 l 571 0 l 107 0 z "},"Ị":{"ha":694,"x_min":107,"x_max":571,"o":"m 107 0 l 107 97 l 278 97 l 278 768 l 117 768 l 117 865 l 563 865 l 563 768 l 392 768 l 392 96 l 571 96 l 571 0 l 107 0 z "},"Ì":{"ha":694,"x_min":107,"x_max":571,"o":"m 107 0 l 107 97 l 278 97 l 278 768 l 117 768 l 117 865 l 563 865 l 563 768 l 392 768 l 392 96 l 571 96 l 571 0 l 107 0 z "},"Ỉ":{"ha":694,"x_min":107,"x_max":571,"o":"m 107 0 l 107 97 l 278 97 l 278 768 l 117 768 l 117 865 l 563 865 l 563 768 l 392 768 l 392 96 l 571 96 l 571 0 l 107 0 m 465 1107 q 453 1060 465 1078 q 424 1031 440 1043 q 395 1003 408 1018 q 382 963 382 988 l 382 951 l 303 951 l 303 990 q 315 1025 303 1010 q 342 1053 326 1040 q 369 1078 357 1065 q 381 1103 381 1090 q 368 1133 381 1122 q 336 1143 356 1143 q 297 1134 315 1143 q 269 1096 279 1125 l 217 1156 q 274 1203 242 1189 q 343 1217 306 1217 q 406 1202 378 1215 q 449 1165 433 1189 q 465 1107 465 1140 z "},"Ȋ":{"ha":694,"x_min":107,"x_max":571,"o":"m 107 0 l 107 97 l 278 97 l 278 768 l 117 768 l 117 865 l 563 865 l 563 768 l 392 768 l 392 96 l 571 96 l 571 0 l 107 0 m 214 957 l 133 994 q 218 1094 167 1058 q 335 1129 269 1129 q 453 1094 401 1129 q 536 994 506 1058 l 456 957 q 404 1031 433 1007 q 335 1054 375 1054 q 287 1044 308 1054 q 247 1013 265 1033 q 214 957 229 992 z "},"Ī":{"ha":694,"x_min":107,"x_max":571,"o":"m 107 0 l 107 97 l 278 97 l 278 768 l 117 768 l 117 865 l 563 865 l 563 768 l 392 768 l 392 96 l 571 96 l 571 0 l 107 0 z "},"Į":{"ha":694,"x_min":107,"x_max":574,"o":"m 107 0 l 107 97 l 278 97 l 278 768 l 117 768 l 117 865 l 563 865 l 563 768 l 392 768 l 392 96 l 571 96 l 571 0 l 107 0 m 554 -235 l 519 -321 q 431 -292 468 -310 q 374 -247 394 -274 q 354 -185 354 -219 q 374 -112 354 -149 q 434 -40 394 -75 q 531 28 474 -4 l 574 0 q 516 -55 540 -26 q 479 -110 492 -83 q 467 -158 467 -136 q 488 -206 467 -186 q 554 -235 510 -226 z "},"Ĩ":{"ha":694,"x_min":107,"x_max":572,"o":"m 107 0 l 107 97 l 278 97 l 278 768 l 117 768 l 117 865 l 563 865 l 563 768 l 392 768 l 392 96 l 571 96 l 571 0 l 107 0 z "},"J":{"ha":694,"x_min":60,"x_max":639,"o":"m 271 -17 q 154 7 208 -17 q 60 79 100 31 l 122 167 l 132 178 l 140 171 q 147 149 142 160 q 168 124 151 139 q 214 98 190 107 q 267 89 238 89 q 338 109 310 89 q 378 175 365 129 q 392 294 392 221 l 392 768 l 228 768 l 228 865 l 639 865 l 639 768 l 508 768 l 508 292 q 491 151 510 210 q 438 54 472 92 q 361 0 404 17 q 271 -17 318 -17 l 271 -17 z "},"Ĵ":{"ha":694,"x_min":60,"x_max":679,"o":"m 271 -17 q 154 7 208 -17 q 60 79 100 31 l 122 167 l 132 178 l 140 171 q 147 149 142 160 q 168 124 151 139 q 214 98 190 107 q 267 89 238 89 q 338 109 310 89 q 378 175 365 129 q 392 294 392 221 l 392 768 l 228 768 l 228 865 l 639 865 l 639 768 l 508 768 l 508 292 q 491 151 510 210 q 438 54 472 92 q 361 0 404 17 q 271 -17 318 -17 l 271 -17 m 272 907 l 225 968 l 432 1103 l 467 1103 l 681 968 l 635 908 l 451 1003 l 272 907 z "},"K":{"ha":694,"x_min":56,"x_max":664,"o":"m 242 419 l 176 344 l 176 0 l 56 0 l 56 865 l 175 865 l 189 865 l 189 854 q 178 836 181 846 q 176 803 176 826 l 176 482 l 514 872 q 533 869 522 871 q 553 867 543 868 q 575 866 564 867 q 596 865 586 865 l 643 865 l 328 496 l 664 0 l 521 -6 l 242 419 z "},"Ķ":{"ha":694,"x_min":56,"x_max":664,"o":"m 242 419 l 176 344 l 176 0 l 56 0 l 56 865 l 175 865 l 189 865 l 189 854 q 178 836 181 846 q 176 803 176 826 l 176 482 l 514 872 q 533 869 522 871 q 553 867 543 868 q 575 866 564 867 q 596 865 586 865 l 643 865 l 328 496 l 664 0 l 521 -6 l 242 419 m 293 -392 l 240 -344 q 296 -277 274 -312 q 318 -219 318 -242 q 303 -187 318 -201 q 272 -156 288 -172 q 256 -115 256 -140 q 279 -58 256 -81 q 338 -36 303 -36 q 402 -67 375 -36 q 429 -149 429 -99 q 415 -222 429 -183 q 369 -302 400 -260 q 293 -392 339 -344 z "},"Ƙ":{"ha":694,"x_min":57,"x_max":658,"o":"m 57 865 l 178 865 l 192 865 l 192 854 q 181 836 183 846 q 179 803 179 826 l 179 481 q 301 663 244 588 q 408 785 358 739 q 504 851 458 831 q 594 872 550 872 q 626 869 611 872 q 651 861 640 867 l 651 746 l 651 732 l 640 732 q 623 747 632 740 q 590 757 614 754 q 586 757 588 757 q 582 757 585 757 q 540 748 564 757 q 485 715 517 739 q 411 643 454 690 q 311 519 368 596 q 179 329 254 442 l 179 0 l 57 0 l 57 865 m 203 471 l 288 547 l 658 0 l 517 -6 l 203 471 z "},"L":{"ha":694,"x_min":88,"x_max":618,"o":"m 88 865 l 207 865 l 221 865 l 221 854 q 210 836 213 846 q 208 803 208 826 l 208 99 l 618 99 l 618 0 l 88 0 l 88 865 z "},"Ǉ":{"ha":694,"x_min":83,"x_max":633,"o":"m 396 -222 q 286 -199 336 -222 q 197 -128 236 -175 l 272 -39 q 283 -51 281 -44 q 288 -65 286 -58 q 297 -82 289 -72 q 317 -99 303 -89 q 351 -117 332 -110 q 396 -124 371 -124 q 463 -103 436 -124 q 502 -35 489 -82 q 515 88 515 11 l 515 769 l 349 769 l 349 865 l 632 865 l 632 768 l 632 768 l 632 82 q 615 -58 633 0 q 563 -153 596 -117 q 486 -206 529 -189 q 396 -222 443 -222 m 83 0 l 83 865 l 215 865 q 213 853 215 856 q 207 846 210 851 q 204 818 204 840 l 204 99 l 418 99 l 418 0 l 83 0 z "},"Ĺ":{"ha":694,"x_min":88,"x_max":618,"o":"m 88 865 l 207 865 l 221 865 l 221 854 q 210 836 213 846 q 208 803 208 826 l 208 99 l 618 99 l 618 0 l 88 0 l 88 865 z "},"Ľ":{"ha":694,"x_min":88,"x_max":618,"o":"m 474 564 l 424 606 q 474 667 456 635 q 493 718 493 699 q 480 747 493 733 q 453 775 467 760 q 439 810 439 790 q 460 860 439 842 q 511 879 481 879 q 569 852 546 879 q 593 781 593 825 q 580 714 593 749 q 540 642 567 679 q 474 564 514 606 m 88 865 l 207 865 l 221 865 l 221 854 q 210 836 213 846 q 208 803 208 826 l 208 99 l 618 99 l 618 0 l 88 0 l 88 865 z "},"Ļ":{"ha":694,"x_min":88,"x_max":618,"o":"m 88 865 l 207 865 l 221 865 l 221 854 q 210 836 213 846 q 208 803 208 826 l 208 99 l 618 99 l 618 0 l 88 0 l 88 865 m 311 -392 l 258 -344 q 314 -277 292 -312 q 336 -219 336 -242 q 321 -187 336 -201 q 290 -156 306 -172 q 274 -115 274 -140 q 297 -58 274 -81 q 356 -36 321 -36 q 420 -67 393 -36 q 447 -149 447 -99 q 433 -222 447 -183 q 388 -302 418 -260 q 311 -392 357 -344 z "},"Ŀ":{"ha":694,"x_min":88,"x_max":618,"o":"m 88 865 l 207 865 l 221 865 l 221 854 q 210 836 213 846 q 208 803 208 826 l 208 99 l 618 99 l 618 0 l 88 0 l 88 865 m 425 374 q 362 399 388 374 q 336 461 336 424 q 363 523 336 497 q 425 549 390 549 q 489 523 461 549 q 517 461 517 497 q 490 399 517 425 q 425 374 464 374 z "},"Ḷ":{"ha":694,"x_min":88,"x_max":618,"o":"m 88 865 l 207 865 l 221 865 l 221 854 q 210 836 213 846 q 208 803 208 826 l 208 99 l 618 99 l 618 0 l 88 0 l 88 865 z "},"ǈ":{"ha":694,"x_min":89,"x_max":617,"o":"m 89 0 l 89 865 l 222 865 q 216 842 222 851 q 210 818 210 832 l 210 100 l 406 100 l 406 0 l 89 0 m 351 -243 q 280 -234 314 -243 q 217 -206 246 -225 q 165 -161 189 -187 l 240 -61 q 249 -76 247 -68 q 255 -91 251 -83 q 268 -108 258 -99 q 300 -128 278 -117 q 318 -135 310 -132 q 337 -140 326 -137 q 357 -142 347 -142 q 409 -132 386 -142 q 450 -102 432 -122 q 477 -50 468 -82 q 486 25 486 -18 l 486 543 l 310 543 l 310 639 l 607 639 l 607 31 q 587 -93 607 -42 q 532 -177 567 -144 q 451 -226 497 -210 q 351 -243 404 -242 m 536 763 q 479 785 503 763 q 456 840 456 808 q 478 898 456 875 q 536 921 501 921 q 592 897 568 921 q 617 840 617 872 q 592 785 617 808 q 536 763 568 763 z "},"Ḻ":{"ha":694,"x_min":88,"x_max":618,"o":"m 88 865 l 207 865 l 221 865 l 221 854 q 210 836 213 846 q 208 803 208 826 l 208 99 l 618 99 l 618 0 l 88 0 l 88 865 z "},"Ł":{"ha":694,"x_min":24,"x_max":628,"o":"m 99 0 l 99 328 l 24 303 l 24 404 l 99 429 l 99 865 l 231 865 q 233 864 232 865 q 233 861 233 863 q 228 849 233 856 q 219 818 222 843 l 219 468 l 438 539 q 459 547 449 543 q 476 556 469 551 l 476 449 l 219 365 l 219 99 l 628 99 l 628 0 l 99 0 z "},"M":{"ha":694,"x_min":53,"x_max":644,"o":"m 53 0 l 53 865 l 150 865 l 349 450 l 550 867 l 644 867 l 644 0 l 538 0 l 538 636 l 368 299 l 317 299 l 158 633 l 158 0 l 53 0 z "},"Ṃ":{"ha":694,"x_min":53,"x_max":644,"o":"m 53 0 l 53 865 l 150 865 l 349 450 l 550 867 l 644 867 l 644 0 l 538 0 l 538 636 l 368 299 l 317 299 l 158 633 l 158 0 l 53 0 z "},"N":{"ha":694,"x_min":64,"x_max":640,"o":"m 64 865 l 181 865 l 521 247 l 518 865 l 626 865 l 640 865 l 640 854 q 630 836 632 846 q 628 803 628 826 l 628 0 l 528 0 l 172 656 l 172 0 l 64 0 l 64 865 z "},"Ń":{"ha":694,"x_min":64,"x_max":640,"o":"m 64 865 l 181 865 l 521 247 l 518 865 l 626 865 l 640 865 l 640 854 q 630 836 632 846 q 628 803 628 826 l 628 0 l 528 0 l 172 656 l 172 0 l 64 0 l 64 865 z "},"Ň":{"ha":694,"x_min":64,"x_max":640,"o":"m 64 865 l 181 865 l 521 247 l 518 865 l 626 865 l 640 865 l 640 854 q 630 836 632 846 q 628 803 628 826 l 628 0 l 528 0 l 172 656 l 172 0 l 64 0 l 64 865 z "},"Ņ":{"ha":694,"x_min":64,"x_max":640,"o":"m 64 865 l 181 865 l 521 247 l 518 865 l 626 865 l 640 865 l 640 854 q 630 836 632 846 q 628 803 628 826 l 628 0 l 528 0 l 172 656 l 172 0 l 64 0 l 64 865 m 311 -392 l 258 -344 q 314 -277 292 -312 q 336 -219 336 -242 q 321 -187 336 -201 q 290 -156 306 -172 q 274 -115 274 -140 q 297 -58 274 -81 q 356 -36 321 -36 q 420 -67 393 -36 q 447 -149 447 -99 q 433 -222 447 -183 q 388 -302 418 -260 q 311 -392 357 -344 z "},"Ṅ":{"ha":694,"x_min":64,"x_max":640,"o":"m 64 865 l 181 865 l 521 247 l 518 865 l 626 865 l 640 865 l 640 854 q 630 836 632 846 q 628 803 628 826 l 628 0 l 528 0 l 172 656 l 172 0 l 64 0 l 64 865 z "},"Ṇ":{"ha":694,"x_min":64,"x_max":640,"o":"m 64 865 l 181 865 l 521 247 l 518 865 l 626 865 l 640 865 l 640 854 q 630 836 632 846 q 628 803 628 826 l 628 0 l 528 0 l 172 656 l 172 0 l 64 0 l 64 865 z "},"Ŋ":{"ha":694,"x_min":63,"x_max":639,"o":"m 522 865 l 639 865 q 634 845 639 853 q 629 821 629 838 l 629 0 q 603 -144 629 -86 q 528 -233 576 -203 q 415 -264 479 -264 q 347 -253 382 -264 q 281 -221 313 -243 l 338 -121 q 353 -129 349 -124 q 364 -141 358 -135 q 381 -153 369 -147 q 415 -158 393 -158 q 476 -139 453 -158 q 509 -79 499 -119 q 521 21 519 -39 l 171 656 l 171 0 l 63 0 l 63 865 l 179 865 l 522 247 l 522 865 z "},"Ṉ":{"ha":694,"x_min":64,"x_max":640,"o":"m 64 865 l 181 865 l 521 247 l 518 865 l 626 865 l 640 865 l 640 854 q 630 836 632 846 q 628 803 628 826 l 628 0 l 528 0 l 172 656 l 172 0 l 64 0 l 64 865 z "},"Ñ":{"ha":694,"x_min":64,"x_max":640,"o":"m 64 865 l 181 865 l 521 247 l 518 865 l 626 865 l 640 865 l 640 854 q 630 836 632 846 q 628 803 628 826 l 628 0 l 528 0 l 172 656 l 172 0 l 64 0 l 64 865 z "},"O":{"ha":694,"x_min":33,"x_max":663,"o":"m 349 -15 q 177 36 247 -15 q 70 188 107 88 q 33 429 33 288 q 70 667 33 568 q 177 820 107 767 q 349 874 247 874 q 519 820 450 874 q 626 667 589 767 q 663 429 663 568 q 626 188 663 288 q 519 36 589 88 q 349 -15 450 -15 m 349 83 q 453 123 410 83 q 520 240 497 163 q 543 429 543 317 q 520 613 543 536 q 453 732 497 690 q 349 774 410 774 q 243 732 288 774 q 176 613 199 690 q 153 429 153 536 q 176 240 153 317 q 243 123 199 163 q 349 83 288 83 z "},"Ó":{"ha":694,"x_min":33,"x_max":663,"o":"m 349 -15 q 177 36 247 -15 q 70 188 107 88 q 33 429 33 288 q 70 667 33 568 q 177 820 107 767 q 349 874 247 874 q 519 820 450 874 q 626 667 589 767 q 663 429 663 568 q 626 188 663 288 q 519 36 589 88 q 349 -15 450 -15 m 349 83 q 453 123 410 83 q 520 240 497 163 q 543 429 543 317 q 520 613 543 536 q 453 732 497 690 q 349 774 410 774 q 243 732 288 774 q 176 613 199 690 q 153 429 153 536 q 176 240 153 317 q 243 123 199 163 q 349 83 288 83 z "},"Ŏ":{"ha":694,"x_min":33,"x_max":663,"o":"m 349 -15 q 177 36 247 -15 q 70 188 107 88 q 33 429 33 288 q 70 667 33 568 q 177 820 107 767 q 349 874 247 874 q 519 820 450 874 q 626 667 589 767 q 663 429 663 568 q 626 188 663 288 q 519 36 589 88 q 349 -15 450 -15 m 349 83 q 453 123 410 83 q 520 240 497 163 q 543 429 543 317 q 520 613 543 536 q 453 732 497 690 q 349 774 410 774 q 243 732 288 774 q 176 613 199 690 q 153 429 153 536 q 176 240 153 317 q 243 123 199 163 q 349 83 288 83 z "},"Ô":{"ha":694,"x_min":33,"x_max":663,"o":"m 349 -15 q 177 36 247 -15 q 70 188 107 88 q 33 429 33 288 q 70 667 33 568 q 177 820 107 767 q 349 874 247 874 q 519 820 450 874 q 626 667 589 767 q 663 429 663 568 q 626 188 663 288 q 519 36 589 88 q 349 -15 450 -15 m 349 83 q 453 123 410 83 q 520 240 497 163 q 543 429 543 317 q 520 613 543 536 q 453 732 497 690 q 349 774 410 774 q 243 732 288 774 q 176 613 199 690 q 153 429 153 536 q 176 240 153 317 q 243 123 199 163 q 349 83 288 83 m 167 908 l 119 969 l 326 1104 l 361 1104 l 575 969 l 529 910 l 346 1004 l 167 908 z "},"Ố":{"ha":694,"x_min":33,"x_max":754,"o":"m 349 -15 q 177 36 247 -15 q 70 188 107 88 q 33 429 33 288 q 70 667 33 568 q 177 820 107 767 q 349 874 247 874 q 519 820 450 874 q 626 667 589 767 q 663 429 663 568 q 626 188 663 288 q 519 36 589 88 q 349 -15 450 -15 m 349 83 q 453 123 410 83 q 520 240 497 163 q 543 429 543 317 q 520 613 543 536 q 453 732 497 690 q 349 774 410 774 q 243 732 288 774 q 176 613 199 690 q 153 429 153 536 q 176 240 153 317 q 243 123 199 163 q 349 83 288 83 z "},"Ộ":{"ha":694,"x_min":33,"x_max":663,"o":"m 349 -15 q 177 36 247 -15 q 70 188 107 88 q 33 429 33 288 q 70 667 33 568 q 177 820 107 767 q 349 874 247 874 q 519 820 450 874 q 626 667 589 767 q 663 429 663 568 q 626 188 663 288 q 519 36 589 88 q 349 -15 450 -15 m 349 83 q 453 123 410 83 q 520 240 497 163 q 543 429 543 317 q 520 613 543 536 q 453 732 497 690 q 349 774 410 774 q 243 732 288 774 q 176 613 199 690 q 153 429 153 536 q 176 240 153 317 q 243 123 199 163 q 349 83 288 83 m 167 908 l 119 969 l 326 1104 l 361 1104 l 575 969 l 529 910 l 346 1004 l 167 908 z "},"Ồ":{"ha":694,"x_min":33,"x_max":663,"o":"m 349 -15 q 177 36 247 -15 q 70 188 107 88 q 33 429 33 288 q 70 667 33 568 q 177 820 107 767 q 349 874 247 874 q 519 820 450 874 q 626 667 589 767 q 663 429 663 568 q 626 188 663 288 q 519 36 589 88 q 349 -15 450 -15 m 349 83 q 453 123 410 83 q 520 240 497 163 q 543 429 543 317 q 520 613 543 536 q 453 732 497 690 q 349 774 410 774 q 243 732 288 774 q 176 613 199 690 q 153 429 153 536 q 176 240 153 317 q 243 123 199 163 q 349 83 288 83 z "},"Ổ":{"ha":694,"x_min":33,"x_max":663,"o":"m 349 -15 q 177 36 247 -15 q 70 188 107 88 q 33 429 33 288 q 70 667 33 568 q 177 820 107 767 q 349 874 247 874 q 519 820 450 874 q 626 667 589 767 q 663 429 663 568 q 626 188 663 288 q 519 36 589 88 q 349 -15 450 -15 m 349 83 q 453 123 410 83 q 520 240 497 163 q 543 429 543 317 q 520 613 543 536 q 453 732 497 690 q 349 774 410 774 q 243 732 288 774 q 176 613 199 690 q 153 429 153 536 q 176 240 153 317 q 243 123 199 163 q 349 83 288 83 z "},"Ỗ":{"ha":694,"x_min":33,"x_max":663,"o":"m 349 -15 q 177 36 247 -15 q 70 188 107 88 q 33 429 33 288 q 70 667 33 568 q 177 820 107 767 q 349 874 247 874 q 519 820 450 874 q 626 667 589 767 q 663 429 663 568 q 626 188 663 288 q 519 36 589 88 q 349 -15 450 -15 m 349 83 q 453 123 410 83 q 520 240 497 163 q 543 429 543 317 q 520 613 543 536 q 453 732 497 690 q 349 774 410 774 q 243 732 288 774 q 176 613 199 690 q 153 429 153 536 q 176 240 153 317 q 243 123 199 163 q 349 83 288 83 z "},"Ȍ":{"ha":694,"x_min":33,"x_max":663,"o":"m 349 -15 q 177 36 247 -15 q 70 188 107 88 q 33 429 33 288 q 70 667 33 568 q 177 820 107 767 q 349 874 247 874 q 519 820 450 874 q 626 667 589 767 q 663 429 663 568 q 626 188 663 288 q 519 36 589 88 q 349 -15 450 -15 m 349 83 q 453 123 410 83 q 520 240 497 163 q 543 429 543 317 q 520 613 543 536 q 453 732 497 690 q 349 774 410 774 q 243 732 288 774 q 176 613 199 690 q 153 429 153 536 q 176 240 153 317 q 243 123 199 163 q 349 83 288 83 z "},"Ö":{"ha":694,"x_min":33,"x_max":663,"o":"m 349 -15 q 177 36 247 -15 q 70 188 107 88 q 33 429 33 288 q 70 667 33 568 q 177 820 107 767 q 349 874 247 874 q 519 820 450 874 q 626 667 589 767 q 663 429 663 568 q 626 188 663 288 q 519 36 589 88 q 349 -15 450 -15 m 349 83 q 453 123 410 83 q 520 240 497 163 q 543 429 543 317 q 520 613 543 536 q 453 732 497 690 q 349 774 410 774 q 243 732 288 774 q 176 613 199 690 q 153 429 153 536 q 176 240 153 317 q 243 123 199 163 q 349 83 288 83 z "},"Ȫ":{"ha":694,"x_min":33,"x_max":663,"o":"m 349 -15 q 177 36 247 -15 q 70 188 107 88 q 33 429 33 288 q 70 667 33 568 q 177 820 107 767 q 349 874 247 874 q 519 820 450 874 q 626 667 589 767 q 663 429 663 568 q 626 188 663 288 q 519 36 589 88 q 349 -15 450 -15 m 349 83 q 453 123 410 83 q 520 240 497 163 q 543 429 543 317 q 520 613 543 536 q 453 732 497 690 q 349 774 410 774 q 243 732 288 774 q 176 613 199 690 q 153 429 153 536 q 176 240 153 317 q 243 123 199 163 q 349 83 288 83 z "},"Ȱ":{"ha":694,"x_min":33,"x_max":663,"o":"m 349 -15 q 177 36 247 -15 q 70 188 107 88 q 33 429 33 288 q 70 667 33 568 q 177 820 107 767 q 349 874 247 874 q 519 820 450 874 q 626 667 589 767 q 663 429 663 568 q 626 188 663 288 q 519 36 589 88 q 349 -15 450 -15 m 349 83 q 453 123 410 83 q 520 240 497 163 q 543 429 543 317 q 520 613 543 536 q 453 732 497 690 q 349 774 410 774 q 243 732 288 774 q 176 613 199 690 q 153 429 153 536 q 176 240 153 317 q 243 123 199 163 q 349 83 288 83 z "},"Ọ":{"ha":694,"x_min":33,"x_max":663,"o":"m 349 -15 q 177 36 247 -15 q 70 188 107 88 q 33 429 33 288 q 70 667 33 568 q 177 820 107 767 q 349 874 247 874 q 519 820 450 874 q 626 667 589 767 q 663 429 663 568 q 626 188 663 288 q 519 36 589 88 q 349 -15 450 -15 m 349 83 q 453 123 410 83 q 520 240 497 163 q 543 429 543 317 q 520 613 543 536 q 453 732 497 690 q 349 774 410 774 q 243 732 288 774 q 176 613 199 690 q 153 429 153 536 q 176 240 153 317 q 243 123 199 163 q 349 83 288 83 z "},"Ò":{"ha":694,"x_min":33,"x_max":663,"o":"m 349 -15 q 177 36 247 -15 q 70 188 107 88 q 33 429 33 288 q 70 667 33 568 q 177 820 107 767 q 349 874 247 874 q 519 820 450 874 q 626 667 589 767 q 663 429 663 568 q 626 188 663 288 q 519 36 589 88 q 349 -15 450 -15 m 349 83 q 453 123 410 83 q 520 240 497 163 q 543 429 543 317 q 520 613 543 536 q 453 732 497 690 q 349 774 410 774 q 243 732 288 774 q 176 613 199 690 q 153 429 153 536 q 176 240 153 317 q 243 123 199 163 q 349 83 288 83 z "},"Ỏ":{"ha":694,"x_min":33,"x_max":663,"o":"m 349 -15 q 177 36 247 -15 q 70 188 107 88 q 33 429 33 288 q 70 667 33 568 q 177 820 107 767 q 349 874 247 874 q 519 820 450 874 q 626 667 589 767 q 663 429 663 568 q 626 188 663 288 q 519 36 589 88 q 349 -15 450 -15 m 349 83 q 453 123 410 83 q 520 240 497 163 q 543 429 543 317 q 520 613 543 536 q 453 732 497 690 q 349 774 410 774 q 243 732 288 774 q 176 613 199 690 q 153 429 153 536 q 176 240 153 317 q 243 123 199 163 q 349 83 288 83 m 478 1108 q 465 1062 478 1079 q 437 1032 453 1044 q 408 1004 421 1019 q 394 964 394 989 l 394 953 l 315 953 l 315 992 q 327 1026 315 1011 q 354 1054 339 1042 q 381 1079 369 1067 q 393 1104 393 1092 q 381 1134 393 1124 q 349 1144 368 1144 q 310 1135 328 1144 q 282 1097 292 1126 l 229 1157 q 286 1204 254 1190 q 356 1218 318 1218 q 418 1203 390 1217 q 462 1166 446 1190 q 478 1108 478 1142 z "},"Ơ":{"ha":694,"x_min":33,"x_max":663,"o":"m 349 -15 q 177 36 247 -15 q 70 188 107 88 q 33 429 33 288 q 70 667 33 568 q 177 820 107 767 q 349 874 247 874 q 519 820 450 874 q 626 667 589 767 q 663 429 663 568 q 626 188 663 288 q 519 36 589 88 q 349 -15 450 -15 m 349 83 q 453 123 410 83 q 520 240 497 163 q 543 429 543 317 q 520 613 543 536 q 453 732 497 690 q 349 774 410 774 q 243 732 288 774 q 176 613 199 690 q 153 429 153 536 q 176 240 153 317 q 243 123 199 163 q 349 83 288 83 m 536 729 l 522 808 q 557 819 546 808 q 571 859 568 831 q 574 939 574 888 l 660 939 q 651 820 660 867 q 617 751 643 774 q 536 729 592 729 z "},"Ớ":{"ha":694,"x_min":33,"x_max":663,"o":"m 349 -15 q 177 36 247 -15 q 70 188 107 88 q 33 429 33 288 q 70 667 33 568 q 177 820 107 767 q 349 874 247 874 q 519 820 450 874 q 626 667 589 767 q 663 429 663 568 q 626 188 663 288 q 519 36 589 88 q 349 -15 450 -15 m 349 83 q 453 123 410 83 q 520 240 497 163 q 543 429 543 317 q 520 613 543 536 q 453 732 497 690 q 349 774 410 774 q 243 732 288 774 q 176 613 199 690 q 153 429 153 536 q 176 240 153 317 q 243 123 199 163 q 349 83 288 83 m 536 729 l 522 808 q 557 819 546 808 q 571 859 568 831 q 574 939 574 888 l 660 939 q 651 820 660 867 q 617 751 643 774 q 536 729 592 729 z "},"Ợ":{"ha":694,"x_min":33,"x_max":663,"o":"m 349 -15 q 177 36 247 -15 q 70 188 107 88 q 33 429 33 288 q 70 667 33 568 q 177 820 107 767 q 349 874 247 874 q 519 820 450 874 q 626 667 589 767 q 663 429 663 568 q 626 188 663 288 q 519 36 589 88 q 349 -15 450 -15 m 349 83 q 453 123 410 83 q 520 240 497 163 q 543 429 543 317 q 520 613 543 536 q 453 732 497 690 q 349 774 410 774 q 243 732 288 774 q 176 613 199 690 q 153 429 153 536 q 176 240 153 317 q 243 123 199 163 q 349 83 288 83 m 536 729 l 522 808 q 557 819 546 808 q 571 859 568 831 q 574 939 574 888 l 660 939 q 651 820 660 867 q 617 751 643 774 q 536 729 592 729 z "},"Ờ":{"ha":694,"x_min":33,"x_max":663,"o":"m 349 -15 q 177 36 247 -15 q 70 188 107 88 q 33 429 33 288 q 70 667 33 568 q 177 820 107 767 q 349 874 247 874 q 519 820 450 874 q 626 667 589 767 q 663 429 663 568 q 626 188 663 288 q 519 36 589 88 q 349 -15 450 -15 m 349 83 q 453 123 410 83 q 520 240 497 163 q 543 429 543 317 q 520 613 543 536 q 453 732 497 690 q 349 774 410 774 q 243 732 288 774 q 176 613 199 690 q 153 429 153 536 q 176 240 153 317 q 243 123 199 163 q 349 83 288 83 m 536 729 l 522 808 q 557 819 546 808 q 571 859 568 831 q 574 939 574 888 l 660 939 q 651 820 660 867 q 617 751 643 774 q 536 729 592 729 z "},"Ở":{"ha":694,"x_min":33,"x_max":663,"o":"m 349 -15 q 177 36 247 -15 q 70 188 107 88 q 33 429 33 288 q 70 667 33 568 q 177 820 107 767 q 349 874 247 874 q 519 820 450 874 q 626 667 589 767 q 663 429 663 568 q 626 188 663 288 q 519 36 589 88 q 349 -15 450 -15 m 349 83 q 453 123 410 83 q 520 240 497 163 q 543 429 543 317 q 520 613 543 536 q 453 732 497 690 q 349 774 410 774 q 243 732 288 774 q 176 613 199 690 q 153 429 153 536 q 176 240 153 317 q 243 123 199 163 q 349 83 288 83 m 536 729 l 522 808 q 557 819 546 808 q 571 859 568 831 q 574 939 574 888 l 660 939 q 651 820 660 867 q 617 751 643 774 q 536 729 592 729 m 478 1108 q 465 1062 478 1079 q 437 1032 453 1044 q 408 1004 421 1019 q 394 964 394 989 l 394 953 l 315 953 l 315 992 q 327 1026 315 1011 q 354 1054 339 1042 q 381 1079 369 1067 q 393 1104 393 1092 q 381 1134 393 1124 q 349 1144 368 1144 q 310 1135 328 1144 q 282 1097 292 1126 l 229 1157 q 286 1204 254 1190 q 356 1218 318 1218 q 418 1203 390 1217 q 462 1166 446 1190 q 478 1108 478 1142 z "},"Ỡ":{"ha":694,"x_min":33,"x_max":663,"o":"m 349 -15 q 177 36 247 -15 q 70 188 107 88 q 33 429 33 288 q 70 667 33 568 q 177 820 107 767 q 349 874 247 874 q 519 820 450 874 q 626 667 589 767 q 663 429 663 568 q 626 188 663 288 q 519 36 589 88 q 349 -15 450 -15 m 349 83 q 453 123 410 83 q 520 240 497 163 q 543 429 543 317 q 520 613 543 536 q 453 732 497 690 q 349 774 410 774 q 243 732 288 774 q 176 613 199 690 q 153 429 153 536 q 176 240 153 317 q 243 123 199 163 q 349 83 288 83 m 536 729 l 522 808 q 557 819 546 808 q 571 859 568 831 q 574 939 574 888 l 660 939 q 651 820 660 867 q 617 751 643 774 q 536 729 592 729 z "},"Ő":{"ha":694,"x_min":33,"x_max":663,"o":"m 349 -15 q 177 36 247 -15 q 70 188 107 88 q 33 429 33 288 q 70 667 33 568 q 177 820 107 767 q 349 874 247 874 q 519 820 450 874 q 626 667 589 767 q 663 429 663 568 q 626 188 663 288 q 519 36 589 88 q 349 -15 450 -15 m 349 83 q 453 123 410 83 q 520 240 497 163 q 543 429 543 317 q 520 613 543 536 q 453 732 497 690 q 349 774 410 774 q 243 732 288 774 q 176 613 199 690 q 153 429 153 536 q 176 240 153 317 q 243 123 199 163 q 349 83 288 83 z "},"Ȏ":{"ha":694,"x_min":33,"x_max":663,"o":"m 349 -15 q 177 36 247 -15 q 70 188 107 88 q 33 429 33 288 q 70 667 33 568 q 177 820 107 767 q 349 874 247 874 q 519 820 450 874 q 626 667 589 767 q 663 429 663 568 q 626 188 663 288 q 519 36 589 88 q 349 -15 450 -15 m 349 83 q 453 123 410 83 q 520 240 497 163 q 543 429 543 317 q 520 613 543 536 q 453 732 497 690 q 349 774 410 774 q 243 732 288 774 q 176 613 199 690 q 153 429 153 536 q 176 240 153 317 q 243 123 199 163 q 349 83 288 83 m 226 958 l 146 996 q 231 1095 179 1060 q 347 1131 282 1131 q 466 1095 414 1131 q 549 996 518 1060 l 468 958 q 417 1032 446 1008 q 347 1056 388 1056 q 299 1045 321 1056 q 260 1014 278 1035 q 226 958 242 993 z "},"Ō":{"ha":694,"x_min":33,"x_max":663,"o":"m 349 -15 q 177 36 247 -15 q 70 188 107 88 q 33 429 33 288 q 70 667 33 568 q 177 820 107 767 q 349 874 247 874 q 519 820 450 874 q 626 667 589 767 q 663 429 663 568 q 626 188 663 288 q 519 36 589 88 q 349 -15 450 -15 m 349 83 q 453 123 410 83 q 520 240 497 163 q 543 429 543 317 q 520 613 543 536 q 453 732 497 690 q 349 774 410 774 q 243 732 288 774 q 176 613 199 690 q 153 429 153 536 q 176 240 153 317 q 243 123 199 163 q 349 83 288 83 z "},"Ṓ":{"ha":694,"x_min":33,"x_max":663,"o":"m 349 -15 q 177 36 247 -15 q 70 188 107 88 q 33 429 33 288 q 70 667 33 568 q 177 820 107 767 q 349 874 247 874 q 519 820 450 874 q 626 667 589 767 q 663 429 663 568 q 626 188 663 288 q 519 36 589 88 q 349 -15 450 -15 m 349 83 q 453 123 410 83 q 520 240 497 163 q 543 429 543 317 q 520 613 543 536 q 453 732 497 690 q 349 774 410 774 q 243 732 288 774 q 176 613 199 690 q 153 429 153 536 q 176 240 153 317 q 243 123 199 163 q 349 83 288 83 z "},"Ṑ":{"ha":694,"x_min":33,"x_max":663,"o":"m 349 -15 q 177 36 247 -15 q 70 188 107 88 q 33 429 33 288 q 70 667 33 568 q 177 820 107 767 q 349 874 247 874 q 519 820 450 874 q 626 667 589 767 q 663 429 663 568 q 626 188 663 288 q 519 36 589 88 q 349 -15 450 -15 m 349 83 q 453 123 410 83 q 520 240 497 163 q 543 429 543 317 q 520 613 543 536 q 453 732 497 690 q 349 774 410 774 q 243 732 288 774 q 176 613 199 690 q 153 429 153 536 q 176 240 153 317 q 243 123 199 163 q 349 83 288 83 z "},"Ǫ":{"ha":694,"x_min":33,"x_max":663,"o":"m 349 -15 q 177 36 247 -15 q 70 188 107 88 q 33 429 33 288 q 70 667 33 568 q 177 820 107 767 q 349 874 247 874 q 519 820 450 874 q 626 667 589 767 q 663 429 663 568 q 626 188 663 288 q 519 36 589 88 q 349 -15 450 -15 m 349 83 q 453 123 410 83 q 520 240 497 163 q 543 429 543 317 q 520 613 543 536 q 453 732 497 690 q 349 774 410 774 q 243 732 288 774 q 176 613 199 690 q 153 429 153 536 q 176 240 153 317 q 243 123 199 163 q 349 83 288 83 m 458 -219 l 424 -306 q 335 -276 372 -294 q 278 -231 299 -258 q 258 -169 258 -204 q 278 -97 258 -133 q 338 -24 299 -60 q 435 43 378 11 l 478 15 q 420 -40 444 -11 q 383 -94 396 -68 q 371 -143 371 -121 q 392 -191 371 -171 q 458 -219 414 -211 z "},"Ø":{"ha":694,"x_min":33,"x_max":663,"o":"m 119 -65 l 53 -33 l 574 947 l 639 914 l 119 -65 m 349 -15 q 177 36 247 -15 q 70 188 107 88 q 33 429 33 288 q 70 667 33 568 q 177 820 107 767 q 349 874 247 874 q 519 820 450 874 q 626 667 589 767 q 663 429 663 568 q 626 188 663 288 q 519 36 589 88 q 349 -15 450 -15 m 349 83 q 453 123 410 83 q 520 240 497 163 q 543 429 543 317 q 520 613 543 536 q 453 732 497 690 q 349 774 410 774 q 243 732 288 774 q 176 613 199 690 q 153 429 153 536 q 176 240 153 317 q 243 123 199 163 q 349 83 288 83 z "},"Ǿ":{"ha":694,"x_min":33,"x_max":663,"o":"m 119 -65 l 53 -33 l 574 947 l 639 914 l 119 -65 m 349 -15 q 177 36 247 -15 q 70 188 107 88 q 33 429 33 288 q 70 667 33 568 q 177 820 107 767 q 349 874 247 874 q 519 820 450 874 q 626 667 589 767 q 663 429 663 568 q 626 188 663 288 q 519 36 589 88 q 349 -15 450 -15 m 349 83 q 453 123 410 83 q 520 240 497 163 q 543 429 543 317 q 520 613 543 536 q 453 732 497 690 q 349 774 410 774 q 243 732 288 774 q 176 613 199 690 q 153 429 153 536 q 176 240 153 317 q 243 123 199 163 q 349 83 288 83 z "},"Õ":{"ha":694,"x_min":33,"x_max":663,"o":"m 349 -15 q 177 36 247 -15 q 70 188 107 88 q 33 429 33 288 q 70 667 33 568 q 177 820 107 767 q 349 874 247 874 q 519 820 450 874 q 626 667 589 767 q 663 429 663 568 q 626 188 663 288 q 519 36 589 88 q 349 -15 450 -15 m 349 83 q 453 123 410 83 q 520 240 497 163 q 543 429 543 317 q 520 613 543 536 q 453 732 497 690 q 349 774 410 774 q 243 732 288 774 q 176 613 199 690 q 153 429 153 536 q 176 240 153 317 q 243 123 199 163 q 349 83 288 83 z "},"Ṍ":{"ha":694,"x_min":33,"x_max":663,"o":"m 349 -15 q 177 36 247 -15 q 70 188 107 88 q 33 429 33 288 q 70 667 33 568 q 177 820 107 767 q 349 874 247 874 q 519 820 450 874 q 626 667 589 767 q 663 429 663 568 q 626 188 663 288 q 519 36 589 88 q 349 -15 450 -15 m 349 83 q 453 123 410 83 q 520 240 497 163 q 543 429 543 317 q 520 613 543 536 q 453 732 497 690 q 349 774 410 774 q 243 732 288 774 q 176 613 199 690 q 153 429 153 536 q 176 240 153 317 q 243 123 199 163 q 349 83 288 83 z "},"Ṏ":{"ha":694,"x_min":33,"x_max":663,"o":"m 349 -15 q 177 36 247 -15 q 70 188 107 88 q 33 429 33 288 q 70 667 33 568 q 177 820 107 767 q 349 874 247 874 q 519 820 450 874 q 626 667 589 767 q 663 429 663 568 q 626 188 663 288 q 519 36 589 88 q 349 -15 450 -15 m 349 83 q 453 123 410 83 q 520 240 497 163 q 543 429 543 317 q 520 613 543 536 q 453 732 497 690 q 349 774 410 774 q 243 732 288 774 q 176 613 199 690 q 153 429 153 536 q 176 240 153 317 q 243 123 199 163 q 349 83 288 83 z "},"Ȭ":{"ha":694,"x_min":33,"x_max":663,"o":"m 349 -15 q 177 36 247 -15 q 70 188 107 88 q 33 429 33 288 q 70 667 33 568 q 177 820 107 767 q 349 874 247 874 q 519 820 450 874 q 626 667 589 767 q 663 429 663 568 q 626 188 663 288 q 519 36 589 88 q 349 -15 450 -15 m 349 83 q 453 123 410 83 q 520 240 497 163 q 543 429 543 317 q 520 613 543 536 q 453 732 497 690 q 349 774 410 774 q 243 732 288 774 q 176 613 199 690 q 153 429 153 536 q 176 240 153 317 q 243 123 199 163 q 349 83 288 83 m 479 1161 l 549 1128 q 494 1047 522 1071 q 429 1024 465 1024 q 381 1035 403 1024 q 342 1060 360 1046 q 309 1086 325 1075 q 276 1097 293 1097 q 242 1083 258 1097 q 215 1040 226 1068 l 146 1074 q 197 1150 163 1121 q 267 1179 232 1179 q 316 1168 293 1179 q 358 1142 339 1157 q 394 1115 378 1126 q 426 1104 411 1104 q 454 1117 442 1104 q 479 1161 467 1131 z "},"Œ":{"ha":694,"x_min":10,"x_max":676,"o":"m 242 -10 q 146 17 189 -10 q 73 98 103 43 q 26 236 43 153 q 10 433 10 319 q 38 679 10 581 q 117 828 65 778 q 243 878 169 878 q 296 867 269 878 q 344 833 322 857 l 344 867 l 676 867 l 676 767 l 449 767 l 449 501 l 642 501 l 642 400 l 449 400 l 449 100 l 674 100 l 674 0 l 343 0 l 343 36 q 296 1 322 13 q 242 -10 269 -10 m 253 92 q 310 118 286 92 q 342 186 333 144 l 342 669 q 304 747 328 714 q 242 781 281 781 q 194 764 217 781 q 156 708 172 747 q 128 602 139 669 q 118 435 118 535 q 134 249 118 326 q 179 132 150 172 q 253 92 208 92 z "},"P":{"ha":694,"x_min":76,"x_max":640,"o":"m 76 0 l 76 865 l 360 865 q 520 831 458 865 q 611 742 582 797 q 640 618 640 686 q 624 523 640 567 q 575 446 608 479 q 490 394 542 413 q 367 375 439 375 l 197 375 l 197 0 l 76 0 m 197 476 l 356 476 q 450 494 414 476 q 503 543 486 511 q 519 615 519 575 q 503 688 519 656 q 450 739 486 719 q 357 758 414 758 l 197 758 l 197 476 z "},"Þ":{"ha":694,"x_min":78,"x_max":640,"o":"m 78 0 l 78 865 l 207 865 q 209 863 208 864 q 210 860 210 863 q 204 848 210 856 q 196 824 199 840 l 196 706 l 361 706 q 521 672 460 706 q 611 583 582 639 q 640 458 640 526 q 612 335 640 390 q 524 247 583 279 q 368 214 464 214 l 196 214 l 196 0 l 78 0 m 196 313 l 364 313 q 454 331 419 313 q 505 383 489 350 q 521 454 521 415 q 504 527 521 494 q 451 581 488 560 q 358 601 415 601 l 196 601 l 196 313 z "},"Q":{"ha":694,"x_min":36,"x_max":661,"o":"m 546 -201 q 433 -195 479 -204 q 358 -162 386 -186 q 316 -101 329 -139 q 303 -8 303 -64 q 170 55 231 3 q 73 201 110 107 q 36 429 36 294 q 64 642 36 556 q 138 779 92 728 q 240 853 185 831 q 349 876 294 876 q 468 851 411 876 q 569 771 525 825 q 637 633 613 717 q 660 432 661 549 q 643 258 660 335 q 594 127 626 182 q 515 39 563 72 q 408 -8 468 6 q 419 -58 411 -36 q 447 -90 428 -79 q 501 -101 467 -101 l 615 -96 l 613 -201 l 546 -201 m 354 89 q 423 106 389 89 q 485 163 457 124 q 530 263 513 201 q 547 414 547 325 q 529 592 547 522 q 481 703 511 663 q 417 761 451 744 q 349 778 382 778 q 263 751 300 778 q 200 680 225 725 q 163 575 175 635 q 150 447 150 515 q 175 258 150 339 q 246 133 200 178 q 354 89 292 89 z "},"R":{"ha":694,"x_min":72,"x_max":651,"o":"m 72 0 l 72 865 l 335 865 q 503 835 439 865 q 598 748 568 804 q 628 615 628 692 q 607 519 628 568 q 547 435 586 471 q 456 382 508 399 l 651 0 l 524 0 l 338 375 l 192 375 l 192 0 l 72 0 m 192 475 l 346 475 q 468 513 429 475 q 507 614 507 551 q 490 687 507 654 q 438 739 474 719 q 346 758 401 758 l 192 758 l 192 475 z "},"Ŕ":{"ha":694,"x_min":72,"x_max":651,"o":"m 72 0 l 72 865 l 335 865 q 503 835 439 865 q 598 748 568 804 q 628 615 628 692 q 607 519 628 568 q 547 435 586 471 q 456 382 508 399 l 651 0 l 524 0 l 338 375 l 192 375 l 192 0 l 72 0 m 192 475 l 346 475 q 468 513 429 475 q 507 614 507 551 q 490 687 507 654 q 438 739 474 719 q 346 758 401 758 l 192 758 l 192 475 z "},"Ř":{"ha":694,"x_min":72,"x_max":651,"o":"m 72 0 l 72 865 l 335 865 q 503 835 439 865 q 598 748 568 804 q 628 615 628 692 q 607 519 628 568 q 547 435 586 471 q 456 382 508 399 l 651 0 l 524 0 l 338 375 l 192 375 l 192 0 l 72 0 m 192 475 l 346 475 q 468 513 429 475 q 507 614 507 551 q 490 687 507 654 q 438 739 474 719 q 346 758 401 758 l 192 758 l 192 475 z "},"Ŗ":{"ha":694,"x_min":72,"x_max":651,"o":"m 72 0 l 72 865 l 335 865 q 503 835 439 865 q 598 748 568 804 q 628 615 628 692 q 607 519 628 568 q 547 435 586 471 q 456 382 508 399 l 651 0 l 524 0 l 338 375 l 192 375 l 192 0 l 72 0 m 192 475 l 346 475 q 468 513 429 475 q 507 614 507 551 q 490 687 507 654 q 438 739 474 719 q 346 758 401 758 l 192 758 l 192 475 m 311 -392 l 258 -344 q 314 -277 292 -312 q 336 -219 336 -242 q 321 -187 336 -201 q 290 -156 306 -172 q 274 -115 274 -140 q 297 -58 274 -81 q 356 -36 321 -36 q 420 -67 393 -36 q 447 -149 447 -99 q 433 -222 447 -183 q 388 -302 418 -260 q 311 -392 357 -344 z "},"Ȑ":{"ha":694,"x_min":72,"x_max":651,"o":"m 72 0 l 72 865 l 335 865 q 503 835 439 865 q 598 748 568 804 q 628 615 628 692 q 607 519 628 568 q 547 435 586 471 q 456 382 508 399 l 651 0 l 524 0 l 338 375 l 192 375 l 192 0 l 72 0 m 192 475 l 346 475 q 468 513 429 475 q 507 614 507 551 q 490 687 507 654 q 438 739 474 719 q 346 758 401 758 l 192 758 l 192 475 z "},"Ṛ":{"ha":694,"x_min":72,"x_max":651,"o":"m 72 0 l 72 865 l 335 865 q 503 835 439 865 q 598 748 568 804 q 628 615 628 692 q 607 519 628 568 q 547 435 586 471 q 456 382 508 399 l 651 0 l 524 0 l 338 375 l 192 375 l 192 0 l 72 0 m 192 475 l 346 475 q 468 513 429 475 q 507 614 507 551 q 490 687 507 654 q 438 739 474 719 q 346 758 401 758 l 192 758 l 192 475 z "},"Ȓ":{"ha":694,"x_min":72,"x_max":651,"o":"m 72 0 l 72 865 l 335 865 q 503 835 439 865 q 598 748 568 804 q 628 615 628 692 q 607 519 628 568 q 547 435 586 471 q 456 382 508 399 l 651 0 l 524 0 l 338 375 l 192 375 l 192 0 l 72 0 m 192 475 l 346 475 q 468 513 429 475 q 507 614 507 551 q 490 687 507 654 q 438 739 474 719 q 346 758 401 758 l 192 758 l 192 475 m 226 957 l 146 994 q 231 1094 179 1058 q 347 1129 282 1129 q 466 1094 414 1129 q 549 994 518 1058 l 468 957 q 417 1031 446 1007 q 347 1054 388 1054 q 299 1044 321 1054 q 260 1013 278 1033 q 226 957 242 992 z "},"Ṟ":{"ha":694,"x_min":72,"x_max":651,"o":"m 72 0 l 72 865 l 335 865 q 503 835 439 865 q 598 748 568 804 q 628 615 628 692 q 607 519 628 568 q 547 435 586 471 q 456 382 508 399 l 651 0 l 524 0 l 338 375 l 192 375 l 192 0 l 72 0 m 192 475 l 346 475 q 468 513 429 475 q 507 614 507 551 q 490 687 507 654 q 438 739 474 719 q 346 758 401 758 l 192 758 l 192 475 z "},"S":{"ha":694,"x_min":64,"x_max":636,"o":"m 340 -14 q 185 13 256 -14 q 64 93 115 40 l 124 194 l 129 207 l 139 201 q 147 180 142 192 q 167 151 151 168 q 249 105 203 122 q 351 88 294 88 q 419 98 389 88 q 473 126 450 108 q 508 169 496 144 q 521 224 521 194 q 516 264 521 246 q 499 297 511 282 q 465 328 486 313 q 411 361 444 343 q 331 400 378 379 q 190 476 242 436 q 115 563 138 517 q 93 661 93 608 q 126 774 93 725 q 220 850 160 822 q 361 878 281 878 q 456 865 411 878 q 540 828 501 851 q 610 768 579 804 l 543 685 l 535 674 l 525 681 q 519 703 524 692 q 500 731 515 714 q 435 770 469 760 q 351 781 400 781 q 294 772 319 781 q 250 747 268 764 q 222 710 232 731 q 211 668 211 690 q 217 628 211 646 q 235 594 222 611 q 270 560 247 578 q 328 526 293 543 q 414 488 364 508 q 522 433 479 460 q 590 377 565 407 q 625 313 614 347 q 636 236 636 279 q 606 118 636 176 q 510 23 575 60 q 340 -14 444 -14 l 340 -14 z "},"Ś":{"ha":694,"x_min":64,"x_max":636,"o":"m 340 -14 q 185 13 256 -14 q 64 93 115 40 l 124 194 l 129 207 l 139 201 q 147 180 142 192 q 167 151 151 168 q 249 105 203 122 q 351 88 294 88 q 419 98 389 88 q 473 126 450 108 q 508 169 496 144 q 521 224 521 194 q 516 264 521 246 q 499 297 511 282 q 465 328 486 313 q 411 361 444 343 q 331 400 378 379 q 190 476 242 436 q 115 563 138 517 q 93 661 93 608 q 126 774 93 725 q 220 850 160 822 q 361 878 281 878 q 456 865 411 878 q 540 828 501 851 q 610 768 579 804 l 543 685 l 535 674 l 525 681 q 519 703 524 692 q 500 731 515 714 q 435 770 469 760 q 351 781 400 781 q 294 772 319 781 q 250 747 268 764 q 222 710 232 731 q 211 668 211 690 q 217 628 211 646 q 235 594 222 611 q 270 560 247 578 q 328 526 293 543 q 414 488 364 508 q 522 433 479 460 q 590 377 565 407 q 625 313 614 347 q 636 236 636 279 q 606 118 636 176 q 510 23 575 60 q 340 -14 444 -14 l 340 -14 z "},"Ṥ":{"ha":694,"x_min":64,"x_max":636,"o":"m 340 -14 q 185 13 256 -14 q 64 93 115 40 l 124 194 l 129 207 l 139 201 q 147 180 142 192 q 167 151 151 168 q 249 105 203 122 q 351 88 294 88 q 419 98 389 88 q 473 126 450 108 q 508 169 496 144 q 521 224 521 194 q 516 264 521 246 q 499 297 511 282 q 465 328 486 313 q 411 361 444 343 q 331 400 378 379 q 190 476 242 436 q 115 563 138 517 q 93 661 93 608 q 126 774 93 725 q 220 850 160 822 q 361 878 281 878 q 456 865 411 878 q 540 828 501 851 q 610 768 579 804 l 543 685 l 535 674 l 525 681 q 519 703 524 692 q 500 731 515 714 q 435 770 469 760 q 351 781 400 781 q 294 772 319 781 q 250 747 268 764 q 222 710 232 731 q 211 668 211 690 q 217 628 211 646 q 235 594 222 611 q 270 560 247 578 q 328 526 293 543 q 414 488 364 508 q 522 433 479 460 q 590 377 565 407 q 625 313 614 347 q 636 236 636 279 q 606 118 636 176 q 510 23 575 60 q 340 -14 444 -14 l 340 -14 z "},"Š":{"ha":694,"x_min":64,"x_max":636,"o":"m 340 -14 q 185 13 256 -14 q 64 93 115 40 l 124 194 l 129 207 l 139 201 q 147 180 142 192 q 167 151 151 168 q 249 105 203 122 q 351 88 294 88 q 419 98 389 88 q 473 126 450 108 q 508 169 496 144 q 521 224 521 194 q 516 264 521 246 q 499 297 511 282 q 465 328 486 313 q 411 361 444 343 q 331 400 378 379 q 190 476 242 436 q 115 563 138 517 q 93 661 93 608 q 126 774 93 725 q 220 850 160 822 q 361 878 281 878 q 456 865 411 878 q 540 828 501 851 q 610 768 579 804 l 543 685 l 535 674 l 525 681 q 519 703 524 692 q 500 731 515 714 q 435 770 469 760 q 351 781 400 781 q 294 772 319 781 q 250 747 268 764 q 222 710 232 731 q 211 668 211 690 q 217 628 211 646 q 235 594 222 611 q 270 560 247 578 q 328 526 293 543 q 414 488 364 508 q 522 433 479 460 q 590 377 565 407 q 625 313 614 347 q 636 236 636 279 q 606 118 636 176 q 510 23 575 60 q 340 -14 444 -14 l 340 -14 z "},"Ṧ":{"ha":694,"x_min":64,"x_max":636,"o":"m 340 -14 q 185 13 256 -14 q 64 93 115 40 l 124 194 l 129 207 l 139 201 q 147 180 142 192 q 167 151 151 168 q 249 105 203 122 q 351 88 294 88 q 419 98 389 88 q 473 126 450 108 q 508 169 496 144 q 521 224 521 194 q 516 264 521 246 q 499 297 511 282 q 465 328 486 313 q 411 361 444 343 q 331 400 378 379 q 190 476 242 436 q 115 563 138 517 q 93 661 93 608 q 126 774 93 725 q 220 850 160 822 q 361 878 281 878 q 456 865 411 878 q 540 828 501 851 q 610 768 579 804 l 543 685 l 535 674 l 525 681 q 519 703 524 692 q 500 731 515 714 q 435 770 469 760 q 351 781 400 781 q 294 772 319 781 q 250 747 268 764 q 222 710 232 731 q 211 668 211 690 q 217 628 211 646 q 235 594 222 611 q 270 560 247 578 q 328 526 293 543 q 414 488 364 508 q 522 433 479 460 q 590 377 565 407 q 625 313 614 347 q 636 236 636 279 q 606 118 636 176 q 510 23 575 60 q 340 -14 444 -14 l 340 -14 z "},"Ş":{"ha":694,"x_min":64,"x_max":636,"o":"m 340 -14 q 185 13 256 -14 q 64 93 115 40 l 124 194 l 129 207 l 139 201 q 147 180 142 192 q 167 151 151 168 q 249 105 203 122 q 351 88 294 88 q 419 98 389 88 q 473 126 450 108 q 508 169 496 144 q 521 224 521 194 q 516 264 521 246 q 499 297 511 282 q 465 328 486 313 q 411 361 444 343 q 331 400 378 379 q 190 476 242 436 q 115 563 138 517 q 93 661 93 608 q 126 774 93 725 q 220 850 160 822 q 361 878 281 878 q 456 865 411 878 q 540 828 501 851 q 610 768 579 804 l 543 685 l 535 674 l 525 681 q 519 703 524 692 q 500 731 515 714 q 435 770 469 760 q 351 781 400 781 q 294 772 319 781 q 250 747 268 764 q 222 710 232 731 q 211 668 211 690 q 217 628 211 646 q 235 594 222 611 q 270 560 247 578 q 328 526 293 543 q 414 488 364 508 q 522 433 479 460 q 590 377 565 407 q 625 313 614 347 q 636 236 636 279 q 606 118 636 176 q 510 23 575 60 q 340 -14 444 -14 l 340 -14 z "},"Ŝ":{"ha":694,"x_min":64,"x_max":636,"o":"m 340 -14 q 185 13 256 -14 q 64 93 115 40 l 124 194 l 129 207 l 139 201 q 147 180 142 192 q 167 151 151 168 q 249 105 203 122 q 351 88 294 88 q 419 98 389 88 q 473 126 450 108 q 508 169 496 144 q 521 224 521 194 q 516 264 521 246 q 499 297 511 282 q 465 328 486 313 q 411 361 444 343 q 331 400 378 379 q 190 476 242 436 q 115 563 138 517 q 93 661 93 608 q 126 774 93 725 q 220 850 160 822 q 361 878 281 878 q 456 865 411 878 q 540 828 501 851 q 610 768 579 804 l 543 685 l 535 674 l 525 681 q 519 703 524 692 q 500 731 515 714 q 435 770 469 760 q 351 781 400 781 q 294 772 319 781 q 250 747 268 764 q 222 710 232 731 q 211 668 211 690 q 217 628 211 646 q 235 594 222 611 q 270 560 247 578 q 328 526 293 543 q 414 488 364 508 q 522 433 479 460 q 590 377 565 407 q 625 313 614 347 q 636 236 636 279 q 606 118 636 176 q 510 23 575 60 q 340 -14 444 -14 l 340 -14 m 178 907 l 131 968 l 338 1103 l 372 1103 l 586 968 l 540 908 l 357 1003 l 178 907 z "},"Ș":{"ha":694,"x_min":64,"x_max":636,"o":"m 340 -14 q 185 13 256 -14 q 64 93 115 40 l 124 194 l 129 207 l 139 201 q 147 180 142 192 q 167 151 151 168 q 249 105 203 122 q 351 88 294 88 q 419 98 389 88 q 473 126 450 108 q 508 169 496 144 q 521 224 521 194 q 516 264 521 246 q 499 297 511 282 q 465 328 486 313 q 411 361 444 343 q 331 400 378 379 q 190 476 242 436 q 115 563 138 517 q 93 661 93 608 q 126 774 93 725 q 220 850 160 822 q 361 878 281 878 q 456 865 411 878 q 540 828 501 851 q 610 768 579 804 l 543 685 l 535 674 l 525 681 q 519 703 524 692 q 500 731 515 714 q 435 770 469 760 q 351 781 400 781 q 294 772 319 781 q 250 747 268 764 q 222 710 232 731 q 211 668 211 690 q 217 628 211 646 q 235 594 222 611 q 270 560 247 578 q 328 526 293 543 q 414 488 364 508 q 522 433 479 460 q 590 377 565 407 q 625 313 614 347 q 636 236 636 279 q 606 118 636 176 q 510 23 575 60 q 340 -14 444 -14 l 340 -14 m 310 -392 l 257 -344 q 313 -277 290 -312 q 335 -219 335 -242 q 319 -187 335 -201 q 288 -156 304 -172 q 272 -115 272 -140 q 296 -58 272 -81 q 354 -36 319 -36 q 419 -67 392 -36 q 446 -149 446 -99 q 431 -222 446 -183 q 386 -302 417 -260 q 310 -392 356 -344 z "},"Ṡ":{"ha":694,"x_min":64,"x_max":636,"o":"m 340 -14 q 185 13 256 -14 q 64 93 115 40 l 124 194 l 129 207 l 139 201 q 147 180 142 192 q 167 151 151 168 q 249 105 203 122 q 351 88 294 88 q 419 98 389 88 q 473 126 450 108 q 508 169 496 144 q 521 224 521 194 q 516 264 521 246 q 499 297 511 282 q 465 328 486 313 q 411 361 444 343 q 331 400 378 379 q 190 476 242 436 q 115 563 138 517 q 93 661 93 608 q 126 774 93 725 q 220 850 160 822 q 361 878 281 878 q 456 865 411 878 q 540 828 501 851 q 610 768 579 804 l 543 685 l 535 674 l 525 681 q 519 703 524 692 q 500 731 515 714 q 435 770 469 760 q 351 781 400 781 q 294 772 319 781 q 250 747 268 764 q 222 710 232 731 q 211 668 211 690 q 217 628 211 646 q 235 594 222 611 q 270 560 247 578 q 328 526 293 543 q 414 488 364 508 q 522 433 479 460 q 590 377 565 407 q 625 313 614 347 q 636 236 636 279 q 606 118 636 176 q 510 23 575 60 q 340 -14 444 -14 l 340 -14 z "},"Ṣ":{"ha":694,"x_min":64,"x_max":636,"o":"m 340 -14 q 185 13 256 -14 q 64 93 115 40 l 124 194 l 129 207 l 139 201 q 147 180 142 192 q 167 151 151 168 q 249 105 203 122 q 351 88 294 88 q 419 98 389 88 q 473 126 450 108 q 508 169 496 144 q 521 224 521 194 q 516 264 521 246 q 499 297 511 282 q 465 328 486 313 q 411 361 444 343 q 331 400 378 379 q 190 476 242 436 q 115 563 138 517 q 93 661 93 608 q 126 774 93 725 q 220 850 160 822 q 361 878 281 878 q 456 865 411 878 q 540 828 501 851 q 610 768 579 804 l 543 685 l 535 674 l 525 681 q 519 703 524 692 q 500 731 515 714 q 435 770 469 760 q 351 781 400 781 q 294 772 319 781 q 250 747 268 764 q 222 710 232 731 q 211 668 211 690 q 217 628 211 646 q 235 594 222 611 q 270 560 247 578 q 328 526 293 543 q 414 488 364 508 q 522 433 479 460 q 590 377 565 407 q 625 313 614 347 q 636 236 636 279 q 606 118 636 176 q 510 23 575 60 q 340 -14 444 -14 l 340 -14 z "},"Ṩ":{"ha":694,"x_min":64,"x_max":636,"o":"m 340 -14 q 185 13 256 -14 q 64 93 115 40 l 124 194 l 129 207 l 139 201 q 147 180 142 192 q 167 151 151 168 q 249 105 203 122 q 351 88 294 88 q 419 98 389 88 q 473 126 450 108 q 508 169 496 144 q 521 224 521 194 q 516 264 521 246 q 499 297 511 282 q 465 328 486 313 q 411 361 444 343 q 331 400 378 379 q 190 476 242 436 q 115 563 138 517 q 93 661 93 608 q 126 774 93 725 q 220 850 160 822 q 361 878 281 878 q 456 865 411 878 q 540 828 501 851 q 610 768 579 804 l 543 685 l 535 674 l 525 681 q 519 703 524 692 q 500 731 515 714 q 435 770 469 760 q 351 781 400 781 q 294 772 319 781 q 250 747 268 764 q 222 710 232 731 q 211 668 211 690 q 217 628 211 646 q 235 594 222 611 q 270 560 247 578 q 328 526 293 543 q 414 488 364 508 q 522 433 479 460 q 590 377 565 407 q 625 313 614 347 q 636 236 636 279 q 606 118 636 176 q 510 23 575 60 q 340 -14 444 -14 l 340 -14 z "},"ẞ":{"ha":694,"x_min":69,"x_max":646,"o":"m 397 -15 q 317 -4 353 -15 q 250 28 281 7 l 288 118 q 319 101 303 108 q 351 90 335 93 q 385 86 368 86 q 442 98 415 86 q 490 133 469 110 q 523 188 511 156 q 535 263 535 221 q 518 344 535 304 q 459 412 501 385 q 336 439 417 439 l 294 439 l 294 532 l 474 693 q 460 765 474 732 q 419 817 447 797 q 342 836 390 836 q 285 826 313 836 q 234 794 257 815 q 198 738 211 772 q 185 654 185 703 l 185 0 l 69 0 l 69 635 q 92 772 69 715 q 153 864 115 829 q 240 915 192 899 q 339 931 288 931 q 476 896 422 931 q 558 804 531 861 q 586 681 586 747 l 350 474 l 333 532 q 503 499 433 532 q 609 404 572 467 q 646 251 646 342 q 626 134 646 183 q 574 51 607 85 q 494 1 540 18 q 397 -15 449 -15 z "},"Ə":{"ha":694,"x_min":33,"x_max":663,"o":"m 349 -15 q 177 36 247 -15 q 70 188 107 88 q 33 429 33 288 q 70 667 33 568 q 177 820 107 767 q 349 874 247 874 q 519 820 450 874 q 626 667 589 767 q 663 429 663 568 q 626 188 663 288 q 519 36 589 88 q 349 -15 450 -15 m 349 83 q 453 123 410 83 q 520 240 497 163 q 543 429 543 317 q 520 613 543 536 q 453 732 497 690 q 349 774 410 774 q 243 732 288 774 q 176 613 199 690 q 153 429 153 536 q 176 240 153 317 q 243 123 199 163 q 349 83 288 83 z "},"T":{"ha":694,"x_min":39,"x_max":649,"o":"m 281 0 l 281 764 l 39 764 l 39 867 l 649 867 l 649 764 l 397 764 l 397 0 l 281 0 z "},"Ŧ":{"ha":694,"x_min":39,"x_max":649,"o":"m 281 0 l 281 764 l 39 764 l 39 867 l 649 867 l 649 764 l 397 764 l 397 0 l 281 0 m 114 390 l 114 476 l 575 476 l 575 390 l 114 390 z "},"Ť":{"ha":694,"x_min":39,"x_max":649,"o":"m 281 0 l 281 764 l 39 764 l 39 867 l 649 867 l 649 764 l 397 764 l 397 0 l 281 0 z "},"Ţ":{"ha":694,"x_min":39,"x_max":649,"o":"m 281 0 l 281 764 l 39 764 l 39 867 l 649 867 l 649 764 l 397 764 l 397 0 l 281 0 z "},"Ț":{"ha":694,"x_min":39,"x_max":649,"o":"m 281 0 l 281 764 l 39 764 l 39 867 l 649 867 l 649 764 l 397 764 l 397 0 l 281 0 m 311 -392 l 258 -344 q 314 -277 292 -312 q 336 -219 336 -242 q 321 -187 336 -201 q 290 -156 306 -172 q 274 -115 274 -140 q 297 -58 274 -81 q 356 -36 321 -36 q 420 -67 393 -36 q 447 -149 447 -99 q 433 -222 447 -183 q 388 -302 418 -260 q 311 -392 357 -344 z "},"Ṭ":{"ha":694,"x_min":39,"x_max":649,"o":"m 281 0 l 281 764 l 39 764 l 39 867 l 649 867 l 649 764 l 397 764 l 397 0 l 281 0 z "},"Ṯ":{"ha":694,"x_min":39,"x_max":649,"o":"m 281 0 l 281 764 l 39 764 l 39 867 l 649 867 l 649 764 l 397 764 l 397 0 l 281 0 z "},"U":{"ha":694,"x_min":63,"x_max":636,"o":"m 349 -17 q 135 67 208 -17 q 63 300 63 151 l 63 865 l 178 865 l 192 865 l 192 854 q 181 836 183 846 q 179 803 179 826 l 179 299 q 217 140 179 199 q 350 81 254 81 q 484 140 446 81 q 522 303 522 199 l 522 865 l 636 865 l 636 304 q 600 124 636 194 q 499 18 564 53 q 349 -17 435 -17 l 349 -17 z "},"Ú":{"ha":694,"x_min":63,"x_max":636,"o":"m 349 -17 q 135 67 208 -17 q 63 300 63 151 l 63 865 l 178 865 l 192 865 l 192 854 q 181 836 183 846 q 179 803 179 826 l 179 299 q 217 140 179 199 q 350 81 254 81 q 484 140 446 81 q 522 303 522 199 l 522 865 l 636 865 l 636 304 q 600 124 636 194 q 499 18 564 53 q 349 -17 435 -17 l 349 -17 z "},"Ŭ":{"ha":694,"x_min":63,"x_max":636,"o":"m 349 -17 q 135 67 208 -17 q 63 300 63 151 l 63 865 l 178 865 l 192 865 l 192 854 q 181 836 183 846 q 179 803 179 826 l 179 299 q 217 140 179 199 q 350 81 254 81 q 484 140 446 81 q 522 303 522 199 l 522 865 l 636 865 l 636 304 q 600 124 636 194 q 499 18 564 53 q 349 -17 435 -17 l 349 -17 z "},"Û":{"ha":694,"x_min":63,"x_max":636,"o":"m 349 -17 q 135 67 208 -17 q 63 300 63 151 l 63 865 l 178 865 l 192 865 l 192 854 q 181 836 183 846 q 179 803 179 826 l 179 299 q 217 140 179 199 q 350 81 254 81 q 484 140 446 81 q 522 303 522 199 l 522 865 l 636 865 l 636 304 q 600 124 636 194 q 499 18 564 53 q 349 -17 435 -17 l 349 -17 m 167 907 l 119 968 l 326 1103 l 361 1103 l 575 968 l 529 908 l 346 1003 l 167 907 z "},"Ȕ":{"ha":694,"x_min":63,"x_max":636,"o":"m 349 -17 q 135 67 208 -17 q 63 300 63 151 l 63 865 l 178 865 l 192 865 l 192 854 q 181 836 183 846 q 179 803 179 826 l 179 299 q 217 140 179 199 q 350 81 254 81 q 484 140 446 81 q 522 303 522 199 l 522 865 l 636 865 l 636 304 q 600 124 636 194 q 499 18 564 53 q 349 -17 435 -17 l 349 -17 z "},"Ü":{"ha":694,"x_min":63,"x_max":636,"o":"m 349 -17 q 135 67 208 -17 q 63 300 63 151 l 63 865 l 178 865 l 192 865 l 192 854 q 181 836 183 846 q 179 803 179 826 l 179 299 q 217 140 179 199 q 350 81 254 81 q 484 140 446 81 q 522 303 522 199 l 522 865 l 636 865 l 636 304 q 600 124 636 194 q 499 18 564 53 q 349 -17 435 -17 l 349 -17 z "},"Ụ":{"ha":694,"x_min":63,"x_max":636,"o":"m 349 -17 q 135 67 208 -17 q 63 300 63 151 l 63 865 l 178 865 l 192 865 l 192 854 q 181 836 183 846 q 179 803 179 826 l 179 299 q 217 140 179 199 q 350 81 254 81 q 484 140 446 81 q 522 303 522 199 l 522 865 l 636 865 l 636 304 q 600 124 636 194 q 499 18 564 53 q 349 -17 435 -17 l 349 -17 z "},"Ù":{"ha":694,"x_min":63,"x_max":636,"o":"m 349 -17 q 135 67 208 -17 q 63 300 63 151 l 63 865 l 178 865 l 192 865 l 192 854 q 181 836 183 846 q 179 803 179 826 l 179 299 q 217 140 179 199 q 350 81 254 81 q 484 140 446 81 q 522 303 522 199 l 522 865 l 636 865 l 636 304 q 600 124 636 194 q 499 18 564 53 q 349 -17 435 -17 l 349 -17 z "},"Ủ":{"ha":694,"x_min":63,"x_max":636,"o":"m 349 -17 q 135 67 208 -17 q 63 300 63 151 l 63 865 l 178 865 l 192 865 l 192 854 q 181 836 183 846 q 179 803 179 826 l 179 299 q 217 140 179 199 q 350 81 254 81 q 484 140 446 81 q 522 303 522 199 l 522 865 l 636 865 l 636 304 q 600 124 636 194 q 499 18 564 53 q 349 -17 435 -17 l 349 -17 m 478 1107 q 465 1060 478 1078 q 437 1031 453 1043 q 408 1003 421 1018 q 394 963 394 988 l 394 951 l 315 951 l 315 990 q 327 1025 315 1010 q 354 1053 339 1040 q 381 1078 369 1065 q 393 1103 393 1090 q 381 1133 393 1122 q 349 1143 368 1143 q 310 1134 328 1143 q 282 1096 292 1125 l 229 1156 q 286 1203 254 1189 q 356 1217 318 1217 q 418 1202 390 1215 q 462 1165 446 1189 q 478 1107 478 1140 z "},"Ư":{"ha":694,"x_min":57,"x_max":690,"o":"m 314 -17 q 122 67 188 -17 q 57 300 57 151 l 57 865 l 160 865 l 172 865 l 172 854 q 163 836 165 846 q 161 803 161 826 l 161 299 q 195 140 161 199 q 315 81 229 81 q 436 140 403 81 q 469 303 469 199 l 469 865 l 572 865 l 572 304 q 540 124 572 194 q 450 18 508 53 q 314 -17 392 -17 l 314 -17 m 567 786 l 553 865 q 588 876 576 865 q 601 916 599 888 q 604 996 604 944 l 690 996 q 682 877 690 924 q 648 808 674 831 q 567 786 622 786 z "},"Ứ":{"ha":694,"x_min":57,"x_max":690,"o":"m 314 -17 q 122 67 188 -17 q 57 300 57 151 l 57 865 l 160 865 l 172 865 l 172 854 q 163 836 165 846 q 161 803 161 826 l 161 299 q 195 140 161 199 q 315 81 229 81 q 436 140 403 81 q 469 303 469 199 l 469 865 l 572 865 l 572 304 q 540 124 572 194 q 450 18 508 53 q 314 -17 392 -17 l 314 -17 m 567 786 l 553 865 q 588 876 576 865 q 601 916 599 888 q 604 996 604 944 l 690 996 q 682 877 690 924 q 648 808 674 831 q 567 786 622 786 z "},"Ự":{"ha":694,"x_min":57,"x_max":690,"o":"m 314 -17 q 122 67 188 -17 q 57 300 57 151 l 57 865 l 160 865 l 172 865 l 172 854 q 163 836 165 846 q 161 803 161 826 l 161 299 q 195 140 161 199 q 315 81 229 81 q 436 140 403 81 q 469 303 469 199 l 469 865 l 572 865 l 572 304 q 540 124 572 194 q 450 18 508 53 q 314 -17 392 -17 l 314 -17 m 567 786 l 553 865 q 588 876 576 865 q 601 916 599 888 q 604 996 604 944 l 690 996 q 682 877 690 924 q 648 808 674 831 q 567 786 622 786 z "},"Ừ":{"ha":694,"x_min":57,"x_max":690,"o":"m 314 -17 q 122 67 188 -17 q 57 300 57 151 l 57 865 l 160 865 l 172 865 l 172 854 q 163 836 165 846 q 161 803 161 826 l 161 299 q 195 140 161 199 q 315 81 229 81 q 436 140 403 81 q 469 303 469 199 l 469 865 l 572 865 l 572 304 q 540 124 572 194 q 450 18 508 53 q 314 -17 392 -17 l 314 -17 m 567 786 l 553 865 q 588 876 576 865 q 601 916 599 888 q 604 996 604 944 l 690 996 q 682 877 690 924 q 648 808 674 831 q 567 786 622 786 z "},"Ử":{"ha":694,"x_min":57,"x_max":690,"o":"m 314 -17 q 122 67 188 -17 q 57 300 57 151 l 57 865 l 160 865 l 172 865 l 172 854 q 163 836 165 846 q 161 803 161 826 l 161 299 q 195 140 161 199 q 315 81 229 81 q 436 140 403 81 q 469 303 469 199 l 469 865 l 572 865 l 572 304 q 540 124 572 194 q 450 18 508 53 q 314 -17 392 -17 l 314 -17 m 567 786 l 553 865 q 588 876 576 865 q 601 916 599 888 q 604 996 604 944 l 690 996 q 682 877 690 924 q 648 808 674 831 q 567 786 622 786 m 442 1107 q 429 1060 442 1078 q 401 1031 417 1043 q 372 1003 385 1018 q 358 963 358 988 l 358 951 l 279 951 l 279 990 q 291 1025 279 1010 q 318 1053 303 1040 q 345 1078 333 1065 q 357 1103 357 1090 q 344 1133 357 1122 q 313 1143 332 1143 q 274 1134 292 1143 q 246 1096 256 1125 l 193 1156 q 250 1203 218 1189 q 319 1217 282 1217 q 382 1202 354 1215 q 426 1165 410 1189 q 442 1107 442 1140 z "},"Ữ":{"ha":694,"x_min":57,"x_max":690,"o":"m 314 -17 q 122 67 188 -17 q 57 300 57 151 l 57 865 l 160 865 l 172 865 l 172 854 q 163 836 165 846 q 161 803 161 826 l 161 299 q 195 140 161 199 q 315 81 229 81 q 436 140 403 81 q 469 303 469 199 l 469 865 l 572 865 l 572 304 q 540 124 572 194 q 450 18 508 53 q 314 -17 392 -17 l 314 -17 m 567 786 l 553 865 q 588 876 576 865 q 601 916 599 888 q 604 996 604 944 l 690 996 q 682 877 690 924 q 648 808 674 831 q 567 786 622 786 z "},"Ű":{"ha":694,"x_min":63,"x_max":636,"o":"m 349 -17 q 135 67 208 -17 q 63 300 63 151 l 63 865 l 178 865 l 192 865 l 192 854 q 181 836 183 846 q 179 803 179 826 l 179 299 q 217 140 179 199 q 350 81 254 81 q 484 140 446 81 q 522 303 522 199 l 522 865 l 636 865 l 636 304 q 600 124 636 194 q 499 18 564 53 q 349 -17 435 -17 l 349 -17 z "},"Ȗ":{"ha":694,"x_min":63,"x_max":636,"o":"m 349 -17 q 135 67 208 -17 q 63 300 63 151 l 63 865 l 178 865 l 192 865 l 192 854 q 181 836 183 846 q 179 803 179 826 l 179 299 q 217 140 179 199 q 350 81 254 81 q 484 140 446 81 q 522 303 522 199 l 522 865 l 636 865 l 636 304 q 600 124 636 194 q 499 18 564 53 q 349 -17 435 -17 l 349 -17 m 226 957 l 146 994 q 231 1094 179 1058 q 347 1129 282 1129 q 466 1094 414 1129 q 549 994 518 1058 l 468 957 q 417 1031 446 1007 q 347 1054 388 1054 q 299 1044 321 1054 q 260 1013 278 1033 q 226 957 242 992 z "},"Ū":{"ha":694,"x_min":63,"x_max":636,"o":"m 349 -17 q 135 67 208 -17 q 63 300 63 151 l 63 865 l 178 865 l 192 865 l 192 854 q 181 836 183 846 q 179 803 179 826 l 179 299 q 217 140 179 199 q 350 81 254 81 q 484 140 446 81 q 522 303 522 199 l 522 865 l 636 865 l 636 304 q 600 124 636 194 q 499 18 564 53 q 349 -17 435 -17 l 349 -17 z "},"Ṻ":{"ha":694,"x_min":63,"x_max":636,"o":"m 349 -17 q 135 67 208 -17 q 63 300 63 151 l 63 865 l 178 865 l 192 865 l 192 854 q 181 836 183 846 q 179 803 179 826 l 179 299 q 217 140 179 199 q 350 81 254 81 q 484 140 446 81 q 522 303 522 199 l 522 865 l 636 865 l 636 304 q 600 124 636 194 q 499 18 564 53 q 349 -17 435 -17 l 349 -17 z "},"Ų":{"ha":694,"x_min":63,"x_max":636,"o":"m 349 -17 q 135 67 208 -17 q 63 300 63 151 l 63 865 l 178 865 l 192 865 l 192 854 q 181 836 183 846 q 179 803 179 826 l 179 299 q 217 140 179 199 q 350 81 254 81 q 484 140 446 81 q 522 303 522 199 l 522 865 l 636 865 l 636 304 q 600 124 636 194 q 499 18 564 53 q 349 -17 435 -17 l 349 -17 m 472 -221 l 438 -307 q 349 -278 386 -296 q 292 -233 313 -260 q 272 -171 272 -206 q 292 -98 272 -135 q 352 -26 313 -61 q 449 42 392 10 l 492 14 q 434 -41 458 -12 q 397 -96 410 -69 q 385 -144 385 -122 q 406 -192 385 -172 q 472 -221 428 -212 z "},"Ů":{"ha":694,"x_min":63,"x_max":636,"o":"m 349 -17 q 135 67 208 -17 q 63 300 63 151 l 63 865 l 178 865 l 192 865 l 192 854 q 181 836 183 846 q 179 803 179 826 l 179 299 q 217 140 179 199 q 350 81 254 81 q 484 140 446 81 q 522 303 522 199 l 522 865 l 636 865 l 636 304 q 600 124 636 194 q 499 18 564 53 q 349 -17 435 -17 l 349 -17 z "},"Ũ":{"ha":694,"x_min":63,"x_max":636,"o":"m 349 -17 q 135 67 208 -17 q 63 300 63 151 l 63 865 l 178 865 l 192 865 l 192 854 q 181 836 183 846 q 179 803 179 826 l 179 299 q 217 140 179 199 q 350 81 254 81 q 484 140 446 81 q 522 303 522 199 l 522 865 l 636 865 l 636 304 q 600 124 636 194 q 499 18 564 53 q 349 -17 435 -17 l 349 -17 z "},"Ṹ":{"ha":694,"x_min":63,"x_max":636,"o":"m 349 -17 q 135 67 208 -17 q 63 300 63 151 l 63 865 l 178 865 l 192 865 l 192 854 q 181 836 183 846 q 179 803 179 826 l 179 299 q 217 140 179 199 q 350 81 254 81 q 484 140 446 81 q 522 303 522 199 l 522 865 l 636 865 l 636 304 q 600 124 636 194 q 499 18 564 53 q 349 -17 435 -17 l 349 -17 z "},"V":{"ha":694,"x_min":31,"x_max":669,"o":"m 319 -4 l 31 867 l 150 867 l 358 219 l 556 865 l 669 865 l 385 -4 l 319 -4 z "},"W":{"ha":694,"x_min":21,"x_max":681,"o":"m 151 0 l 21 865 l 126 865 l 207 294 l 338 800 l 385 800 l 515 293 l 583 865 l 681 865 l 551 0 l 494 0 l 354 554 l 211 0 l 151 0 z "},"Ẃ":{"ha":694,"x_min":21,"x_max":681,"o":"m 151 0 l 21 865 l 126 865 l 207 294 l 338 800 l 385 800 l 515 293 l 583 865 l 681 865 l 551 0 l 494 0 l 354 554 l 211 0 l 151 0 z "},"Ŵ":{"ha":694,"x_min":21,"x_max":681,"o":"m 151 0 l 21 865 l 126 865 l 207 294 l 338 800 l 385 800 l 515 293 l 583 865 l 681 865 l 551 0 l 494 0 l 354 554 l 211 0 l 151 0 m 179 907 l 132 968 l 339 1103 l 374 1103 l 588 968 l 542 908 l 358 1003 l 179 907 z "},"Ẅ":{"ha":694,"x_min":21,"x_max":681,"o":"m 151 0 l 21 865 l 126 865 l 207 294 l 338 800 l 385 800 l 515 293 l 583 865 l 681 865 l 551 0 l 494 0 l 354 554 l 211 0 l 151 0 z "},"Ẁ":{"ha":694,"x_min":21,"x_max":681,"o":"m 151 0 l 21 865 l 126 865 l 207 294 l 338 800 l 385 800 l 515 293 l 583 865 l 681 865 l 551 0 l 494 0 l 354 554 l 211 0 l 151 0 z "},"X":{"ha":694,"x_min":51,"x_max":657,"o":"m 51 0 l 285 442 l 56 867 l 178 867 l 349 551 l 515 867 l 631 867 l 415 443 l 657 0 l 529 0 l 350 328 l 175 0 l 51 0 z "},"Y":{"ha":694,"x_min":33,"x_max":664,"o":"m 297 0 l 297 342 l 33 865 l 161 865 l 363 465 l 543 865 l 664 865 l 421 342 l 421 0 l 297 0 z "},"Ý":{"ha":694,"x_min":33,"x_max":664,"o":"m 297 0 l 297 342 l 33 865 l 161 865 l 363 465 l 543 865 l 664 865 l 421 342 l 421 0 l 297 0 z "},"Ŷ":{"ha":694,"x_min":33,"x_max":664,"o":"m 297 0 l 297 342 l 33 865 l 161 865 l 363 465 l 543 865 l 664 865 l 421 342 l 421 0 l 297 0 m 167 907 l 119 968 l 326 1103 l 361 1103 l 575 968 l 529 908 l 346 1003 l 167 907 z "},"Ÿ":{"ha":694,"x_min":33,"x_max":664,"o":"m 297 0 l 297 342 l 33 865 l 161 865 l 363 465 l 543 865 l 664 865 l 421 342 l 421 0 l 297 0 z "},"Ẏ":{"ha":694,"x_min":33,"x_max":664,"o":"m 297 0 l 297 342 l 33 865 l 161 865 l 363 465 l 543 865 l 664 865 l 421 342 l 421 0 l 297 0 z "},"Ỵ":{"ha":694,"x_min":33,"x_max":664,"o":"m 297 0 l 297 342 l 33 865 l 161 865 l 363 465 l 543 865 l 664 865 l 421 342 l 421 0 l 297 0 z "},"Ỳ":{"ha":694,"x_min":33,"x_max":664,"o":"m 297 0 l 297 342 l 33 865 l 161 865 l 363 465 l 543 865 l 664 865 l 421 342 l 421 0 l 297 0 z "},"Ỷ":{"ha":694,"x_min":33,"x_max":664,"o":"m 297 0 l 297 342 l 33 865 l 161 865 l 363 465 l 543 865 l 664 865 l 421 342 l 421 0 l 297 0 m 478 1107 q 465 1060 478 1078 q 437 1031 453 1043 q 408 1003 421 1018 q 394 963 394 988 l 394 951 l 315 951 l 315 990 q 327 1025 315 1010 q 354 1053 339 1040 q 381 1078 369 1065 q 393 1103 393 1090 q 381 1133 393 1122 q 349 1143 368 1143 q 310 1134 328 1143 q 282 1096 292 1125 l 229 1156 q 286 1203 254 1189 q 356 1217 318 1217 q 418 1202 390 1215 q 462 1165 446 1189 q 478 1107 478 1140 z "},"Ȳ":{"ha":694,"x_min":33,"x_max":664,"o":"m 297 0 l 297 342 l 33 865 l 161 865 l 363 465 l 543 865 l 664 865 l 421 342 l 421 0 l 297 0 z "},"Ỹ":{"ha":694,"x_min":33,"x_max":664,"o":"m 297 0 l 297 342 l 33 865 l 161 865 l 363 465 l 543 865 l 664 865 l 421 342 l 421 0 l 297 0 z "},"Z":{"ha":694,"x_min":64,"x_max":650,"o":"m 64 79 l 489 763 l 81 763 l 81 865 l 628 865 l 628 786 l 210 101 l 588 101 q 621 104 611 101 q 639 115 631 107 l 650 115 l 650 101 l 650 0 l 64 0 l 64 79 z "},"Ź":{"ha":694,"x_min":64,"x_max":650,"o":"m 64 79 l 489 763 l 81 763 l 81 865 l 628 865 l 628 786 l 210 101 l 588 101 q 621 104 611 101 q 639 115 631 107 l 650 115 l 650 101 l 650 0 l 64 0 l 64 79 z "},"Ž":{"ha":694,"x_min":64,"x_max":650,"o":"m 64 79 l 489 763 l 81 763 l 81 865 l 628 865 l 628 786 l 210 101 l 588 101 q 621 104 611 101 q 639 115 631 107 l 650 115 l 650 101 l 650 0 l 64 0 l 64 79 z "},"Ż":{"ha":694,"x_min":64,"x_max":650,"o":"m 64 79 l 489 763 l 81 763 l 81 865 l 628 865 l 628 786 l 210 101 l 588 101 q 621 104 611 101 q 639 115 631 107 l 650 115 l 650 101 l 650 0 l 64 0 l 64 79 z "},"Ẓ":{"ha":694,"x_min":64,"x_max":650,"o":"m 64 79 l 489 763 l 81 763 l 81 865 l 628 865 l 628 786 l 210 101 l 588 101 q 621 104 611 101 q 639 115 631 107 l 650 115 l 650 101 l 650 0 l 64 0 l 64 79 z "},"a":{"ha":694,"x_min":63,"x_max":621,"o":"m 288 -15 q 121 34 179 -15 q 63 161 63 83 q 87 255 63 213 q 156 326 111 297 q 261 372 200 356 q 396 388 322 388 q 437 388 415 388 q 483 385 458 388 q 532 381 507 383 l 536 293 q 490 298 514 296 q 444 301 467 300 q 400 301 421 301 q 308 293 349 301 q 239 269 267 285 q 196 228 211 253 q 181 172 181 204 q 190 126 181 144 q 217 97 200 108 q 256 81 233 86 q 304 76 278 76 q 392 92 354 76 q 458 140 431 108 q 499 219 485 172 q 513 328 513 265 q 492 467 513 417 q 432 537 472 517 q 331 557 392 557 q 242 541 285 557 q 163 488 200 525 l 101 561 q 211 631 150 608 q 338 653 272 653 q 451 638 400 653 q 541 589 503 624 q 600 496 579 554 q 621 349 621 438 l 621 0 l 494 0 l 494 88 q 452 37 476 57 q 401 6 428 17 q 344 -10 374 -6 q 288 -15 315 -15 z "},"á":{"ha":694,"x_min":63,"x_max":621,"o":"m 288 -15 q 121 34 179 -15 q 63 161 63 83 q 87 255 63 213 q 156 326 111 297 q 261 372 200 356 q 396 388 322 388 q 437 388 415 388 q 483 385 458 388 q 532 381 507 383 l 536 293 q 490 298 514 296 q 444 301 467 300 q 400 301 421 301 q 308 293 349 301 q 239 269 267 285 q 196 228 211 253 q 181 172 181 204 q 190 126 181 144 q 217 97 200 108 q 256 81 233 86 q 304 76 278 76 q 392 92 354 76 q 458 140 431 108 q 499 219 485 172 q 513 328 513 265 q 492 467 513 417 q 432 537 472 517 q 331 557 392 557 q 242 541 285 557 q 163 488 200 525 l 101 561 q 211 631 150 608 q 338 653 272 653 q 451 638 400 653 q 541 589 503 624 q 600 496 579 554 q 621 349 621 438 l 621 0 l 494 0 l 494 88 q 452 37 476 57 q 401 6 428 17 q 344 -10 374 -6 q 288 -15 315 -15 z "},"ă":{"ha":694,"x_min":63,"x_max":621,"o":"m 288 -15 q 121 34 179 -15 q 63 161 63 83 q 87 255 63 213 q 156 326 111 297 q 261 372 200 356 q 396 388 322 388 q 437 388 415 388 q 483 385 458 388 q 532 381 507 383 l 536 293 q 490 298 514 296 q 444 301 467 300 q 400 301 421 301 q 308 293 349 301 q 239 269 267 285 q 196 228 211 253 q 181 172 181 204 q 190 126 181 144 q 217 97 200 108 q 256 81 233 86 q 304 76 278 76 q 392 92 354 76 q 458 140 431 108 q 499 219 485 172 q 513 328 513 265 q 492 467 513 417 q 432 537 472 517 q 331 557 392 557 q 242 541 285 557 q 163 488 200 525 l 101 561 q 211 631 150 608 q 338 653 272 653 q 451 638 400 653 q 541 589 503 624 q 600 496 579 554 q 621 349 621 438 l 621 0 l 494 0 l 494 88 q 452 37 476 57 q 401 6 428 17 q 344 -10 374 -6 q 288 -15 315 -15 m 465 915 l 546 878 q 463 778 514 814 q 344 743 411 743 q 227 778 279 743 q 143 878 175 814 l 224 915 q 276 842 247 865 q 344 818 304 818 q 393 828 371 818 q 433 860 415 839 q 465 915 451 882 z "},"ắ":{"ha":694,"x_min":63,"x_max":621,"o":"m 288 -15 q 121 34 179 -15 q 63 161 63 83 q 87 255 63 213 q 156 326 111 297 q 261 372 200 356 q 396 388 322 388 q 437 388 415 388 q 483 385 458 388 q 532 381 507 383 l 536 293 q 490 298 514 296 q 444 301 467 300 q 400 301 421 301 q 308 293 349 301 q 239 269 267 285 q 196 228 211 253 q 181 172 181 204 q 190 126 181 144 q 217 97 200 108 q 256 81 233 86 q 304 76 278 76 q 392 92 354 76 q 458 140 431 108 q 499 219 485 172 q 513 328 513 265 q 492 467 513 417 q 432 537 472 517 q 331 557 392 557 q 242 541 285 557 q 163 488 200 525 l 101 561 q 211 631 150 608 q 338 653 272 653 q 451 638 400 653 q 541 589 503 624 q 600 496 579 554 q 621 349 621 438 l 621 0 l 494 0 l 494 88 q 452 37 476 57 q 401 6 428 17 q 344 -10 374 -6 q 288 -15 315 -15 z "},"ặ":{"ha":694,"x_min":63,"x_max":621,"o":"m 288 -15 q 121 34 179 -15 q 63 161 63 83 q 87 255 63 213 q 156 326 111 297 q 261 372 200 356 q 396 388 322 388 q 437 388 415 388 q 483 385 458 388 q 532 381 507 383 l 536 293 q 490 298 514 296 q 444 301 467 300 q 400 301 421 301 q 308 293 349 301 q 239 269 267 285 q 196 228 211 253 q 181 172 181 204 q 190 126 181 144 q 217 97 200 108 q 256 81 233 86 q 304 76 278 76 q 392 92 354 76 q 458 140 431 108 q 499 219 485 172 q 513 328 513 265 q 492 467 513 417 q 432 537 472 517 q 331 557 392 557 q 242 541 285 557 q 163 488 200 525 l 101 561 q 211 631 150 608 q 338 653 272 653 q 451 638 400 653 q 541 589 503 624 q 600 496 579 554 q 621 349 621 438 l 621 0 l 494 0 l 494 88 q 452 37 476 57 q 401 6 428 17 q 344 -10 374 -6 q 288 -15 315 -15 m 465 915 l 546 878 q 463 778 514 814 q 344 743 411 743 q 227 778 279 743 q 143 878 175 814 l 224 915 q 276 842 247 865 q 344 818 304 818 q 393 828 371 818 q 433 860 415 839 q 465 915 451 882 z "},"ằ":{"ha":694,"x_min":63,"x_max":621,"o":"m 288 -15 q 121 34 179 -15 q 63 161 63 83 q 87 255 63 213 q 156 326 111 297 q 261 372 200 356 q 396 388 322 388 q 437 388 415 388 q 483 385 458 388 q 532 381 507 383 l 536 293 q 490 298 514 296 q 444 301 467 300 q 400 301 421 301 q 308 293 349 301 q 239 269 267 285 q 196 228 211 253 q 181 172 181 204 q 190 126 181 144 q 217 97 200 108 q 256 81 233 86 q 304 76 278 76 q 392 92 354 76 q 458 140 431 108 q 499 219 485 172 q 513 328 513 265 q 492 467 513 417 q 432 537 472 517 q 331 557 392 557 q 242 541 285 557 q 163 488 200 525 l 101 561 q 211 631 150 608 q 338 653 272 653 q 451 638 400 653 q 541 589 503 624 q 600 496 579 554 q 621 349 621 438 l 621 0 l 494 0 l 494 88 q 452 37 476 57 q 401 6 428 17 q 344 -10 374 -6 q 288 -15 315 -15 z "},"ẳ":{"ha":694,"x_min":63,"x_max":621,"o":"m 288 -15 q 121 34 179 -15 q 63 161 63 83 q 87 255 63 213 q 156 326 111 297 q 261 372 200 356 q 396 388 322 388 q 437 388 415 388 q 483 385 458 388 q 532 381 507 383 l 536 293 q 490 298 514 296 q 444 301 467 300 q 400 301 421 301 q 308 293 349 301 q 239 269 267 285 q 196 228 211 253 q 181 172 181 204 q 190 126 181 144 q 217 97 200 108 q 256 81 233 86 q 304 76 278 76 q 392 92 354 76 q 458 140 431 108 q 499 219 485 172 q 513 328 513 265 q 492 467 513 417 q 432 537 472 517 q 331 557 392 557 q 242 541 285 557 q 163 488 200 525 l 101 561 q 211 631 150 608 q 338 653 272 653 q 451 638 400 653 q 541 589 503 624 q 600 496 579 554 q 621 349 621 438 l 621 0 l 494 0 l 494 88 q 452 37 476 57 q 401 6 428 17 q 344 -10 374 -6 q 288 -15 315 -15 z "},"ẵ":{"ha":694,"x_min":63,"x_max":621,"o":"m 288 -15 q 121 34 179 -15 q 63 161 63 83 q 87 255 63 213 q 156 326 111 297 q 261 372 200 356 q 396 388 322 388 q 437 388 415 388 q 483 385 458 388 q 532 381 507 383 l 536 293 q 490 298 514 296 q 444 301 467 300 q 400 301 421 301 q 308 293 349 301 q 239 269 267 285 q 196 228 211 253 q 181 172 181 204 q 190 126 181 144 q 217 97 200 108 q 256 81 233 86 q 304 76 278 76 q 392 92 354 76 q 458 140 431 108 q 499 219 485 172 q 513 328 513 265 q 492 467 513 417 q 432 537 472 517 q 331 557 392 557 q 242 541 285 557 q 163 488 200 525 l 101 561 q 211 631 150 608 q 338 653 272 653 q 451 638 400 653 q 541 589 503 624 q 600 496 579 554 q 621 349 621 438 l 621 0 l 494 0 l 494 88 q 452 37 476 57 q 401 6 428 17 q 344 -10 374 -6 q 288 -15 315 -15 z "},"â":{"ha":694,"x_min":63,"x_max":621,"o":"m 288 -15 q 121 34 179 -15 q 63 161 63 83 q 87 255 63 213 q 156 326 111 297 q 261 372 200 356 q 396 388 322 388 q 437 388 415 388 q 483 385 458 388 q 532 381 507 383 l 536 293 q 490 298 514 296 q 444 301 467 300 q 400 301 421 301 q 308 293 349 301 q 239 269 267 285 q 196 228 211 253 q 181 172 181 204 q 190 126 181 144 q 217 97 200 108 q 256 81 233 86 q 304 76 278 76 q 392 92 354 76 q 458 140 431 108 q 499 219 485 172 q 513 328 513 265 q 492 467 513 417 q 432 537 472 517 q 331 557 392 557 q 242 541 285 557 q 163 488 200 525 l 101 561 q 211 631 150 608 q 338 653 272 653 q 451 638 400 653 q 541 589 503 624 q 600 496 579 554 q 621 349 621 438 l 621 0 l 494 0 l 494 88 q 452 37 476 57 q 401 6 428 17 q 344 -10 374 -6 q 288 -15 315 -15 m 190 704 l 129 757 l 325 951 l 364 951 l 560 757 l 499 704 l 344 853 l 190 704 z "},"ấ":{"ha":694,"x_min":63,"x_max":681,"o":"m 288 -15 q 121 34 179 -15 q 63 161 63 83 q 87 255 63 213 q 156 326 111 297 q 261 372 200 356 q 396 388 322 388 q 437 388 415 388 q 483 385 458 388 q 532 381 507 383 l 536 293 q 490 298 514 296 q 444 301 467 300 q 400 301 421 301 q 308 293 349 301 q 239 269 267 285 q 196 228 211 253 q 181 172 181 204 q 190 126 181 144 q 217 97 200 108 q 256 81 233 86 q 304 76 278 76 q 392 92 354 76 q 458 140 431 108 q 499 219 485 172 q 513 328 513 265 q 492 467 513 417 q 432 537 472 517 q 331 557 392 557 q 242 541 285 557 q 163 488 200 525 l 101 561 q 211 631 150 608 q 338 653 272 653 q 451 638 400 653 q 541 589 503 624 q 600 496 579 554 q 621 349 621 438 l 621 0 l 494 0 l 494 88 q 452 37 476 57 q 401 6 428 17 q 344 -10 374 -6 q 288 -15 315 -15 z "},"ậ":{"ha":694,"x_min":63,"x_max":621,"o":"m 288 -15 q 121 34 179 -15 q 63 161 63 83 q 87 255 63 213 q 156 326 111 297 q 261 372 200 356 q 396 388 322 388 q 437 388 415 388 q 483 385 458 388 q 532 381 507 383 l 536 293 q 490 298 514 296 q 444 301 467 300 q 400 301 421 301 q 308 293 349 301 q 239 269 267 285 q 196 228 211 253 q 181 172 181 204 q 190 126 181 144 q 217 97 200 108 q 256 81 233 86 q 304 76 278 76 q 392 92 354 76 q 458 140 431 108 q 499 219 485 172 q 513 328 513 265 q 492 467 513 417 q 432 537 472 517 q 331 557 392 557 q 242 541 285 557 q 163 488 200 525 l 101 561 q 211 631 150 608 q 338 653 272 653 q 451 638 400 653 q 541 589 503 624 q 600 496 579 554 q 621 349 621 438 l 621 0 l 494 0 l 494 88 q 452 37 476 57 q 401 6 428 17 q 344 -10 374 -6 q 288 -15 315 -15 m 190 704 l 129 757 l 325 951 l 364 951 l 560 757 l 499 704 l 344 853 l 190 704 z "},"ầ":{"ha":694,"x_min":63,"x_max":621,"o":"m 288 -15 q 121 34 179 -15 q 63 161 63 83 q 87 255 63 213 q 156 326 111 297 q 261 372 200 356 q 396 388 322 388 q 437 388 415 388 q 483 385 458 388 q 532 381 507 383 l 536 293 q 490 298 514 296 q 444 301 467 300 q 400 301 421 301 q 308 293 349 301 q 239 269 267 285 q 196 228 211 253 q 181 172 181 204 q 190 126 181 144 q 217 97 200 108 q 256 81 233 86 q 304 76 278 76 q 392 92 354 76 q 458 140 431 108 q 499 219 485 172 q 513 328 513 265 q 492 467 513 417 q 432 537 472 517 q 331 557 392 557 q 242 541 285 557 q 163 488 200 525 l 101 561 q 211 631 150 608 q 338 653 272 653 q 451 638 400 653 q 541 589 503 624 q 600 496 579 554 q 621 349 621 438 l 621 0 l 494 0 l 494 88 q 452 37 476 57 q 401 6 428 17 q 344 -10 374 -6 q 288 -15 315 -15 z "},"ẩ":{"ha":694,"x_min":63,"x_max":647,"o":"m 288 -15 q 121 34 179 -15 q 63 161 63 83 q 87 255 63 213 q 156 326 111 297 q 261 372 200 356 q 396 388 322 388 q 437 388 415 388 q 483 385 458 388 q 532 381 507 383 l 536 293 q 490 298 514 296 q 444 301 467 300 q 400 301 421 301 q 308 293 349 301 q 239 269 267 285 q 196 228 211 253 q 181 172 181 204 q 190 126 181 144 q 217 97 200 108 q 256 81 233 86 q 304 76 278 76 q 392 92 354 76 q 458 140 431 108 q 499 219 485 172 q 513 328 513 265 q 492 467 513 417 q 432 537 472 517 q 331 557 392 557 q 242 541 285 557 q 163 488 200 525 l 101 561 q 211 631 150 608 q 338 653 272 653 q 451 638 400 653 q 541 589 503 624 q 600 496 579 554 q 621 349 621 438 l 621 0 l 494 0 l 494 88 q 452 37 476 57 q 401 6 428 17 q 344 -10 374 -6 q 288 -15 315 -15 z "},"ẫ":{"ha":694,"x_min":63,"x_max":621,"o":"m 288 -15 q 121 34 179 -15 q 63 161 63 83 q 87 255 63 213 q 156 326 111 297 q 261 372 200 356 q 396 388 322 388 q 437 388 415 388 q 483 385 458 388 q 532 381 507 383 l 536 293 q 490 298 514 296 q 444 301 467 300 q 400 301 421 301 q 308 293 349 301 q 239 269 267 285 q 196 228 211 253 q 181 172 181 204 q 190 126 181 144 q 217 97 200 108 q 256 81 233 86 q 304 76 278 76 q 392 92 354 76 q 458 140 431 108 q 499 219 485 172 q 513 328 513 265 q 492 467 513 417 q 432 537 472 517 q 331 557 392 557 q 242 541 285 557 q 163 488 200 525 l 101 561 q 211 631 150 608 q 338 653 272 653 q 451 638 400 653 q 541 589 503 624 q 600 496 579 554 q 621 349 621 438 l 621 0 l 494 0 l 494 88 q 452 37 476 57 q 401 6 428 17 q 344 -10 374 -6 q 288 -15 315 -15 z "},"ȁ":{"ha":694,"x_min":63,"x_max":621,"o":"m 288 -15 q 121 34 179 -15 q 63 161 63 83 q 87 255 63 213 q 156 326 111 297 q 261 372 200 356 q 396 388 322 388 q 437 388 415 388 q 483 385 458 388 q 532 381 507 383 l 536 293 q 490 298 514 296 q 444 301 467 300 q 400 301 421 301 q 308 293 349 301 q 239 269 267 285 q 196 228 211 253 q 181 172 181 204 q 190 126 181 144 q 217 97 200 108 q 256 81 233 86 q 304 76 278 76 q 392 92 354 76 q 458 140 431 108 q 499 219 485 172 q 513 328 513 265 q 492 467 513 417 q 432 537 472 517 q 331 557 392 557 q 242 541 285 557 q 163 488 200 525 l 101 561 q 211 631 150 608 q 338 653 272 653 q 451 638 400 653 q 541 589 503 624 q 600 496 579 554 q 621 349 621 438 l 621 0 l 494 0 l 494 88 q 452 37 476 57 q 401 6 428 17 q 344 -10 374 -6 q 288 -15 315 -15 z "},"ä":{"ha":694,"x_min":63,"x_max":621,"o":"m 288 -15 q 121 34 179 -15 q 63 161 63 83 q 87 255 63 213 q 156 326 111 297 q 261 372 200 356 q 396 388 322 388 q 437 388 415 388 q 483 385 458 388 q 532 381 507 383 l 536 293 q 490 298 514 296 q 444 301 467 300 q 400 301 421 301 q 308 293 349 301 q 239 269 267 285 q 196 228 211 253 q 181 172 181 204 q 190 126 181 144 q 217 97 200 108 q 256 81 233 86 q 304 76 278 76 q 392 92 354 76 q 458 140 431 108 q 499 219 485 172 q 513 328 513 265 q 492 467 513 417 q 432 537 472 517 q 331 557 392 557 q 242 541 285 557 q 163 488 200 525 l 101 561 q 211 631 150 608 q 338 653 272 653 q 451 638 400 653 q 541 589 503 624 q 600 496 579 554 q 621 349 621 438 l 621 0 l 494 0 l 494 88 q 452 37 476 57 q 401 6 428 17 q 344 -10 374 -6 q 288 -15 315 -15 z "},"ạ":{"ha":694,"x_min":63,"x_max":621,"o":"m 288 -15 q 121 34 179 -15 q 63 161 63 83 q 87 255 63 213 q 156 326 111 297 q 261 372 200 356 q 396 388 322 388 q 437 388 415 388 q 483 385 458 388 q 532 381 507 383 l 536 293 q 490 298 514 296 q 444 301 467 300 q 400 301 421 301 q 308 293 349 301 q 239 269 267 285 q 196 228 211 253 q 181 172 181 204 q 190 126 181 144 q 217 97 200 108 q 256 81 233 86 q 304 76 278 76 q 392 92 354 76 q 458 140 431 108 q 499 219 485 172 q 513 328 513 265 q 492 467 513 417 q 432 537 472 517 q 331 557 392 557 q 242 541 285 557 q 163 488 200 525 l 101 561 q 211 631 150 608 q 338 653 272 653 q 451 638 400 653 q 541 589 503 624 q 600 496 579 554 q 621 349 621 438 l 621 0 l 494 0 l 494 88 q 452 37 476 57 q 401 6 428 17 q 344 -10 374 -6 q 288 -15 315 -15 z "},"à":{"ha":694,"x_min":63,"x_max":621,"o":"m 288 -15 q 121 34 179 -15 q 63 161 63 83 q 87 255 63 213 q 156 326 111 297 q 261 372 200 356 q 396 388 322 388 q 437 388 415 388 q 483 385 458 388 q 532 381 507 383 l 536 293 q 490 298 514 296 q 444 301 467 300 q 400 301 421 301 q 308 293 349 301 q 239 269 267 285 q 196 228 211 253 q 181 172 181 204 q 190 126 181 144 q 217 97 200 108 q 256 81 233 86 q 304 76 278 76 q 392 92 354 76 q 458 140 431 108 q 499 219 485 172 q 513 328 513 265 q 492 467 513 417 q 432 537 472 517 q 331 557 392 557 q 242 541 285 557 q 163 488 200 525 l 101 561 q 211 631 150 608 q 338 653 272 653 q 451 638 400 653 q 541 589 503 624 q 600 496 579 554 q 621 349 621 438 l 621 0 l 494 0 l 494 88 q 452 37 476 57 q 401 6 428 17 q 344 -10 374 -6 q 288 -15 315 -15 z "},"ả":{"ha":694,"x_min":63,"x_max":621,"o":"m 288 -15 q 121 34 179 -15 q 63 161 63 83 q 87 255 63 213 q 156 326 111 297 q 261 372 200 356 q 396 388 322 388 q 437 388 415 388 q 483 385 458 388 q 532 381 507 383 l 536 293 q 490 298 514 296 q 444 301 467 300 q 400 301 421 301 q 308 293 349 301 q 239 269 267 285 q 196 228 211 253 q 181 172 181 204 q 190 126 181 144 q 217 97 200 108 q 256 81 233 86 q 304 76 278 76 q 392 92 354 76 q 458 140 431 108 q 499 219 485 172 q 513 328 513 265 q 492 467 513 417 q 432 537 472 517 q 331 557 392 557 q 242 541 285 557 q 163 488 200 525 l 101 561 q 211 631 150 608 q 338 653 272 653 q 451 638 400 653 q 541 589 503 624 q 600 496 579 554 q 621 349 621 438 l 621 0 l 494 0 l 494 88 q 452 37 476 57 q 401 6 428 17 q 344 -10 374 -6 q 288 -15 315 -15 m 475 879 q 463 833 475 850 q 434 803 450 815 q 405 775 418 790 q 392 735 392 760 l 392 724 l 313 724 l 313 763 q 324 797 313 782 q 351 825 336 813 q 378 850 367 838 q 390 875 390 863 q 378 905 390 894 q 346 915 365 915 q 307 906 325 915 q 279 868 289 897 l 226 928 q 283 975 251 961 q 353 989 315 989 q 415 974 388 988 q 459 937 443 961 q 475 879 475 913 z "},"ȃ":{"ha":694,"x_min":63,"x_max":621,"o":"m 288 -15 q 121 34 179 -15 q 63 161 63 83 q 87 255 63 213 q 156 326 111 297 q 261 372 200 356 q 396 388 322 388 q 437 388 415 388 q 483 385 458 388 q 532 381 507 383 l 536 293 q 490 298 514 296 q 444 301 467 300 q 400 301 421 301 q 308 293 349 301 q 239 269 267 285 q 196 228 211 253 q 181 172 181 204 q 190 126 181 144 q 217 97 200 108 q 256 81 233 86 q 304 76 278 76 q 392 92 354 76 q 458 140 431 108 q 499 219 485 172 q 513 328 513 265 q 492 467 513 417 q 432 537 472 517 q 331 557 392 557 q 242 541 285 557 q 163 488 200 525 l 101 561 q 211 631 150 608 q 338 653 272 653 q 451 638 400 653 q 541 589 503 624 q 600 496 579 554 q 621 349 621 438 l 621 0 l 494 0 l 494 88 q 452 37 476 57 q 401 6 428 17 q 344 -10 374 -6 q 288 -15 315 -15 m 224 729 l 143 767 q 228 866 176 831 q 344 901 279 901 q 463 866 411 901 q 546 767 515 831 l 465 729 q 414 803 443 779 q 344 826 385 826 q 297 816 318 826 q 257 785 275 806 q 224 729 239 764 z "},"ā":{"ha":694,"x_min":63,"x_max":621,"o":"m 288 -15 q 121 34 179 -15 q 63 161 63 83 q 87 255 63 213 q 156 326 111 297 q 261 372 200 356 q 396 388 322 388 q 437 388 415 388 q 483 385 458 388 q 532 381 507 383 l 536 293 q 490 298 514 296 q 444 301 467 300 q 400 301 421 301 q 308 293 349 301 q 239 269 267 285 q 196 228 211 253 q 181 172 181 204 q 190 126 181 144 q 217 97 200 108 q 256 81 233 86 q 304 76 278 76 q 392 92 354 76 q 458 140 431 108 q 499 219 485 172 q 513 328 513 265 q 492 467 513 417 q 432 537 472 517 q 331 557 392 557 q 242 541 285 557 q 163 488 200 525 l 101 561 q 211 631 150 608 q 338 653 272 653 q 451 638 400 653 q 541 589 503 624 q 600 496 579 554 q 621 349 621 438 l 621 0 l 494 0 l 494 88 q 452 37 476 57 q 401 6 428 17 q 344 -10 374 -6 q 288 -15 315 -15 z "},"ą":{"ha":694,"x_min":63,"x_max":621,"o":"m 288 -15 q 121 34 179 -15 q 63 161 63 83 q 87 255 63 213 q 156 326 111 297 q 261 372 200 356 q 396 388 322 388 q 437 388 415 388 q 483 385 458 388 q 532 381 507 383 l 536 293 q 490 298 514 296 q 444 301 467 300 q 400 301 421 301 q 308 293 349 301 q 239 269 267 285 q 196 228 211 253 q 181 172 181 204 q 190 126 181 144 q 217 97 200 108 q 256 81 233 86 q 304 76 278 76 q 392 92 354 76 q 458 140 431 108 q 499 219 485 172 q 513 328 513 265 q 492 467 513 417 q 432 537 472 517 q 331 557 392 557 q 242 541 285 557 q 163 488 200 525 l 101 561 q 211 631 150 608 q 338 653 272 653 q 451 638 400 653 q 541 589 503 624 q 600 496 579 554 q 621 349 621 438 l 621 0 l 494 0 l 494 88 q 452 37 476 57 q 401 6 428 17 q 344 -10 374 -6 q 288 -15 315 -15 m 532 -235 l 497 -321 q 409 -292 446 -310 q 352 -247 372 -274 q 332 -185 332 -219 q 352 -112 332 -149 q 412 -40 372 -75 q 508 28 451 -4 l 551 0 q 494 -55 518 -26 q 457 -110 469 -83 q 444 -158 444 -136 q 466 -206 444 -186 q 532 -235 488 -226 z "},"å":{"ha":694,"x_min":63,"x_max":621,"o":"m 288 -15 q 121 34 179 -15 q 63 161 63 83 q 87 255 63 213 q 156 326 111 297 q 261 372 200 356 q 396 388 322 388 q 437 388 415 388 q 483 385 458 388 q 532 381 507 383 l 536 293 q 490 298 514 296 q 444 301 467 300 q 400 301 421 301 q 308 293 349 301 q 239 269 267 285 q 196 228 211 253 q 181 172 181 204 q 190 126 181 144 q 217 97 200 108 q 256 81 233 86 q 304 76 278 76 q 392 92 354 76 q 458 140 431 108 q 499 219 485 172 q 513 328 513 265 q 492 467 513 417 q 432 537 472 517 q 331 557 392 557 q 242 541 285 557 q 163 488 200 525 l 101 561 q 211 631 150 608 q 338 653 272 653 q 451 638 400 653 q 541 589 503 624 q 600 496 579 554 q 621 349 621 438 l 621 0 l 494 0 l 494 88 q 452 37 476 57 q 401 6 428 17 q 344 -10 374 -6 q 288 -15 315 -15 z "},"ǻ":{"ha":694,"x_min":63,"x_max":621,"o":"m 288 -15 q 121 34 179 -15 q 63 161 63 83 q 87 255 63 213 q 156 326 111 297 q 261 372 200 356 q 396 388 322 388 q 437 388 415 388 q 483 385 458 388 q 532 381 507 383 l 536 293 q 490 298 514 296 q 444 301 467 300 q 400 301 421 301 q 308 293 349 301 q 239 269 267 285 q 196 228 211 253 q 181 172 181 204 q 190 126 181 144 q 217 97 200 108 q 256 81 233 86 q 304 76 278 76 q 392 92 354 76 q 458 140 431 108 q 499 219 485 172 q 513 328 513 265 q 492 467 513 417 q 432 537 472 517 q 331 557 392 557 q 242 541 285 557 q 163 488 200 525 l 101 561 q 211 631 150 608 q 338 653 272 653 q 451 638 400 653 q 541 589 503 624 q 600 496 579 554 q 621 349 621 438 l 621 0 l 494 0 l 494 88 q 452 37 476 57 q 401 6 428 17 q 344 -10 374 -6 q 288 -15 315 -15 z "},"ã":{"ha":694,"x_min":63,"x_max":621,"o":"m 288 -15 q 121 34 179 -15 q 63 161 63 83 q 87 255 63 213 q 156 326 111 297 q 261 372 200 356 q 396 388 322 388 q 437 388 415 388 q 483 385 458 388 q 532 381 507 383 l 536 293 q 490 298 514 296 q 444 301 467 300 q 400 301 421 301 q 308 293 349 301 q 239 269 267 285 q 196 228 211 253 q 181 172 181 204 q 190 126 181 144 q 217 97 200 108 q 256 81 233 86 q 304 76 278 76 q 392 92 354 76 q 458 140 431 108 q 499 219 485 172 q 513 328 513 265 q 492 467 513 417 q 432 537 472 517 q 331 557 392 557 q 242 541 285 557 q 163 488 200 525 l 101 561 q 211 631 150 608 q 338 653 272 653 q 451 638 400 653 q 541 589 503 624 q 600 496 579 554 q 621 349 621 438 l 621 0 l 494 0 l 494 88 q 452 37 476 57 q 401 6 428 17 q 344 -10 374 -6 q 288 -15 315 -15 m 511 936 l 581 896 q 522 813 551 838 q 450 789 492 789 q 390 801 415 789 q 346 828 365 813 q 308 856 326 844 q 267 868 289 868 q 224 853 243 868 q 190 801 206 838 l 115 836 q 172 919 136 888 q 263 950 208 950 q 318 938 294 950 q 361 911 342 926 q 400 884 381 896 q 443 872 419 872 q 479 886 465 872 q 511 936 493 900 z "},"æ":{"ha":694,"x_min":10,"x_max":689,"o":"m 199 -15 q 96 8 138 -15 q 32 75 54 32 q 10 174 10 118 q 29 263 10 224 q 85 331 49 303 q 175 375 121 360 q 299 393 229 390 q 288 486 299 449 q 253 543 276 524 q 196 563 231 563 q 142 547 168 563 q 93 501 115 532 l 36 572 q 111 633 69 613 q 206 653 153 653 q 269 642 239 653 q 322 613 299 632 q 358 569 346 594 q 397 613 375 594 q 446 642 419 632 q 499 653 472 653 q 604 619 564 653 q 663 522 644 585 q 682 374 682 460 l 682 317 l 399 307 l 399 244 q 408 176 399 207 q 434 122 417 144 q 476 88 451 100 q 531 76 500 76 q 571 82 553 76 q 604 100 589 88 q 633 131 619 113 l 689 64 q 615 5 657 25 q 524 -15 572 -15 q 458 -4 489 -15 q 400 28 426 7 q 354 76 374 49 q 315 28 339 49 q 261 -4 290 7 q 199 -15 232 -15 m 203 81 q 267 108 246 81 q 294 185 288 135 q 300 301 300 235 q 192 284 233 299 q 133 242 151 269 q 114 172 114 215 q 124 117 114 138 q 155 89 135 97 q 203 81 175 81 m 399 394 l 592 401 q 582 490 592 454 q 552 544 572 526 q 500 563 532 563 q 447 542 469 563 q 411 485 424 522 q 399 394 399 449 z "},"ǽ":{"ha":694,"x_min":10,"x_max":689,"o":"m 199 -15 q 96 8 138 -15 q 32 75 54 32 q 10 174 10 118 q 29 263 10 224 q 85 331 49 303 q 175 375 121 360 q 299 393 229 390 q 288 486 299 449 q 253 543 276 524 q 196 563 231 563 q 142 547 168 563 q 93 501 115 532 l 36 572 q 111 633 69 613 q 206 653 153 653 q 269 642 239 653 q 322 613 299 632 q 358 569 346 594 q 397 613 375 594 q 446 642 419 632 q 499 653 472 653 q 604 619 564 653 q 663 522 644 585 q 682 374 682 460 l 682 317 l 399 307 l 399 244 q 408 176 399 207 q 434 122 417 144 q 476 88 451 100 q 531 76 500 76 q 571 82 553 76 q 604 100 589 88 q 633 131 619 113 l 689 64 q 615 5 657 25 q 524 -15 572 -15 q 458 -4 489 -15 q 400 28 426 7 q 354 76 374 49 q 315 28 339 49 q 261 -4 290 7 q 199 -15 232 -15 m 203 81 q 267 108 246 81 q 294 185 288 135 q 300 301 300 235 q 192 284 233 299 q 133 242 151 269 q 114 172 114 215 q 124 117 114 138 q 155 89 135 97 q 203 81 175 81 m 399 394 l 592 401 q 582 490 592 454 q 552 544 572 526 q 500 563 532 563 q 447 542 469 563 q 411 485 424 522 q 399 394 399 449 z "},"b":{"ha":694,"x_min":78,"x_max":642,"o":"m 375 -15 q 304 -4 338 -15 q 242 28 271 7 q 192 79 214 50 l 160 0 l 78 0 l 78 926 l 197 926 l 211 926 l 211 915 q 201 897 203 907 q 199 864 199 888 l 199 550 q 233 592 214 572 q 277 626 253 611 q 328 647 301 640 q 381 654 354 654 q 487 633 439 654 q 569 572 535 613 q 623 469 604 531 q 642 326 642 408 q 619 176 642 240 q 560 69 597 111 q 474 6 522 26 q 375 -15 426 -15 l 375 -15 m 357 85 q 418 97 389 85 q 471 136 447 108 q 508 209 494 164 q 521 318 521 254 q 509 423 521 378 q 476 498 497 468 q 426 542 456 528 q 360 557 396 557 q 275 528 311 557 q 219 444 239 499 q 199 319 199 390 q 208 222 199 265 q 235 148 217 179 q 284 101 254 117 q 357 85 314 85 l 357 85 z "},"ʘ":{"ha":694,"x_min":33,"x_max":663,"o":"m 349 -15 q 177 36 247 -15 q 70 188 107 88 q 33 429 33 288 q 70 667 33 568 q 177 820 107 767 q 349 874 247 874 q 519 820 450 874 q 626 667 589 767 q 663 429 663 568 q 626 188 663 288 q 519 36 589 88 q 349 -15 450 -15 m 349 83 q 453 123 410 83 q 520 240 497 163 q 543 429 543 317 q 520 613 543 536 q 453 732 497 690 q 349 774 410 774 q 243 732 288 774 q 176 613 199 690 q 153 429 153 536 q 176 240 153 317 q 243 123 199 163 q 349 83 288 83 m 350 369 q 303 389 322 369 q 283 435 283 408 q 303 482 283 463 q 350 501 322 501 q 397 481 378 501 q 417 435 417 461 q 397 389 417 408 q 350 369 378 369 z "},"c":{"ha":694,"x_min":69,"x_max":639,"o":"m 393 -15 q 263 10 322 -15 q 161 79 204 35 q 94 184 118 124 q 69 317 69 244 q 94 449 69 388 q 161 555 118 510 q 263 626 204 600 q 392 651 322 651 q 537 619 474 651 q 639 532 600 588 l 568 458 l 560 449 l 551 457 q 547 478 551 468 q 526 506 543 489 q 463 542 497 532 q 385 553 429 553 q 313 537 347 553 q 251 491 278 521 q 208 418 224 461 q 192 322 192 375 q 208 227 192 269 q 251 153 224 185 q 317 105 279 122 q 399 88 356 88 q 458 96 429 88 q 514 122 488 104 q 563 165 540 139 l 631 88 q 521 10 582 35 q 393 -15 460 -15 l 393 -15 z "},"ć":{"ha":694,"x_min":69,"x_max":639,"o":"m 393 -15 q 263 10 322 -15 q 161 79 204 35 q 94 184 118 124 q 69 317 69 244 q 94 449 69 388 q 161 555 118 510 q 263 626 204 600 q 392 651 322 651 q 537 619 474 651 q 639 532 600 588 l 568 458 l 560 449 l 551 457 q 547 478 551 468 q 526 506 543 489 q 463 542 497 532 q 385 553 429 553 q 313 537 347 553 q 251 491 278 521 q 208 418 224 461 q 192 322 192 375 q 208 227 192 269 q 251 153 224 185 q 317 105 279 122 q 399 88 356 88 q 458 96 429 88 q 514 122 488 104 q 563 165 540 139 l 631 88 q 521 10 582 35 q 393 -15 460 -15 l 393 -15 z "},"č":{"ha":694,"x_min":69,"x_max":639,"o":"m 393 -15 q 263 10 322 -15 q 161 79 204 35 q 94 184 118 124 q 69 317 69 244 q 94 449 69 388 q 161 555 118 510 q 263 626 204 600 q 392 651 322 651 q 537 619 474 651 q 639 532 600 588 l 568 458 l 560 449 l 551 457 q 547 478 551 468 q 526 506 543 489 q 463 542 497 532 q 385 553 429 553 q 313 537 347 553 q 251 491 278 521 q 208 418 224 461 q 192 322 192 375 q 208 227 192 269 q 251 153 224 185 q 317 105 279 122 q 399 88 356 88 q 458 96 429 88 q 514 122 488 104 q 563 165 540 139 l 631 88 q 521 10 582 35 q 393 -15 460 -15 l 393 -15 m 236 963 l 390 814 l 544 963 l 606 908 l 410 715 l 371 715 l 175 908 l 236 963 z "},"ç":{"ha":694,"x_min":69,"x_max":639,"o":"m 393 -15 q 263 10 322 -15 q 161 79 204 35 q 94 184 118 124 q 69 317 69 244 q 94 449 69 388 q 161 555 118 510 q 263 626 204 600 q 392 651 322 651 q 537 619 474 651 q 639 532 600 588 l 568 458 l 560 449 l 551 457 q 547 478 551 468 q 526 506 543 489 q 463 542 497 532 q 385 553 429 553 q 313 537 347 553 q 251 491 278 521 q 208 418 224 461 q 192 322 192 375 q 208 227 192 269 q 251 153 224 185 q 317 105 279 122 q 399 88 356 88 q 458 96 429 88 q 514 122 488 104 q 563 165 540 139 l 631 88 q 521 10 582 35 q 393 -15 460 -15 l 393 -15 z "},"ḉ":{"ha":694,"x_min":69,"x_max":639,"o":"m 393 -15 q 263 10 322 -15 q 161 79 204 35 q 94 184 118 124 q 69 317 69 244 q 94 449 69 388 q 161 555 118 510 q 263 626 204 600 q 392 651 322 651 q 537 619 474 651 q 639 532 600 588 l 568 458 l 560 449 l 551 457 q 547 478 551 468 q 526 506 543 489 q 463 542 497 532 q 385 553 429 553 q 313 537 347 553 q 251 491 278 521 q 208 418 224 461 q 192 322 192 375 q 208 227 192 269 q 251 153 224 185 q 317 105 279 122 q 399 88 356 88 q 458 96 429 88 q 514 122 488 104 q 563 165 540 139 l 631 88 q 521 10 582 35 q 393 -15 460 -15 l 393 -15 z "},"ĉ":{"ha":694,"x_min":69,"x_max":639,"o":"m 393 -15 q 263 10 322 -15 q 161 79 204 35 q 94 184 118 124 q 69 317 69 244 q 94 449 69 388 q 161 555 118 510 q 263 626 204 600 q 392 651 322 651 q 537 619 474 651 q 639 532 600 588 l 568 458 l 560 449 l 551 457 q 547 478 551 468 q 526 506 543 489 q 463 542 497 532 q 385 553 429 553 q 313 537 347 553 q 251 491 278 521 q 208 418 224 461 q 192 322 192 375 q 208 227 192 269 q 251 153 224 185 q 317 105 279 122 q 399 88 356 88 q 458 96 429 88 q 514 122 488 104 q 563 165 540 139 l 631 88 q 521 10 582 35 q 393 -15 460 -15 l 393 -15 m 238 704 l 176 757 l 372 951 l 411 951 l 607 757 l 546 704 l 392 853 l 238 704 z "},"ċ":{"ha":694,"x_min":69,"x_max":639,"o":"m 393 -15 q 263 10 322 -15 q 161 79 204 35 q 94 184 118 124 q 69 317 69 244 q 94 449 69 388 q 161 555 118 510 q 263 626 204 600 q 392 651 322 651 q 537 619 474 651 q 639 532 600 588 l 568 458 l 560 449 l 551 457 q 547 478 551 468 q 526 506 543 489 q 463 542 497 532 q 385 553 429 553 q 313 537 347 553 q 251 491 278 521 q 208 418 224 461 q 192 322 192 375 q 208 227 192 269 q 251 153 224 185 q 317 105 279 122 q 399 88 356 88 q 458 96 429 88 q 514 122 488 104 q 563 165 540 139 l 631 88 q 521 10 582 35 q 393 -15 460 -15 l 393 -15 z "},"d":{"ha":694,"x_min":57,"x_max":629,"o":"m 321 -14 q 224 7 271 -14 q 139 69 176 28 q 79 175 101 111 q 57 325 57 239 q 80 473 57 411 q 141 576 103 535 q 226 636 179 617 q 325 656 274 656 q 399 643 365 656 q 459 609 433 631 q 500 557 485 588 l 500 926 l 613 926 l 626 926 l 626 915 q 616 897 618 907 q 614 864 614 888 l 615 94 q 617 47 615 71 q 629 0 619 24 l 513 0 q 503 31 506 17 q 499 59 500 44 q 499 89 499 74 q 453 33 479 57 q 393 -2 426 10 q 321 -14 360 -14 l 321 -14 m 340 86 q 411 103 382 86 q 458 151 440 119 q 485 227 476 183 q 494 322 494 271 q 478 447 494 393 q 425 530 461 500 q 333 560 389 560 q 264 544 294 560 q 214 499 233 529 q 184 428 194 469 q 174 336 174 388 q 194 204 174 260 q 251 117 214 149 q 340 86 289 86 l 340 86 z "},"ð":{"ha":694,"x_min":53,"x_max":643,"o":"m 356 -18 q 238 6 293 -18 q 142 74 183 31 q 76 176 100 117 q 53 308 53 236 q 76 441 53 379 q 138 550 99 503 q 227 624 178 597 q 331 650 276 650 q 394 643 365 650 q 449 622 424 636 q 494 585 475 607 q 447 676 475 632 q 383 758 419 721 l 214 710 l 185 789 l 317 824 q 274 856 296 840 q 230 885 253 871 q 181 908 207 899 l 308 936 q 369 899 340 918 q 425 854 397 881 l 578 896 l 606 822 l 493 789 q 557 697 529 746 q 604 592 585 647 q 633 476 624 538 q 643 351 643 415 q 624 200 643 268 q 569 83 606 132 q 480 8 533 35 q 356 -18 426 -18 m 356 82 q 419 96 389 82 q 472 140 449 110 q 510 214 496 169 q 524 321 524 258 q 513 409 524 371 q 486 474 503 447 q 447 517 469 500 q 401 542 425 535 q 353 550 376 550 q 290 535 321 550 q 233 492 258 521 q 193 421 208 464 q 178 321 178 378 q 192 223 178 267 q 231 148 207 179 q 288 99 256 117 q 356 82 319 82 z "},"ď":{"ha":694,"x_min":44,"x_max":669,"o":"m 250 -14 q 174 4 211 -14 q 107 61 136 22 q 61 165 78 100 q 44 324 44 231 q 61 481 44 417 q 108 583 78 544 q 175 638 138 621 q 256 656 213 656 q 340 631 304 656 q 392 558 375 607 l 392 925 l 493 925 l 507 925 l 507 915 q 497 897 499 907 q 494 864 494 888 l 494 96 q 496 48 494 71 q 506 0 497 25 l 403 0 q 394 28 397 15 q 390 54 392 40 q 389 85 389 68 q 354 33 375 56 q 308 -2 333 10 q 250 -14 282 -14 l 250 -14 m 271 83 q 337 111 311 83 q 375 192 363 139 q 388 322 388 244 q 374 454 388 401 q 335 533 361 507 q 268 560 308 560 q 216 547 239 560 q 178 506 193 533 q 154 437 163 479 q 146 336 146 394 q 156 222 146 269 q 181 143 165 174 q 220 98 197 113 q 271 83 243 83 l 271 83 m 601 928 q 650 906 631 928 q 669 850 669 885 q 657 785 669 821 q 623 712 644 749 q 576 642 601 675 l 526 678 q 553 712 540 694 q 573 747 565 729 q 581 782 581 764 q 569 806 581 796 q 547 831 558 817 q 535 869 535 844 q 553 910 535 892 q 601 928 571 928 z "},"đ":{"ha":694,"x_min":57,"x_max":694,"o":"m 321 -14 q 224 7 271 -14 q 139 69 176 28 q 79 175 101 111 q 57 325 57 239 q 80 473 57 411 q 141 576 103 535 q 226 636 179 617 q 325 656 274 656 q 399 643 365 656 q 459 609 433 631 q 500 557 485 588 l 500 926 l 613 926 l 626 926 l 626 915 q 616 897 618 907 q 614 864 614 888 l 615 94 q 617 47 615 71 q 629 0 619 24 l 513 0 q 503 31 506 17 q 499 59 500 44 q 499 89 499 74 q 453 33 479 57 q 393 -2 426 10 q 321 -14 360 -14 l 321 -14 m 340 86 q 411 103 382 86 q 458 151 440 119 q 485 227 476 183 q 494 322 494 271 q 478 447 494 393 q 425 530 461 500 q 333 560 389 560 q 264 544 294 560 q 214 499 233 529 q 184 428 194 469 q 174 336 174 388 q 194 204 174 260 q 251 117 214 149 q 340 86 289 86 l 340 86 m 317 725 l 317 810 l 693 810 l 693 725 l 317 725 z "},"ḍ":{"ha":694,"x_min":57,"x_max":629,"o":"m 321 -14 q 224 7 271 -14 q 139 69 176 28 q 79 175 101 111 q 57 325 57 239 q 80 473 57 411 q 141 576 103 535 q 226 636 179 617 q 325 656 274 656 q 399 643 365 656 q 459 609 433 631 q 500 557 485 588 l 500 926 l 613 926 l 626 926 l 626 915 q 616 897 618 907 q 614 864 614 888 l 615 94 q 617 47 615 71 q 629 0 619 24 l 513 0 q 503 31 506 17 q 499 59 500 44 q 499 89 499 74 q 453 33 479 57 q 393 -2 426 10 q 321 -14 360 -14 l 321 -14 m 340 86 q 411 103 382 86 q 458 151 440 119 q 485 227 476 183 q 494 322 494 271 q 478 447 494 393 q 425 530 461 500 q 333 560 389 560 q 264 544 294 560 q 214 499 233 529 q 184 428 194 469 q 174 336 174 388 q 194 204 174 260 q 251 117 214 149 q 340 86 289 86 l 340 86 z "},"ḏ":{"ha":694,"x_min":57,"x_max":629,"o":"m 321 -14 q 224 7 271 -14 q 139 69 176 28 q 79 175 101 111 q 57 325 57 239 q 80 473 57 411 q 141 576 103 535 q 226 636 179 617 q 325 656 274 656 q 399 643 365 656 q 459 609 433 631 q 500 557 485 588 l 500 926 l 613 926 l 626 926 l 626 915 q 616 897 618 907 q 614 864 614 888 l 615 94 q 617 47 615 71 q 629 0 619 24 l 513 0 q 503 31 506 17 q 499 59 500 44 q 499 89 499 74 q 453 33 479 57 q 393 -2 426 10 q 321 -14 360 -14 l 321 -14 m 340 86 q 411 103 382 86 q 458 151 440 119 q 485 227 476 183 q 494 322 494 271 q 478 447 494 393 q 425 530 461 500 q 333 560 389 560 q 264 544 294 560 q 214 499 233 529 q 184 428 194 469 q 174 336 174 388 q 194 204 174 260 q 251 117 214 149 q 340 86 289 86 l 340 86 z "},"e":{"ha":694,"x_min":64,"x_max":624,"o":"m 378 -14 q 251 8 308 -14 q 151 71 193 29 q 86 175 108 113 q 64 317 64 238 q 87 460 64 397 q 150 565 110 522 q 244 631 190 608 q 360 654 299 654 q 463 635 414 654 q 547 579 511 617 q 603 484 582 542 q 624 349 624 426 q 623 322 624 336 q 621 296 622 307 l 178 296 q 198 198 181 239 q 243 131 215 157 q 306 93 271 106 q 382 81 342 81 q 442 88 414 81 q 496 110 471 94 q 542 147 521 125 l 606 86 q 542 30 578 53 q 466 -3 507 7 q 378 -14 425 -14 m 182 386 l 506 386 q 494 460 506 428 q 464 515 483 492 q 416 551 444 539 q 353 563 388 563 q 293 552 321 563 q 242 519 265 542 q 203 465 219 497 q 182 386 188 432 z "},"é":{"ha":694,"x_min":64,"x_max":624,"o":"m 378 -14 q 251 8 308 -14 q 151 71 193 29 q 86 175 108 113 q 64 317 64 238 q 87 460 64 397 q 150 565 110 522 q 244 631 190 608 q 360 654 299 654 q 463 635 414 654 q 547 579 511 617 q 603 484 582 542 q 624 349 624 426 q 623 322 624 336 q 621 296 622 307 l 178 296 q 198 198 181 239 q 243 131 215 157 q 306 93 271 106 q 382 81 342 81 q 442 88 414 81 q 496 110 471 94 q 542 147 521 125 l 606 86 q 542 30 578 53 q 466 -3 507 7 q 378 -14 425 -14 m 182 386 l 506 386 q 494 460 506 428 q 464 515 483 492 q 416 551 444 539 q 353 563 388 563 q 293 552 321 563 q 242 519 265 542 q 203 465 219 497 q 182 386 188 432 z "},"ĕ":{"ha":694,"x_min":64,"x_max":624,"o":"m 378 -14 q 251 8 308 -14 q 151 71 193 29 q 86 175 108 113 q 64 317 64 238 q 87 460 64 397 q 150 565 110 522 q 244 631 190 608 q 360 654 299 654 q 463 635 414 654 q 547 579 511 617 q 603 484 582 542 q 624 349 624 426 q 623 322 624 336 q 621 296 622 307 l 178 296 q 198 198 181 239 q 243 131 215 157 q 306 93 271 106 q 382 81 342 81 q 442 88 414 81 q 496 110 471 94 q 542 147 521 125 l 606 86 q 542 30 578 53 q 466 -3 507 7 q 378 -14 425 -14 m 182 386 l 506 386 q 494 460 506 428 q 464 515 483 492 q 416 551 444 539 q 353 563 388 563 q 293 552 321 563 q 242 519 265 542 q 203 465 219 497 q 182 386 188 432 m 482 915 l 563 878 q 479 778 531 814 q 361 743 428 743 q 244 778 296 743 q 160 878 192 814 l 240 915 q 292 842 264 865 q 361 818 321 818 q 410 828 388 818 q 450 860 432 839 q 482 915 468 882 z "},"ě":{"ha":694,"x_min":64,"x_max":624,"o":"m 378 -14 q 251 8 308 -14 q 151 71 193 29 q 86 175 108 113 q 64 317 64 238 q 87 460 64 397 q 150 565 110 522 q 244 631 190 608 q 360 654 299 654 q 463 635 414 654 q 547 579 511 617 q 603 484 582 542 q 624 349 624 426 q 623 322 624 336 q 621 296 622 307 l 178 296 q 198 198 181 239 q 243 131 215 157 q 306 93 271 106 q 382 81 342 81 q 442 88 414 81 q 496 110 471 94 q 542 147 521 125 l 606 86 q 542 30 578 53 q 466 -3 507 7 q 378 -14 425 -14 m 182 386 l 506 386 q 494 460 506 428 q 464 515 483 492 q 416 551 444 539 q 353 563 388 563 q 293 552 321 563 q 242 519 265 542 q 203 465 219 497 q 182 386 188 432 m 204 963 l 358 814 l 513 963 l 574 908 l 378 715 l 339 715 l 143 908 l 204 963 z "},"ḝ":{"ha":694,"x_min":64,"x_max":624,"o":"m 378 -14 q 251 8 308 -14 q 151 71 193 29 q 86 175 108 113 q 64 317 64 238 q 87 460 64 397 q 150 565 110 522 q 244 631 190 608 q 360 654 299 654 q 463 635 414 654 q 547 579 511 617 q 603 484 582 542 q 624 349 624 426 q 623 322 624 336 q 621 296 622 307 l 178 296 q 198 198 181 239 q 243 131 215 157 q 306 93 271 106 q 382 81 342 81 q 442 88 414 81 q 496 110 471 94 q 542 147 521 125 l 606 86 q 542 30 578 53 q 466 -3 507 7 q 378 -14 425 -14 m 182 386 l 506 386 q 494 460 506 428 q 464 515 483 492 q 416 551 444 539 q 353 563 388 563 q 293 552 321 563 q 242 519 265 542 q 203 465 219 497 q 182 386 188 432 m 482 915 l 563 878 q 479 778 531 814 q 361 743 428 743 q 244 778 296 743 q 160 878 192 814 l 240 915 q 292 842 264 865 q 361 818 321 818 q 410 828 388 818 q 450 860 432 839 q 482 915 468 882 z "},"ê":{"ha":694,"x_min":64,"x_max":624,"o":"m 378 -14 q 251 8 308 -14 q 151 71 193 29 q 86 175 108 113 q 64 317 64 238 q 87 460 64 397 q 150 565 110 522 q 244 631 190 608 q 360 654 299 654 q 463 635 414 654 q 547 579 511 617 q 603 484 582 542 q 624 349 624 426 q 623 322 624 336 q 621 296 622 307 l 178 296 q 198 198 181 239 q 243 131 215 157 q 306 93 271 106 q 382 81 342 81 q 442 88 414 81 q 496 110 471 94 q 542 147 521 125 l 606 86 q 542 30 578 53 q 466 -3 507 7 q 378 -14 425 -14 m 182 386 l 506 386 q 494 460 506 428 q 464 515 483 492 q 416 551 444 539 q 353 563 388 563 q 293 552 321 563 q 242 519 265 542 q 203 465 219 497 q 182 386 188 432 m 206 704 l 144 757 l 340 951 l 379 951 l 575 757 l 514 704 l 360 853 l 206 704 z "},"ế":{"ha":694,"x_min":64,"x_max":696,"o":"m 378 -14 q 251 8 308 -14 q 151 71 193 29 q 86 175 108 113 q 64 317 64 238 q 87 460 64 397 q 150 565 110 522 q 244 631 190 608 q 360 654 299 654 q 463 635 414 654 q 547 579 511 617 q 603 484 582 542 q 624 349 624 426 q 623 322 624 336 q 621 296 622 307 l 178 296 q 198 198 181 239 q 243 131 215 157 q 306 93 271 106 q 382 81 342 81 q 442 88 414 81 q 496 110 471 94 q 542 147 521 125 l 606 86 q 542 30 578 53 q 466 -3 507 7 q 378 -14 425 -14 m 182 386 l 506 386 q 494 460 506 428 q 464 515 483 492 q 416 551 444 539 q 353 563 388 563 q 293 552 321 563 q 242 519 265 542 q 203 465 219 497 q 182 386 188 432 z "},"ệ":{"ha":694,"x_min":64,"x_max":624,"o":"m 378 -14 q 251 8 308 -14 q 151 71 193 29 q 86 175 108 113 q 64 317 64 238 q 87 460 64 397 q 150 565 110 522 q 244 631 190 608 q 360 654 299 654 q 463 635 414 654 q 547 579 511 617 q 603 484 582 542 q 624 349 624 426 q 623 322 624 336 q 621 296 622 307 l 178 296 q 198 198 181 239 q 243 131 215 157 q 306 93 271 106 q 382 81 342 81 q 442 88 414 81 q 496 110 471 94 q 542 147 521 125 l 606 86 q 542 30 578 53 q 466 -3 507 7 q 378 -14 425 -14 m 182 386 l 506 386 q 494 460 506 428 q 464 515 483 492 q 416 551 444 539 q 353 563 388 563 q 293 552 321 563 q 242 519 265 542 q 203 465 219 497 q 182 386 188 432 m 206 704 l 144 757 l 340 951 l 379 951 l 575 757 l 514 704 l 360 853 l 206 704 z "},"ề":{"ha":694,"x_min":64,"x_max":624,"o":"m 378 -14 q 251 8 308 -14 q 151 71 193 29 q 86 175 108 113 q 64 317 64 238 q 87 460 64 397 q 150 565 110 522 q 244 631 190 608 q 360 654 299 654 q 463 635 414 654 q 547 579 511 617 q 603 484 582 542 q 624 349 624 426 q 623 322 624 336 q 621 296 622 307 l 178 296 q 198 198 181 239 q 243 131 215 157 q 306 93 271 106 q 382 81 342 81 q 442 88 414 81 q 496 110 471 94 q 542 147 521 125 l 606 86 q 542 30 578 53 q 466 -3 507 7 q 378 -14 425 -14 m 182 386 l 506 386 q 494 460 506 428 q 464 515 483 492 q 416 551 444 539 q 353 563 388 563 q 293 552 321 563 q 242 519 265 542 q 203 465 219 497 q 182 386 188 432 z "},"ể":{"ha":694,"x_min":64,"x_max":664,"o":"m 378 -14 q 251 8 308 -14 q 151 71 193 29 q 86 175 108 113 q 64 317 64 238 q 87 460 64 397 q 150 565 110 522 q 244 631 190 608 q 360 654 299 654 q 463 635 414 654 q 547 579 511 617 q 603 484 582 542 q 624 349 624 426 q 623 322 624 336 q 621 296 622 307 l 178 296 q 198 198 181 239 q 243 131 215 157 q 306 93 271 106 q 382 81 342 81 q 442 88 414 81 q 496 110 471 94 q 542 147 521 125 l 606 86 q 542 30 578 53 q 466 -3 507 7 q 378 -14 425 -14 m 182 386 l 506 386 q 494 460 506 428 q 464 515 483 492 q 416 551 444 539 q 353 563 388 563 q 293 552 321 563 q 242 519 265 542 q 203 465 219 497 q 182 386 188 432 z "},"ễ":{"ha":694,"x_min":64,"x_max":624,"o":"m 378 -14 q 251 8 308 -14 q 151 71 193 29 q 86 175 108 113 q 64 317 64 238 q 87 460 64 397 q 150 565 110 522 q 244 631 190 608 q 360 654 299 654 q 463 635 414 654 q 547 579 511 617 q 603 484 582 542 q 624 349 624 426 q 623 322 624 336 q 621 296 622 307 l 178 296 q 198 198 181 239 q 243 131 215 157 q 306 93 271 106 q 382 81 342 81 q 442 88 414 81 q 496 110 471 94 q 542 147 521 125 l 606 86 q 542 30 578 53 q 466 -3 507 7 q 378 -14 425 -14 m 182 386 l 506 386 q 494 460 506 428 q 464 515 483 492 q 416 551 444 539 q 353 563 388 563 q 293 552 321 563 q 242 519 265 542 q 203 465 219 497 q 182 386 188 432 z "},"ȅ":{"ha":694,"x_min":64,"x_max":624,"o":"m 378 -14 q 251 8 308 -14 q 151 71 193 29 q 86 175 108 113 q 64 317 64 238 q 87 460 64 397 q 150 565 110 522 q 244 631 190 608 q 360 654 299 654 q 463 635 414 654 q 547 579 511 617 q 603 484 582 542 q 624 349 624 426 q 623 322 624 336 q 621 296 622 307 l 178 296 q 198 198 181 239 q 243 131 215 157 q 306 93 271 106 q 382 81 342 81 q 442 88 414 81 q 496 110 471 94 q 542 147 521 125 l 606 86 q 542 30 578 53 q 466 -3 507 7 q 378 -14 425 -14 m 182 386 l 506 386 q 494 460 506 428 q 464 515 483 492 q 416 551 444 539 q 353 563 388 563 q 293 552 321 563 q 242 519 265 542 q 203 465 219 497 q 182 386 188 432 z "},"ë":{"ha":694,"x_min":64,"x_max":624,"o":"m 378 -14 q 251 8 308 -14 q 151 71 193 29 q 86 175 108 113 q 64 317 64 238 q 87 460 64 397 q 150 565 110 522 q 244 631 190 608 q 360 654 299 654 q 463 635 414 654 q 547 579 511 617 q 603 484 582 542 q 624 349 624 426 q 623 322 624 336 q 621 296 622 307 l 178 296 q 198 198 181 239 q 243 131 215 157 q 306 93 271 106 q 382 81 342 81 q 442 88 414 81 q 496 110 471 94 q 542 147 521 125 l 606 86 q 542 30 578 53 q 466 -3 507 7 q 378 -14 425 -14 m 182 386 l 506 386 q 494 460 506 428 q 464 515 483 492 q 416 551 444 539 q 353 563 388 563 q 293 552 321 563 q 242 519 265 542 q 203 465 219 497 q 182 386 188 432 z "},"ė":{"ha":694,"x_min":64,"x_max":624,"o":"m 378 -14 q 251 8 308 -14 q 151 71 193 29 q 86 175 108 113 q 64 317 64 238 q 87 460 64 397 q 150 565 110 522 q 244 631 190 608 q 360 654 299 654 q 463 635 414 654 q 547 579 511 617 q 603 484 582 542 q 624 349 624 426 q 623 322 624 336 q 621 296 622 307 l 178 296 q 198 198 181 239 q 243 131 215 157 q 306 93 271 106 q 382 81 342 81 q 442 88 414 81 q 496 110 471 94 q 542 147 521 125 l 606 86 q 542 30 578 53 q 466 -3 507 7 q 378 -14 425 -14 m 182 386 l 506 386 q 494 460 506 428 q 464 515 483 492 q 416 551 444 539 q 353 563 388 563 q 293 552 321 563 q 242 519 265 542 q 203 465 219 497 q 182 386 188 432 z "},"ẹ":{"ha":694,"x_min":64,"x_max":624,"o":"m 378 -14 q 251 8 308 -14 q 151 71 193 29 q 86 175 108 113 q 64 317 64 238 q 87 460 64 397 q 150 565 110 522 q 244 631 190 608 q 360 654 299 654 q 463 635 414 654 q 547 579 511 617 q 603 484 582 542 q 624 349 624 426 q 623 322 624 336 q 621 296 622 307 l 178 296 q 198 198 181 239 q 243 131 215 157 q 306 93 271 106 q 382 81 342 81 q 442 88 414 81 q 496 110 471 94 q 542 147 521 125 l 606 86 q 542 30 578 53 q 466 -3 507 7 q 378 -14 425 -14 m 182 386 l 506 386 q 494 460 506 428 q 464 515 483 492 q 416 551 444 539 q 353 563 388 563 q 293 552 321 563 q 242 519 265 542 q 203 465 219 497 q 182 386 188 432 z "},"è":{"ha":694,"x_min":64,"x_max":624,"o":"m 378 -14 q 251 8 308 -14 q 151 71 193 29 q 86 175 108 113 q 64 317 64 238 q 87 460 64 397 q 150 565 110 522 q 244 631 190 608 q 360 654 299 654 q 463 635 414 654 q 547 579 511 617 q 603 484 582 542 q 624 349 624 426 q 623 322 624 336 q 621 296 622 307 l 178 296 q 198 198 181 239 q 243 131 215 157 q 306 93 271 106 q 382 81 342 81 q 442 88 414 81 q 496 110 471 94 q 542 147 521 125 l 606 86 q 542 30 578 53 q 466 -3 507 7 q 378 -14 425 -14 m 182 386 l 506 386 q 494 460 506 428 q 464 515 483 492 q 416 551 444 539 q 353 563 388 563 q 293 552 321 563 q 242 519 265 542 q 203 465 219 497 q 182 386 188 432 z "},"ẻ":{"ha":694,"x_min":64,"x_max":624,"o":"m 378 -14 q 251 8 308 -14 q 151 71 193 29 q 86 175 108 113 q 64 317 64 238 q 87 460 64 397 q 150 565 110 522 q 244 631 190 608 q 360 654 299 654 q 463 635 414 654 q 547 579 511 617 q 603 484 582 542 q 624 349 624 426 q 623 322 624 336 q 621 296 622 307 l 178 296 q 198 198 181 239 q 243 131 215 157 q 306 93 271 106 q 382 81 342 81 q 442 88 414 81 q 496 110 471 94 q 542 147 521 125 l 606 86 q 542 30 578 53 q 466 -3 507 7 q 378 -14 425 -14 m 182 386 l 506 386 q 494 460 506 428 q 464 515 483 492 q 416 551 444 539 q 353 563 388 563 q 293 552 321 563 q 242 519 265 542 q 203 465 219 497 q 182 386 188 432 m 490 879 q 478 833 490 850 q 449 803 465 815 q 420 775 433 790 q 407 735 407 760 l 407 724 l 328 724 l 328 763 q 340 797 328 782 q 367 825 351 813 q 394 850 382 838 q 406 875 406 863 q 393 905 406 894 q 361 915 381 915 q 322 906 340 915 q 294 868 304 897 l 242 928 q 299 975 267 961 q 368 989 331 989 q 431 974 403 988 q 474 937 458 961 q 490 879 490 913 z "},"ȇ":{"ha":694,"x_min":64,"x_max":624,"o":"m 378 -14 q 251 8 308 -14 q 151 71 193 29 q 86 175 108 113 q 64 317 64 238 q 87 460 64 397 q 150 565 110 522 q 244 631 190 608 q 360 654 299 654 q 463 635 414 654 q 547 579 511 617 q 603 484 582 542 q 624 349 624 426 q 623 322 624 336 q 621 296 622 307 l 178 296 q 198 198 181 239 q 243 131 215 157 q 306 93 271 106 q 382 81 342 81 q 442 88 414 81 q 496 110 471 94 q 542 147 521 125 l 606 86 q 542 30 578 53 q 466 -3 507 7 q 378 -14 425 -14 m 182 386 l 506 386 q 494 460 506 428 q 464 515 483 492 q 416 551 444 539 q 353 563 388 563 q 293 552 321 563 q 242 519 265 542 q 203 465 219 497 q 182 386 188 432 m 239 729 l 158 767 q 243 866 192 831 q 360 901 294 901 q 478 866 426 901 q 561 767 531 831 l 481 729 q 429 803 458 779 q 360 826 400 826 q 312 816 333 826 q 272 785 290 806 q 239 729 254 764 z "},"ē":{"ha":694,"x_min":64,"x_max":624,"o":"m 378 -14 q 251 8 308 -14 q 151 71 193 29 q 86 175 108 113 q 64 317 64 238 q 87 460 64 397 q 150 565 110 522 q 244 631 190 608 q 360 654 299 654 q 463 635 414 654 q 547 579 511 617 q 603 484 582 542 q 624 349 624 426 q 623 322 624 336 q 621 296 622 307 l 178 296 q 198 198 181 239 q 243 131 215 157 q 306 93 271 106 q 382 81 342 81 q 442 88 414 81 q 496 110 471 94 q 542 147 521 125 l 606 86 q 542 30 578 53 q 466 -3 507 7 q 378 -14 425 -14 m 182 386 l 506 386 q 494 460 506 428 q 464 515 483 492 q 416 551 444 539 q 353 563 388 563 q 293 552 321 563 q 242 519 265 542 q 203 465 219 497 q 182 386 188 432 z "},"ḗ":{"ha":694,"x_min":64,"x_max":624,"o":"m 378 -14 q 251 8 308 -14 q 151 71 193 29 q 86 175 108 113 q 64 317 64 238 q 87 460 64 397 q 150 565 110 522 q 244 631 190 608 q 360 654 299 654 q 463 635 414 654 q 547 579 511 617 q 603 484 582 542 q 624 349 624 426 q 623 322 624 336 q 621 296 622 307 l 178 296 q 198 198 181 239 q 243 131 215 157 q 306 93 271 106 q 382 81 342 81 q 442 88 414 81 q 496 110 471 94 q 542 147 521 125 l 606 86 q 542 30 578 53 q 466 -3 507 7 q 378 -14 425 -14 m 182 386 l 506 386 q 494 460 506 428 q 464 515 483 492 q 416 551 444 539 q 353 563 388 563 q 293 552 321 563 q 242 519 265 542 q 203 465 219 497 q 182 386 188 432 z "},"ḕ":{"ha":694,"x_min":64,"x_max":624,"o":"m 378 -14 q 251 8 308 -14 q 151 71 193 29 q 86 175 108 113 q 64 317 64 238 q 87 460 64 397 q 150 565 110 522 q 244 631 190 608 q 360 654 299 654 q 463 635 414 654 q 547 579 511 617 q 603 484 582 542 q 624 349 624 426 q 623 322 624 336 q 621 296 622 307 l 178 296 q 198 198 181 239 q 243 131 215 157 q 306 93 271 106 q 382 81 342 81 q 442 88 414 81 q 496 110 471 94 q 542 147 521 125 l 606 86 q 542 30 578 53 q 466 -3 507 7 q 378 -14 425 -14 m 182 386 l 506 386 q 494 460 506 428 q 464 515 483 492 q 416 551 444 539 q 353 563 388 563 q 293 552 321 563 q 242 519 265 542 q 203 465 219 497 q 182 386 188 432 z "},"ę":{"ha":694,"x_min":64,"x_max":624,"o":"m 378 -14 q 251 8 308 -14 q 151 71 193 29 q 86 175 108 113 q 64 317 64 238 q 87 460 64 397 q 150 565 110 522 q 244 631 190 608 q 360 654 299 654 q 463 635 414 654 q 547 579 511 617 q 603 484 582 542 q 624 349 624 426 q 623 322 624 336 q 621 296 622 307 l 178 296 q 198 198 181 239 q 243 131 215 157 q 306 93 271 106 q 382 81 342 81 q 442 88 414 81 q 496 110 471 94 q 542 147 521 125 l 606 86 q 542 30 578 53 q 466 -3 507 7 q 378 -14 425 -14 m 182 386 l 506 386 q 494 460 506 428 q 464 515 483 492 q 416 551 444 539 q 353 563 388 563 q 293 552 321 563 q 242 519 265 542 q 203 465 219 497 q 182 386 188 432 m 508 -214 l 474 -300 q 385 -271 422 -289 q 328 -226 349 -253 q 308 -164 308 -199 q 328 -91 308 -128 q 388 -19 349 -54 q 485 49 428 17 l 528 21 q 470 -34 494 -6 q 433 -89 446 -62 q 421 -137 421 -115 q 442 -185 421 -165 q 508 -214 464 -206 z "},"ʚ":{"ha":694,"x_min":56,"x_max":636,"o":"m 325 -15 q 181 13 242 -14 q 88 88 119 40 q 56 192 56 135 q 71 263 56 232 q 113 315 86 293 q 176 347 139 338 q 112 407 133 372 q 90 483 90 442 q 121 569 90 531 q 206 631 151 608 q 332 654 261 654 q 494 612 426 654 q 599 494 563 569 q 636 319 636 419 q 599 144 636 221 q 490 26 561 68 q 325 -15 419 -15 m 326 82 q 428 110 386 82 q 493 190 471 138 q 515 321 515 243 q 495 444 515 392 q 434 526 475 497 q 335 556 393 556 q 266 544 293 556 q 226 513 239 532 q 213 467 213 493 q 224 426 213 444 q 260 396 235 407 q 331 385 286 385 q 351 385 342 385 q 372 388 361 386 l 372 286 q 353 288 361 288 q 337 290 344 289 q 318 290 329 290 q 259 284 285 290 q 215 265 233 278 q 188 234 197 251 q 178 192 178 217 q 197 136 178 161 q 249 97 215 111 q 326 82 282 82 z "},"ẽ":{"ha":694,"x_min":64,"x_max":624,"o":"m 378 -14 q 251 8 308 -14 q 151 71 193 29 q 86 175 108 113 q 64 317 64 238 q 87 460 64 397 q 150 565 110 522 q 244 631 190 608 q 360 654 299 654 q 463 635 414 654 q 547 579 511 617 q 603 484 582 542 q 624 349 624 426 q 623 322 624 336 q 621 296 622 307 l 178 296 q 198 198 181 239 q 243 131 215 157 q 306 93 271 106 q 382 81 342 81 q 442 88 414 81 q 496 110 471 94 q 542 147 521 125 l 606 86 q 542 30 578 53 q 466 -3 507 7 q 378 -14 425 -14 m 182 386 l 506 386 q 494 460 506 428 q 464 515 483 492 q 416 551 444 539 q 353 563 388 563 q 293 552 321 563 q 242 519 265 542 q 203 465 219 497 q 182 386 188 432 m 528 936 l 597 896 q 538 813 568 838 q 467 789 508 789 q 407 801 432 789 q 363 828 382 813 q 324 856 343 844 q 283 868 306 868 q 241 853 260 868 q 207 801 222 838 l 132 836 q 189 919 153 888 q 279 950 225 950 q 335 938 311 950 q 378 911 358 926 q 417 884 397 896 q 460 872 436 872 q 496 886 482 872 q 528 936 510 900 z "},"ə":{"ha":694,"x_min":71,"x_max":631,"o":"m 317 653 q 444 631 386 653 q 544 567 501 610 q 608 463 586 525 q 631 322 631 401 q 608 178 631 242 q 544 73 585 115 q 451 8 504 31 q 335 -15 397 -15 q 232 3 281 -15 q 148 60 183 22 q 92 155 113 97 q 71 290 71 213 q 72 317 71 303 q 74 343 72 332 l 517 343 q 497 440 514 399 q 451 507 479 481 q 388 546 424 533 q 313 558 353 558 q 253 551 282 558 q 199 529 224 544 q 153 490 175 514 l 89 553 q 153 610 118 588 q 228 642 188 632 q 317 653 269 653 m 513 253 l 189 253 q 200 178 189 211 q 231 123 211 146 q 278 88 250 100 q 342 76 307 76 q 401 87 374 76 q 452 119 429 97 q 491 174 475 140 q 513 253 507 207 z "},"ƹ":{"ha":694,"x_min":108,"x_max":628,"o":"m 393 -247 q 238 -211 301 -247 q 142 -117 175 -175 q 108 11 108 -58 q 131 124 108 72 q 193 214 153 175 q 290 274 233 253 q 413 296 346 296 l 489 296 l 489 206 q 376 198 425 208 q 294 165 326 188 q 244 105 261 142 q 228 19 228 68 q 249 -69 228 -32 q 310 -126 271 -107 q 403 -146 349 -146 q 474 -135 444 -146 q 528 -101 503 -124 q 547 -73 542 -82 q 550 -53 551 -64 l 557 -44 l 567 -53 l 628 -143 q 523 -221 582 -194 q 393 -247 464 -247 l 393 -247 m 133 540 l 133 638 l 576 638 l 576 535 l 268 535 l 489 296 l 383 278 l 133 540 z "},"f":{"ha":694,"x_min":76,"x_max":664,"o":"m 214 544 l 76 544 l 76 639 l 214 639 l 214 686 q 247 827 214 772 q 335 908 279 882 q 458 935 390 935 q 574 913 521 935 q 664 847 628 892 l 608 763 l 601 751 l 592 757 q 585 779 589 768 q 565 806 581 790 q 519 833 542 825 q 464 840 497 840 q 394 825 425 840 q 347 776 364 810 q 331 688 331 743 l 331 639 l 533 639 l 533 544 l 331 544 l 331 0 l 214 0 l 214 544 z "},"g":{"ha":694,"x_min":49,"x_max":664,"o":"m 339 -242 q 218 -231 272 -242 q 126 -199 164 -219 q 69 -147 89 -178 q 49 -76 49 -117 q 65 -9 49 -39 q 109 42 82 21 q 169 74 136 63 l 221 47 q 181 17 197 32 q 158 -16 165 3 q 150 -61 150 -35 q 164 -99 150 -82 q 203 -128 178 -117 q 264 -145 228 -139 q 344 -151 300 -151 q 443 -140 404 -151 q 501 -106 482 -128 q 521 -58 521 -85 q 510 -13 521 -31 q 465 13 499 4 q 368 21 432 21 q 279 25 321 21 q 203 39 238 29 q 146 63 169 49 q 109 100 122 78 q 96 151 96 122 q 119 224 96 190 q 178 288 142 257 l 233 249 q 210 223 219 233 q 197 203 201 213 q 193 181 193 193 q 212 147 193 160 q 276 128 231 135 q 396 122 321 122 q 510 110 465 122 q 579 74 554 97 q 615 22 604 51 q 625 -43 625 -8 q 609 -117 625 -82 q 559 -181 593 -153 q 471 -225 525 -208 q 339 -242 417 -242 m 315 217 q 196 246 247 217 q 116 326 144 275 q 88 439 88 376 q 116 550 88 500 q 196 631 144 600 q 315 661 247 661 q 435 631 385 661 q 515 550 486 600 q 543 439 543 500 q 515 326 543 376 q 435 246 486 275 q 315 217 385 217 m 315 310 q 381 327 353 310 q 427 374 410 344 q 444 439 444 403 q 427 503 444 475 q 381 549 410 532 q 315 567 353 567 q 250 549 279 567 q 204 503 221 532 q 188 439 188 474 q 204 374 188 404 q 250 327 221 344 q 315 310 279 310 m 506 531 l 460 586 q 546 642 500 624 q 650 656 592 660 l 664 564 q 579 563 619 569 q 506 531 539 556 z "},"ğ":{"ha":694,"x_min":49,"x_max":664,"o":"m 339 -242 q 218 -231 272 -242 q 126 -199 164 -219 q 69 -147 89 -178 q 49 -76 49 -117 q 65 -9 49 -39 q 109 42 82 21 q 169 74 136 63 l 221 47 q 181 17 197 32 q 158 -16 165 3 q 150 -61 150 -35 q 164 -99 150 -82 q 203 -128 178 -117 q 264 -145 228 -139 q 344 -151 300 -151 q 443 -140 404 -151 q 501 -106 482 -128 q 521 -58 521 -85 q 510 -13 521 -31 q 465 13 499 4 q 368 21 432 21 q 279 25 321 21 q 203 39 238 29 q 146 63 169 49 q 109 100 122 78 q 96 151 96 122 q 119 224 96 190 q 178 288 142 257 l 233 249 q 210 223 219 233 q 197 203 201 213 q 193 181 193 193 q 212 147 193 160 q 276 128 231 135 q 396 122 321 122 q 510 110 465 122 q 579 74 554 97 q 615 22 604 51 q 625 -43 625 -8 q 609 -117 625 -82 q 559 -181 593 -153 q 471 -225 525 -208 q 339 -242 417 -242 m 315 217 q 196 246 247 217 q 116 326 144 275 q 88 439 88 376 q 116 550 88 500 q 196 631 144 600 q 315 661 247 661 q 435 631 385 661 q 515 550 486 600 q 543 439 543 500 q 515 326 543 376 q 435 246 486 275 q 315 217 385 217 m 315 310 q 381 327 353 310 q 427 374 410 344 q 444 439 444 403 q 427 503 444 475 q 381 549 410 532 q 315 567 353 567 q 250 549 279 567 q 204 503 221 532 q 188 439 188 474 q 204 374 188 404 q 250 327 221 344 q 315 310 279 310 m 506 531 l 460 586 q 546 642 500 624 q 650 656 592 660 l 664 564 q 579 563 619 569 q 506 531 539 556 m 361 725 q 249 752 303 725 q 146 835 194 779 l 207 911 q 275 839 235 865 q 361 813 315 813 q 444 836 403 813 q 522 911 485 860 l 571 839 q 509 778 543 804 q 438 739 475 753 q 361 725 400 725 z "},"ǧ":{"ha":694,"x_min":49,"x_max":664,"o":"m 339 -242 q 218 -231 272 -242 q 126 -199 164 -219 q 69 -147 89 -178 q 49 -76 49 -117 q 65 -9 49 -39 q 109 42 82 21 q 169 74 136 63 l 221 47 q 181 17 197 32 q 158 -16 165 3 q 150 -61 150 -35 q 164 -99 150 -82 q 203 -128 178 -117 q 264 -145 228 -139 q 344 -151 300 -151 q 443 -140 404 -151 q 501 -106 482 -128 q 521 -58 521 -85 q 510 -13 521 -31 q 465 13 499 4 q 368 21 432 21 q 279 25 321 21 q 203 39 238 29 q 146 63 169 49 q 109 100 122 78 q 96 151 96 122 q 119 224 96 190 q 178 288 142 257 l 233 249 q 210 223 219 233 q 197 203 201 213 q 193 181 193 193 q 212 147 193 160 q 276 128 231 135 q 396 122 321 122 q 510 110 465 122 q 579 74 554 97 q 615 22 604 51 q 625 -43 625 -8 q 609 -117 625 -82 q 559 -181 593 -153 q 471 -225 525 -208 q 339 -242 417 -242 m 315 217 q 196 246 247 217 q 116 326 144 275 q 88 439 88 376 q 116 550 88 500 q 196 631 144 600 q 315 661 247 661 q 435 631 385 661 q 515 550 486 600 q 543 439 543 500 q 515 326 543 376 q 435 246 486 275 q 315 217 385 217 m 315 310 q 381 327 353 310 q 427 374 410 344 q 444 439 444 403 q 427 503 444 475 q 381 549 410 532 q 315 567 353 567 q 250 549 279 567 q 204 503 221 532 q 188 439 188 474 q 204 374 188 404 q 250 327 221 344 q 315 310 279 310 m 506 531 l 460 586 q 546 642 500 624 q 650 656 592 660 l 664 564 q 579 563 619 569 q 506 531 539 556 m 160 963 l 314 814 l 468 963 l 529 908 l 333 715 l 294 715 l 99 908 l 160 963 z "},"ĝ":{"ha":694,"x_min":49,"x_max":664,"o":"m 339 -242 q 218 -231 272 -242 q 126 -199 164 -219 q 69 -147 89 -178 q 49 -76 49 -117 q 65 -9 49 -39 q 109 42 82 21 q 169 74 136 63 l 221 47 q 181 17 197 32 q 158 -16 165 3 q 150 -61 150 -35 q 164 -99 150 -82 q 203 -128 178 -117 q 264 -145 228 -139 q 344 -151 300 -151 q 443 -140 404 -151 q 501 -106 482 -128 q 521 -58 521 -85 q 510 -13 521 -31 q 465 13 499 4 q 368 21 432 21 q 279 25 321 21 q 203 39 238 29 q 146 63 169 49 q 109 100 122 78 q 96 151 96 122 q 119 224 96 190 q 178 288 142 257 l 233 249 q 210 223 219 233 q 197 203 201 213 q 193 181 193 193 q 212 147 193 160 q 276 128 231 135 q 396 122 321 122 q 510 110 465 122 q 579 74 554 97 q 615 22 604 51 q 625 -43 625 -8 q 609 -117 625 -82 q 559 -181 593 -153 q 471 -225 525 -208 q 339 -242 417 -242 m 315 217 q 196 246 247 217 q 116 326 144 275 q 88 439 88 376 q 116 550 88 500 q 196 631 144 600 q 315 661 247 661 q 435 631 385 661 q 515 550 486 600 q 543 439 543 500 q 515 326 543 376 q 435 246 486 275 q 315 217 385 217 m 315 310 q 381 327 353 310 q 427 374 410 344 q 444 439 444 403 q 427 503 444 475 q 381 549 410 532 q 315 567 353 567 q 250 549 279 567 q 204 503 221 532 q 188 439 188 474 q 204 374 188 404 q 250 327 221 344 q 315 310 279 310 m 506 531 l 460 586 q 546 642 500 624 q 650 656 592 660 l 664 564 q 579 563 619 569 q 506 531 539 556 m 161 704 l 100 757 l 296 951 l 335 951 l 531 757 l 469 704 l 315 853 l 161 704 z "},"ģ":{"ha":694,"x_min":49,"x_max":664,"o":"m 339 -242 q 218 -231 272 -242 q 126 -199 164 -219 q 69 -147 89 -178 q 49 -76 49 -117 q 65 -9 49 -39 q 109 42 82 21 q 169 74 136 63 l 221 47 q 181 17 197 32 q 158 -16 165 3 q 150 -61 150 -35 q 164 -99 150 -82 q 203 -128 178 -117 q 264 -145 228 -139 q 344 -151 300 -151 q 443 -140 404 -151 q 501 -106 482 -128 q 521 -58 521 -85 q 510 -13 521 -31 q 465 13 499 4 q 368 21 432 21 q 279 25 321 21 q 203 39 238 29 q 146 63 169 49 q 109 100 122 78 q 96 151 96 122 q 119 224 96 190 q 178 288 142 257 l 233 249 q 210 223 219 233 q 197 203 201 213 q 193 181 193 193 q 212 147 193 160 q 276 128 231 135 q 396 122 321 122 q 510 110 465 122 q 579 74 554 97 q 615 22 604 51 q 625 -43 625 -8 q 609 -117 625 -82 q 559 -181 593 -153 q 471 -225 525 -208 q 339 -242 417 -242 m 315 217 q 196 246 247 217 q 116 326 144 275 q 88 439 88 376 q 116 550 88 500 q 196 631 144 600 q 315 661 247 661 q 435 631 385 661 q 515 550 486 600 q 543 439 543 500 q 515 326 543 376 q 435 246 486 275 q 315 217 385 217 m 315 310 q 381 327 353 310 q 427 374 410 344 q 444 439 444 403 q 427 503 444 475 q 381 549 410 532 q 315 567 353 567 q 250 549 279 567 q 204 503 221 532 q 188 439 188 474 q 204 374 188 404 q 250 327 221 344 q 315 310 279 310 m 506 531 l 460 586 q 546 642 500 624 q 650 656 592 660 l 664 564 q 579 563 619 569 q 506 531 539 556 m 361 1131 l 421 1079 q 358 1003 382 1043 q 335 938 335 964 q 344 911 335 924 q 369 887 354 899 q 393 860 383 875 q 403 824 403 844 q 377 760 403 785 q 313 736 351 736 q 241 771 271 736 q 211 860 211 806 q 220 920 211 889 q 248 985 229 951 q 295 1056 267 1019 q 361 1131 324 1092 z "},"ġ":{"ha":694,"x_min":49,"x_max":664,"o":"m 339 -242 q 218 -231 272 -242 q 126 -199 164 -219 q 69 -147 89 -178 q 49 -76 49 -117 q 65 -9 49 -39 q 109 42 82 21 q 169 74 136 63 l 221 47 q 181 17 197 32 q 158 -16 165 3 q 150 -61 150 -35 q 164 -99 150 -82 q 203 -128 178 -117 q 264 -145 228 -139 q 344 -151 300 -151 q 443 -140 404 -151 q 501 -106 482 -128 q 521 -58 521 -85 q 510 -13 521 -31 q 465 13 499 4 q 368 21 432 21 q 279 25 321 21 q 203 39 238 29 q 146 63 169 49 q 109 100 122 78 q 96 151 96 122 q 119 224 96 190 q 178 288 142 257 l 233 249 q 210 223 219 233 q 197 203 201 213 q 193 181 193 193 q 212 147 193 160 q 276 128 231 135 q 396 122 321 122 q 510 110 465 122 q 579 74 554 97 q 615 22 604 51 q 625 -43 625 -8 q 609 -117 625 -82 q 559 -181 593 -153 q 471 -225 525 -208 q 339 -242 417 -242 m 315 217 q 196 246 247 217 q 116 326 144 275 q 88 439 88 376 q 116 550 88 500 q 196 631 144 600 q 315 661 247 661 q 435 631 385 661 q 515 550 486 600 q 543 439 543 500 q 515 326 543 376 q 435 246 486 275 q 315 217 385 217 m 315 310 q 381 327 353 310 q 427 374 410 344 q 444 439 444 403 q 427 503 444 475 q 381 549 410 532 q 315 567 353 567 q 250 549 279 567 q 204 503 221 532 q 188 439 188 474 q 204 374 188 404 q 250 327 221 344 q 315 310 279 310 m 506 531 l 460 586 q 546 642 500 624 q 650 656 592 660 l 664 564 q 579 563 619 569 q 506 531 539 556 z "},"ḡ":{"ha":694,"x_min":49,"x_max":664,"o":"m 339 -242 q 218 -231 272 -242 q 126 -199 164 -219 q 69 -147 89 -178 q 49 -76 49 -117 q 65 -9 49 -39 q 109 42 82 21 q 169 74 136 63 l 221 47 q 181 17 197 32 q 158 -16 165 3 q 150 -61 150 -35 q 164 -99 150 -82 q 203 -128 178 -117 q 264 -145 228 -139 q 344 -151 300 -151 q 443 -140 404 -151 q 501 -106 482 -128 q 521 -58 521 -85 q 510 -13 521 -31 q 465 13 499 4 q 368 21 432 21 q 279 25 321 21 q 203 39 238 29 q 146 63 169 49 q 109 100 122 78 q 96 151 96 122 q 119 224 96 190 q 178 288 142 257 l 233 249 q 210 223 219 233 q 197 203 201 213 q 193 181 193 193 q 212 147 193 160 q 276 128 231 135 q 396 122 321 122 q 510 110 465 122 q 579 74 554 97 q 615 22 604 51 q 625 -43 625 -8 q 609 -117 625 -82 q 559 -181 593 -153 q 471 -225 525 -208 q 339 -242 417 -242 m 315 217 q 196 246 247 217 q 116 326 144 275 q 88 439 88 376 q 116 550 88 500 q 196 631 144 600 q 315 661 247 661 q 435 631 385 661 q 515 550 486 600 q 543 439 543 500 q 515 326 543 376 q 435 246 486 275 q 315 217 385 217 m 315 310 q 381 327 353 310 q 427 374 410 344 q 444 439 444 403 q 427 503 444 475 q 381 549 410 532 q 315 567 353 567 q 250 549 279 567 q 204 503 221 532 q 188 439 188 474 q 204 374 188 404 q 250 327 221 344 q 315 310 279 310 m 506 531 l 460 586 q 546 642 500 624 q 650 656 592 660 l 664 564 q 579 563 619 569 q 506 531 539 556 z "},"h":{"ha":694,"x_min":93,"x_max":610,"o":"m 93 926 l 210 926 l 222 926 l 222 915 q 213 897 215 907 q 211 864 211 888 l 211 535 q 268 599 235 572 q 338 640 301 625 q 413 654 375 654 q 516 627 471 654 q 585 541 561 600 q 610 386 610 482 l 610 0 l 493 0 l 493 383 q 479 485 493 447 q 441 539 465 522 q 385 556 417 556 q 335 547 360 556 q 288 523 310 539 q 248 484 265 507 q 221 432 231 461 q 211 367 211 403 l 211 0 l 93 0 l 93 926 z "},"ħ":{"ha":694,"x_min":-1,"x_max":610,"o":"m 93 926 l 210 926 l 222 926 l 222 915 q 213 897 215 907 q 211 864 211 888 l 211 535 q 268 599 235 572 q 338 640 301 625 q 413 654 375 654 q 516 627 471 654 q 585 541 561 600 q 610 386 610 482 l 610 0 l 493 0 l 493 383 q 479 485 493 447 q 441 539 465 522 q 385 556 417 556 q 335 547 360 556 q 288 523 310 539 q 248 484 265 507 q 221 432 231 461 q 211 367 211 403 l 211 0 l 93 0 l 93 926 m -1 722 l -1 807 l 375 807 l 375 722 l -1 722 z "},"ḫ":{"ha":694,"x_min":93,"x_max":610,"o":"m 93 926 l 210 926 l 222 926 l 222 915 q 213 897 215 907 q 211 864 211 888 l 211 535 q 268 599 235 572 q 338 640 301 625 q 413 654 375 654 q 516 627 471 654 q 585 541 561 600 q 610 386 610 482 l 610 0 l 493 0 l 493 383 q 479 485 493 447 q 441 539 465 522 q 385 556 417 556 q 335 547 360 556 q 288 523 310 539 q 248 484 265 507 q 221 432 231 461 q 211 367 211 403 l 211 0 l 93 0 l 93 926 z "},"ĥ":{"ha":694,"x_min":-64,"x_max":610,"o":"m 93 926 l 210 926 l 222 926 l 222 915 q 213 897 215 907 q 211 864 211 888 l 211 535 q 268 599 235 572 q 338 640 301 625 q 413 654 375 654 q 516 627 471 654 q 585 541 561 600 q 610 386 610 482 l 610 0 l 493 0 l 493 383 q 479 485 493 447 q 441 539 465 522 q 385 556 417 556 q 335 547 360 556 q 288 523 310 539 q 248 484 265 507 q 221 432 231 461 q 211 367 211 403 l 211 0 l 93 0 l 93 926 m -17 968 l -64 1029 l 143 1164 l 178 1164 l 392 1029 l 346 969 l 163 1064 l -17 968 z "},"ḥ":{"ha":694,"x_min":93,"x_max":610,"o":"m 93 926 l 210 926 l 222 926 l 222 915 q 213 897 215 907 q 211 864 211 888 l 211 535 q 268 599 235 572 q 338 640 301 625 q 413 654 375 654 q 516 627 471 654 q 585 541 561 600 q 610 386 610 482 l 610 0 l 493 0 l 493 383 q 479 485 493 447 q 441 539 465 522 q 385 556 417 556 q 335 547 360 556 q 288 523 310 539 q 248 484 265 507 q 221 432 231 461 q 211 367 211 403 l 211 0 l 93 0 l 93 926 z "},"i":{"ha":694,"x_min":132,"x_max":560,"o":"m 132 0 l 132 94 l 293 94 l 293 543 l 140 543 l 140 639 l 413 639 l 413 94 l 560 94 l 560 0 l 132 0 z "},"ı":{"ha":694,"x_min":132,"x_max":560,"o":"m 132 0 l 132 94 l 293 94 l 293 543 l 140 543 l 140 639 l 413 639 l 413 94 l 560 94 l 560 0 l 132 0 z "},"í":{"ha":694,"x_min":132,"x_max":560,"o":"m 132 0 l 132 94 l 293 94 l 293 543 l 140 543 l 140 639 l 413 639 l 413 94 l 560 94 l 560 0 l 132 0 m 343 719 l 283 758 l 400 974 l 488 910 l 343 719 z "},"ĭ":{"ha":694,"x_min":132,"x_max":560,"o":"m 132 0 l 132 94 l 293 94 l 293 543 l 140 543 l 140 639 l 413 639 l 413 94 l 560 94 l 560 0 l 132 0 m 468 915 l 549 878 q 465 778 517 814 q 347 743 414 743 q 230 778 282 743 q 146 878 178 814 l 226 915 q 278 842 250 865 q 347 818 307 818 q 396 828 374 818 q 436 860 418 839 q 468 915 454 882 z "},"î":{"ha":694,"x_min":131,"x_max":563,"o":"m 132 0 l 132 94 l 293 94 l 293 543 l 140 543 l 140 639 l 413 639 l 413 94 l 560 94 l 560 0 l 132 0 m 193 704 l 132 757 l 328 951 l 367 951 l 563 757 l 501 704 l 347 853 l 193 704 z "},"ȉ":{"ha":694,"x_min":103,"x_max":560,"o":"m 132 0 l 132 94 l 293 94 l 293 543 l 140 543 l 140 639 l 413 639 l 413 94 l 560 94 l 560 0 l 132 0 z "},"ï":{"ha":694,"x_min":132,"x_max":560,"o":"m 132 0 l 132 94 l 293 94 l 293 543 l 140 543 l 140 639 l 413 639 l 413 94 l 560 94 l 560 0 l 132 0 m 214 776 q 158 799 182 776 q 135 851 135 821 q 158 906 135 882 q 214 929 182 929 q 269 906 246 929 q 292 851 292 883 q 268 799 292 821 q 214 776 244 776 m 464 776 q 409 798 432 776 q 386 851 386 819 q 409 906 386 883 q 464 929 432 929 q 518 906 496 929 q 540 851 540 882 q 517 799 540 821 q 464 776 494 776 z "},"ḯ":{"ha":694,"x_min":132,"x_max":560,"o":"m 132 0 l 132 94 l 293 94 l 293 543 l 140 543 l 140 639 l 413 639 l 413 94 l 560 94 l 560 0 l 132 0 z "},"ị":{"ha":694,"x_min":132,"x_max":560,"o":"m 132 0 l 132 94 l 293 94 l 293 543 l 140 543 l 140 639 l 413 639 l 413 94 l 560 94 l 560 0 l 132 0 z "},"ì":{"ha":694,"x_min":132,"x_max":560,"o":"m 132 0 l 132 94 l 293 94 l 293 543 l 140 543 l 140 639 l 413 639 l 413 94 l 560 94 l 560 0 l 132 0 z "},"ỉ":{"ha":694,"x_min":132,"x_max":560,"o":"m 132 0 l 132 94 l 293 94 l 293 543 l 140 543 l 140 639 l 413 639 l 413 94 l 560 94 l 560 0 l 132 0 m 478 879 q 465 833 478 850 q 437 803 453 815 q 408 775 421 790 q 394 735 394 760 l 394 724 l 315 724 l 315 763 q 327 797 315 782 q 354 825 339 813 q 381 850 369 838 q 393 875 393 863 q 381 905 393 894 q 349 915 368 915 q 310 906 328 915 q 282 868 292 897 l 229 928 q 286 975 254 961 q 356 989 318 989 q 418 974 390 988 q 462 937 446 961 q 478 879 478 913 z "},"ȋ":{"ha":694,"x_min":132,"x_max":560,"o":"m 132 0 l 132 94 l 293 94 l 293 543 l 140 543 l 140 639 l 413 639 l 413 94 l 560 94 l 560 0 l 132 0 m 226 729 l 146 767 q 231 866 179 831 q 347 901 282 901 q 466 866 414 901 q 549 767 518 831 l 468 729 q 417 803 446 779 q 347 826 388 826 q 299 816 321 826 q 260 785 278 806 q 226 729 242 764 z "},"ī":{"ha":694,"x_min":132,"x_max":560,"o":"m 132 0 l 132 94 l 293 94 l 293 543 l 140 543 l 140 639 l 413 639 l 413 94 l 560 94 l 560 0 l 132 0 z "},"į":{"ha":694,"x_min":132,"x_max":561,"o":"m 132 0 l 132 94 l 293 94 l 293 543 l 140 543 l 140 639 l 413 639 l 413 94 l 560 94 l 560 0 l 132 0 m 542 -235 l 507 -321 q 419 -292 456 -310 q 362 -247 382 -274 q 342 -185 342 -219 q 362 -112 342 -149 q 422 -40 382 -75 q 518 28 461 -4 l 561 0 q 503 -55 528 -26 q 467 -110 479 -83 q 454 -158 454 -136 q 476 -206 454 -186 q 542 -235 497 -226 z "},"ĩ":{"ha":694,"x_min":132,"x_max":560,"o":"m 132 0 l 132 94 l 293 94 l 293 543 l 140 543 l 140 639 l 413 639 l 413 94 l 560 94 l 560 0 l 132 0 m 479 932 l 549 899 q 494 818 522 842 q 429 794 465 794 q 381 806 403 794 q 342 831 360 817 q 309 857 325 846 q 276 868 293 868 q 242 853 258 868 q 215 811 226 839 l 146 844 q 197 921 163 892 q 267 950 232 950 q 316 939 293 950 q 358 913 339 928 q 394 886 378 897 q 426 875 411 875 q 454 888 442 875 q 479 932 467 901 z "},"j":{"ha":694,"x_min":61,"x_max":531,"o":"m 268 -243 q 153 -219 207 -243 q 61 -150 99 -196 l 126 -62 l 135 -51 l 143 -58 q 150 -80 146 -69 q 169 -107 154 -90 q 212 -132 188 -122 q 267 -142 236 -142 q 336 -124 307 -142 q 381 -70 365 -107 q 397 25 397 -33 l 397 543 l 165 543 l 165 639 l 518 639 l 518 33 q 483 -125 518 -64 q 392 -215 449 -186 q 268 -243 336 -243 l 268 -243 z "},"ȷ":{"ha":694,"x_min":61,"x_max":518,"o":"m 268 -243 q 153 -219 207 -243 q 61 -150 99 -196 l 126 -62 l 135 -51 l 143 -58 q 150 -80 146 -69 q 169 -107 154 -90 q 212 -132 188 -122 q 267 -142 236 -142 q 336 -124 307 -142 q 381 -70 365 -107 q 397 25 397 -33 l 397 543 l 165 543 l 165 639 l 518 639 l 518 33 q 483 -125 518 -64 q 392 -215 449 -186 q 268 -243 336 -243 l 268 -243 z "},"ĵ":{"ha":694,"x_min":61,"x_max":665,"o":"m 268 -243 q 153 -219 207 -243 q 61 -150 99 -196 l 126 -62 l 135 -51 l 143 -58 q 150 -80 146 -69 q 169 -107 154 -90 q 212 -132 188 -122 q 267 -142 236 -142 q 336 -124 307 -142 q 381 -70 365 -107 q 397 25 397 -33 l 397 543 l 165 543 l 165 639 l 518 639 l 518 33 q 483 -125 518 -64 q 392 -215 449 -186 q 268 -243 336 -243 l 268 -243 m 296 704 l 235 757 l 431 951 l 469 951 l 665 757 l 604 704 l 450 853 l 296 704 z "},"k":{"ha":694,"x_min":85,"x_max":671,"o":"m 279 310 l 206 240 l 206 0 l 85 0 l 85 926 l 204 926 l 218 926 l 218 915 q 208 897 210 907 q 206 864 206 888 l 206 367 l 500 642 q 519 639 510 640 q 540 637 529 638 q 561 635 550 636 q 581 635 572 635 l 631 635 l 367 383 l 671 0 l 525 -6 l 279 310 z "},"ķ":{"ha":694,"x_min":85,"x_max":671,"o":"m 279 310 l 206 240 l 206 0 l 85 0 l 85 926 l 204 926 l 218 926 l 218 915 q 208 897 210 907 q 206 864 206 888 l 206 367 l 500 642 q 519 639 510 640 q 540 637 529 638 q 561 635 550 636 q 581 635 572 635 l 631 635 l 367 383 l 671 0 l 525 -6 l 279 310 m 311 -392 l 258 -344 q 314 -277 292 -312 q 336 -219 336 -242 q 321 -187 336 -201 q 290 -156 306 -172 q 274 -115 274 -140 q 297 -58 274 -81 q 356 -36 321 -36 q 420 -67 393 -36 q 447 -149 447 -99 q 433 -222 447 -183 q 388 -302 418 -260 q 311 -392 357 -344 z "},"ĸ":{"ha":694,"x_min":85,"x_max":671,"o":"m 279 310 l 206 240 l 206 0 l 85 0 l 85 639 l 204 639 l 218 639 l 218 628 q 208 610 210 619 q 206 576 206 600 l 206 367 l 500 642 q 519 639 510 640 q 540 637 529 638 q 561 635 550 636 q 581 635 572 635 l 631 635 l 367 383 l 671 0 l 525 -6 l 279 310 z "},"l":{"ha":694,"x_min":103,"x_max":593,"o":"m 103 0 l 103 94 l 288 94 l 288 832 l 111 832 l 111 926 l 408 926 l 408 94 l 593 94 l 593 0 l 103 0 z "},"ĺ":{"ha":694,"x_min":103,"x_max":593,"o":"m 103 0 l 103 94 l 288 94 l 288 832 l 111 832 l 111 926 l 408 926 l 408 94 l 593 94 l 593 0 l 103 0 z "},"ľ":{"ha":694,"x_min":103,"x_max":650,"o":"m 103 0 l 103 94 l 288 94 l 288 832 l 111 832 l 111 926 l 408 926 l 408 94 l 593 94 l 593 0 l 103 0 m 525 624 l 472 668 q 511 710 494 689 q 537 749 528 731 q 546 782 546 768 q 538 801 546 792 q 518 819 529 810 q 499 840 507 828 q 490 867 490 851 q 512 917 490 897 q 567 938 533 938 q 624 910 599 938 q 650 840 650 883 q 636 776 650 811 q 595 703 622 742 q 525 624 568 665 z "},"ļ":{"ha":694,"x_min":103,"x_max":593,"o":"m 103 0 l 103 94 l 288 94 l 288 832 l 111 832 l 111 926 l 408 926 l 408 94 l 593 94 l 593 0 l 103 0 m 311 -392 l 258 -344 q 314 -277 292 -312 q 336 -219 336 -242 q 321 -187 336 -201 q 290 -156 306 -172 q 274 -115 274 -140 q 297 -58 274 -81 q 356 -36 321 -36 q 420 -67 393 -36 q 447 -149 447 -99 q 433 -222 447 -183 q 388 -302 418 -260 q 311 -392 357 -344 z "},"ŀ":{"ha":694,"x_min":90,"x_max":633,"o":"m 90 0 l 90 94 l 246 94 l 246 833 l 99 833 l 99 928 l 367 928 l 367 94 l 578 94 l 578 0 l 90 0 m 542 374 q 478 399 504 374 q 453 461 453 424 q 480 523 453 497 q 542 549 507 549 q 606 523 578 549 q 633 461 633 497 q 607 399 633 425 q 542 374 581 374 z "},"ḷ":{"ha":694,"x_min":103,"x_max":593,"o":"m 103 0 l 103 94 l 288 94 l 288 832 l 111 832 l 111 926 l 408 926 l 408 94 l 593 94 l 593 0 l 103 0 z "},"ǉ":{"ha":694,"x_min":29,"x_max":617,"o":"m 351 -243 q 249 -222 294 -243 q 168 -161 203 -201 l 238 -64 q 247 -76 244 -69 q 252 -91 249 -83 q 265 -108 256 -99 q 299 -128 275 -117 q 326 -137 311 -133 q 357 -142 340 -142 q 424 -124 394 -142 q 469 -70 453 -107 q 486 25 486 -33 l 486 543 l 310 543 l 310 639 l 607 639 l 607 31 q 587 -93 607 -42 q 532 -177 567 -144 q 451 -226 497 -210 q 351 -243 404 -242 m 29 0 l 29 94 l 113 94 l 113 833 l 38 833 l 38 928 l 232 928 l 232 94 l 390 94 l 390 0 l 29 0 m 535 763 q 478 786 501 763 q 456 842 456 810 q 478 899 456 876 q 535 921 500 921 q 592 897 568 921 q 617 842 617 874 q 592 786 617 810 q 535 763 568 763 z "},"ḻ":{"ha":694,"x_min":103,"x_max":593,"o":"m 103 0 l 103 94 l 288 94 l 288 832 l 111 832 l 111 926 l 408 926 l 408 94 l 593 94 l 593 0 l 103 0 z "},"ł":{"ha":694,"x_min":104,"x_max":592,"o":"m 104 0 l 104 94 l 288 94 l 288 375 l 181 339 l 181 447 l 288 485 l 288 832 l 113 832 l 113 926 l 408 926 l 408 525 l 531 569 l 531 457 l 408 415 l 408 94 l 592 94 l 592 0 l 104 0 z "},"m":{"ha":694,"x_min":49,"x_max":657,"o":"m 49 0 l 49 639 l 154 639 l 154 581 q 189 620 169 604 q 231 645 208 636 q 278 654 254 654 q 327 644 304 654 q 366 613 350 633 q 389 565 382 593 q 424 613 403 593 q 472 643 444 632 q 531 654 500 654 q 588 642 564 654 q 627 607 611 629 q 650 553 643 585 q 656 483 657 521 l 656 0 l 549 0 l 549 447 q 542 526 549 500 q 524 559 536 551 q 496 567 513 567 q 451 545 472 567 q 417 490 431 524 q 404 418 404 456 l 404 0 l 300 0 l 300 440 q 287 540 300 515 q 239 565 274 565 q 209 556 224 565 q 183 528 194 546 q 163 484 171 511 q 156 424 156 457 l 156 0 l 49 0 z "},"ṃ":{"ha":694,"x_min":49,"x_max":657,"o":"m 49 0 l 49 639 l 154 639 l 154 581 q 189 620 169 604 q 231 645 208 636 q 278 654 254 654 q 327 644 304 654 q 366 613 350 633 q 389 565 382 593 q 424 613 403 593 q 472 643 444 632 q 531 654 500 654 q 588 642 564 654 q 627 607 611 629 q 650 553 643 585 q 656 483 657 521 l 656 0 l 549 0 l 549 447 q 542 526 549 500 q 524 559 536 551 q 496 567 513 567 q 451 545 472 567 q 417 490 431 524 q 404 418 404 456 l 404 0 l 300 0 l 300 440 q 287 540 300 515 q 239 565 274 565 q 209 556 224 565 q 183 528 194 546 q 163 484 171 511 q 156 424 156 457 l 156 0 l 49 0 z "},"n":{"ha":694,"x_min":92,"x_max":608,"o":"m 92 0 l 92 639 l 210 639 l 210 533 q 265 597 233 569 q 335 639 297 624 q 415 654 374 654 q 513 627 469 654 q 582 542 556 600 q 608 386 608 483 l 608 0 l 492 0 l 492 383 q 478 483 492 446 q 439 538 464 521 q 382 556 414 556 q 322 542 353 556 q 266 506 292 529 q 225 448 240 482 q 210 372 210 414 l 210 0 l 92 0 z "},"ń":{"ha":694,"x_min":92,"x_max":608,"o":"m 92 0 l 92 639 l 210 639 l 210 533 q 265 597 233 569 q 335 639 297 624 q 415 654 374 654 q 513 627 469 654 q 582 542 556 600 q 608 386 608 483 l 608 0 l 492 0 l 492 383 q 478 483 492 446 q 439 538 464 521 q 382 556 414 556 q 322 542 353 556 q 266 506 292 529 q 225 448 240 482 q 210 372 210 414 l 210 0 l 92 0 z "},"ň":{"ha":694,"x_min":92,"x_max":608,"o":"m 92 0 l 92 639 l 210 639 l 210 533 q 265 597 233 569 q 335 639 297 624 q 415 654 374 654 q 513 627 469 654 q 582 542 556 600 q 608 386 608 483 l 608 0 l 492 0 l 492 383 q 478 483 492 446 q 439 538 464 521 q 382 556 414 556 q 322 542 353 556 q 266 506 292 529 q 225 448 240 482 q 210 372 210 414 l 210 0 l 92 0 m 210 963 l 364 814 l 518 963 l 579 908 l 383 715 l 344 715 l 149 908 l 210 963 z "},"ņ":{"ha":694,"x_min":92,"x_max":608,"o":"m 92 0 l 92 639 l 210 639 l 210 533 q 265 597 233 569 q 335 639 297 624 q 415 654 374 654 q 513 627 469 654 q 582 542 556 600 q 608 386 608 483 l 608 0 l 492 0 l 492 383 q 478 483 492 446 q 439 538 464 521 q 382 556 414 556 q 322 542 353 556 q 266 506 292 529 q 225 448 240 482 q 210 372 210 414 l 210 0 l 92 0 m 325 -392 l 272 -344 q 328 -277 306 -312 q 350 -219 350 -242 q 335 -187 350 -201 q 303 -156 319 -172 q 288 -115 288 -140 q 311 -58 288 -81 q 369 -36 335 -36 q 434 -67 407 -36 q 461 -149 461 -99 q 447 -222 461 -183 q 401 -302 432 -260 q 325 -392 371 -344 z "},"ṅ":{"ha":694,"x_min":92,"x_max":608,"o":"m 92 0 l 92 639 l 210 639 l 210 533 q 265 597 233 569 q 335 639 297 624 q 415 654 374 654 q 513 627 469 654 q 582 542 556 600 q 608 386 608 483 l 608 0 l 492 0 l 492 383 q 478 483 492 446 q 439 538 464 521 q 382 556 414 556 q 322 542 353 556 q 266 506 292 529 q 225 448 240 482 q 210 372 210 414 l 210 0 l 92 0 z "},"ṇ":{"ha":694,"x_min":92,"x_max":608,"o":"m 92 0 l 92 639 l 210 639 l 210 533 q 265 597 233 569 q 335 639 297 624 q 415 654 374 654 q 513 627 469 654 q 582 542 556 600 q 608 386 608 483 l 608 0 l 492 0 l 492 383 q 478 483 492 446 q 439 538 464 521 q 382 556 414 556 q 322 542 353 556 q 266 506 292 529 q 225 448 240 482 q 210 372 210 414 l 210 0 l 92 0 z "},"ŋ":{"ha":694,"x_min":88,"x_max":610,"o":"m 367 -246 q 292 -233 329 -246 q 224 -193 256 -219 l 276 -90 q 285 -99 282 -92 q 297 -115 289 -106 q 320 -131 304 -124 q 367 -137 336 -137 q 438 -116 410 -137 q 479 -49 465 -94 q 493 61 493 -4 l 493 385 q 485 463 493 431 q 460 515 476 496 q 424 544 444 535 q 381 553 404 553 q 331 544 356 553 q 283 520 306 536 q 244 482 261 504 q 218 431 228 460 q 208 368 208 403 l 208 0 l 88 0 l 88 639 l 208 639 l 208 533 q 249 583 226 561 q 297 620 271 604 q 352 644 324 636 q 410 653 381 653 q 488 638 451 653 q 552 592 525 624 q 594 510 579 561 q 610 388 610 460 l 610 76 q 591 -69 610 -8 q 539 -169 572 -131 q 462 -227 506 -208 q 367 -246 418 -246 z "},"ṉ":{"ha":694,"x_min":92,"x_max":608,"o":"m 92 0 l 92 639 l 210 639 l 210 533 q 265 597 233 569 q 335 639 297 624 q 415 654 374 654 q 513 627 469 654 q 582 542 556 600 q 608 386 608 483 l 608 0 l 492 0 l 492 383 q 478 483 492 446 q 439 538 464 521 q 382 556 414 556 q 322 542 353 556 q 266 506 292 529 q 225 448 240 482 q 210 372 210 414 l 210 0 l 92 0 z "},"ñ":{"ha":694,"x_min":92,"x_max":608,"o":"m 92 0 l 92 639 l 210 639 l 210 533 q 265 597 233 569 q 335 639 297 624 q 415 654 374 654 q 513 627 469 654 q 582 542 556 600 q 608 386 608 483 l 608 0 l 492 0 l 492 383 q 478 483 492 446 q 439 538 464 521 q 382 556 414 556 q 322 542 353 556 q 266 506 292 529 q 225 448 240 482 q 210 372 210 414 l 210 0 l 92 0 m 533 936 l 603 896 q 544 813 574 838 q 472 789 514 789 q 413 801 438 789 q 368 828 388 813 q 330 856 349 844 q 289 868 311 868 q 247 853 265 868 q 213 801 228 838 l 138 836 q 194 919 158 888 q 285 950 231 950 q 340 938 317 950 q 383 911 364 926 q 422 884 403 896 q 465 872 442 872 q 501 886 488 872 q 533 936 515 900 z "},"o":{"ha":694,"x_min":49,"x_max":646,"o":"m 347 -12 q 194 30 261 -12 q 88 147 126 72 q 49 319 49 222 q 88 492 49 417 q 194 610 126 567 q 347 653 261 653 q 501 610 433 653 q 607 492 568 567 q 646 319 646 417 q 607 147 646 222 q 501 30 568 72 q 347 -12 433 -12 m 347 85 q 438 115 399 85 q 499 199 476 146 q 522 321 522 251 q 499 443 522 390 q 438 526 476 496 q 347 556 399 556 q 258 526 297 556 q 195 443 218 496 q 172 321 172 390 q 194 199 172 251 q 256 115 217 146 q 347 85 296 85 z "},"ó":{"ha":694,"x_min":49,"x_max":646,"o":"m 347 -12 q 194 30 261 -12 q 88 147 126 72 q 49 319 49 222 q 88 492 49 417 q 194 610 126 567 q 347 653 261 653 q 501 610 433 653 q 607 492 568 567 q 646 319 646 417 q 607 147 646 222 q 501 30 568 72 q 347 -12 433 -12 m 347 85 q 438 115 399 85 q 499 199 476 146 q 522 321 522 251 q 499 443 522 390 q 438 526 476 496 q 347 556 399 556 q 258 526 297 556 q 195 443 218 496 q 172 321 172 390 q 194 199 172 251 q 256 115 217 146 q 347 85 296 85 z "},"ŏ":{"ha":694,"x_min":49,"x_max":646,"o":"m 347 -12 q 194 30 261 -12 q 88 147 126 72 q 49 319 49 222 q 88 492 49 417 q 194 610 126 567 q 347 653 261 653 q 501 610 433 653 q 607 492 568 567 q 646 319 646 417 q 607 147 646 222 q 501 30 568 72 q 347 -12 433 -12 m 347 85 q 438 115 399 85 q 499 199 476 146 q 522 321 522 251 q 499 443 522 390 q 438 526 476 496 q 347 556 399 556 q 258 526 297 556 q 195 443 218 496 q 172 321 172 390 q 194 199 172 251 q 256 115 217 146 q 347 85 296 85 m 468 915 l 549 878 q 465 778 517 814 q 347 743 414 743 q 230 778 282 743 q 146 878 178 814 l 226 915 q 278 842 250 865 q 347 818 307 818 q 396 828 374 818 q 436 860 418 839 q 468 915 454 882 z "},"ô":{"ha":694,"x_min":49,"x_max":646,"o":"m 347 -12 q 194 30 261 -12 q 88 147 126 72 q 49 319 49 222 q 88 492 49 417 q 194 610 126 567 q 347 653 261 653 q 501 610 433 653 q 607 492 568 567 q 646 319 646 417 q 607 147 646 222 q 501 30 568 72 q 347 -12 433 -12 m 347 85 q 438 115 399 85 q 499 199 476 146 q 522 321 522 251 q 499 443 522 390 q 438 526 476 496 q 347 556 399 556 q 258 526 297 556 q 195 443 218 496 q 172 321 172 390 q 194 199 172 251 q 256 115 217 146 q 347 85 296 85 m 193 704 l 132 757 l 328 951 l 367 951 l 563 757 l 501 704 l 347 853 l 193 704 z "},"ố":{"ha":694,"x_min":49,"x_max":683,"o":"m 347 -12 q 194 30 261 -12 q 88 147 126 72 q 49 319 49 222 q 88 492 49 417 q 194 610 126 567 q 347 653 261 653 q 501 610 433 653 q 607 492 568 567 q 646 319 646 417 q 607 147 646 222 q 501 30 568 72 q 347 -12 433 -12 m 347 85 q 438 115 399 85 q 499 199 476 146 q 522 321 522 251 q 499 443 522 390 q 438 526 476 496 q 347 556 399 556 q 258 526 297 556 q 195 443 218 496 q 172 321 172 390 q 194 199 172 251 q 256 115 217 146 q 347 85 296 85 z "},"ộ":{"ha":694,"x_min":49,"x_max":646,"o":"m 347 -12 q 194 30 261 -12 q 88 147 126 72 q 49 319 49 222 q 88 492 49 417 q 194 610 126 567 q 347 653 261 653 q 501 610 433 653 q 607 492 568 567 q 646 319 646 417 q 607 147 646 222 q 501 30 568 72 q 347 -12 433 -12 m 347 85 q 438 115 399 85 q 499 199 476 146 q 522 321 522 251 q 499 443 522 390 q 438 526 476 496 q 347 556 399 556 q 258 526 297 556 q 195 443 218 496 q 172 321 172 390 q 194 199 172 251 q 256 115 217 146 q 347 85 296 85 m 193 704 l 132 757 l 328 951 l 367 951 l 563 757 l 501 704 l 347 853 l 193 704 z "},"ồ":{"ha":694,"x_min":49,"x_max":646,"o":"m 347 -12 q 194 30 261 -12 q 88 147 126 72 q 49 319 49 222 q 88 492 49 417 q 194 610 126 567 q 347 653 261 653 q 501 610 433 653 q 607 492 568 567 q 646 319 646 417 q 607 147 646 222 q 501 30 568 72 q 347 -12 433 -12 m 347 85 q 438 115 399 85 q 499 199 476 146 q 522 321 522 251 q 499 443 522 390 q 438 526 476 496 q 347 556 399 556 q 258 526 297 556 q 195 443 218 496 q 172 321 172 390 q 194 199 172 251 q 256 115 217 146 q 347 85 296 85 z "},"ổ":{"ha":694,"x_min":49,"x_max":650,"o":"m 347 -12 q 194 30 261 -12 q 88 147 126 72 q 49 319 49 222 q 88 492 49 417 q 194 610 126 567 q 347 653 261 653 q 501 610 433 653 q 607 492 568 567 q 646 319 646 417 q 607 147 646 222 q 501 30 568 72 q 347 -12 433 -12 m 347 85 q 438 115 399 85 q 499 199 476 146 q 522 321 522 251 q 499 443 522 390 q 438 526 476 496 q 347 556 399 556 q 258 526 297 556 q 195 443 218 496 q 172 321 172 390 q 194 199 172 251 q 256 115 217 146 q 347 85 296 85 z "},"ỗ":{"ha":694,"x_min":49,"x_max":646,"o":"m 347 -12 q 194 30 261 -12 q 88 147 126 72 q 49 319 49 222 q 88 492 49 417 q 194 610 126 567 q 347 653 261 653 q 501 610 433 653 q 607 492 568 567 q 646 319 646 417 q 607 147 646 222 q 501 30 568 72 q 347 -12 433 -12 m 347 85 q 438 115 399 85 q 499 199 476 146 q 522 321 522 251 q 499 443 522 390 q 438 526 476 496 q 347 556 399 556 q 258 526 297 556 q 195 443 218 496 q 172 321 172 390 q 194 199 172 251 q 256 115 217 146 q 347 85 296 85 z "},"ȍ":{"ha":694,"x_min":49,"x_max":646,"o":"m 347 -12 q 194 30 261 -12 q 88 147 126 72 q 49 319 49 222 q 88 492 49 417 q 194 610 126 567 q 347 653 261 653 q 501 610 433 653 q 607 492 568 567 q 646 319 646 417 q 607 147 646 222 q 501 30 568 72 q 347 -12 433 -12 m 347 85 q 438 115 399 85 q 499 199 476 146 q 522 321 522 251 q 499 443 522 390 q 438 526 476 496 q 347 556 399 556 q 258 526 297 556 q 195 443 218 496 q 172 321 172 390 q 194 199 172 251 q 256 115 217 146 q 347 85 296 85 z "},"ö":{"ha":694,"x_min":49,"x_max":646,"o":"m 347 -12 q 194 30 261 -12 q 88 147 126 72 q 49 319 49 222 q 88 492 49 417 q 194 610 126 567 q 347 653 261 653 q 501 610 433 653 q 607 492 568 567 q 646 319 646 417 q 607 147 646 222 q 501 30 568 72 q 347 -12 433 -12 m 347 85 q 438 115 399 85 q 499 199 476 146 q 522 321 522 251 q 499 443 522 390 q 438 526 476 496 q 347 556 399 556 q 258 526 297 556 q 195 443 218 496 q 172 321 172 390 q 194 199 172 251 q 256 115 217 146 q 347 85 296 85 z "},"ȫ":{"ha":694,"x_min":49,"x_max":646,"o":"m 347 -12 q 194 30 261 -12 q 88 147 126 72 q 49 319 49 222 q 88 492 49 417 q 194 610 126 567 q 347 653 261 653 q 501 610 433 653 q 607 492 568 567 q 646 319 646 417 q 607 147 646 222 q 501 30 568 72 q 347 -12 433 -12 m 347 85 q 438 115 399 85 q 499 199 476 146 q 522 321 522 251 q 499 443 522 390 q 438 526 476 496 q 347 556 399 556 q 258 526 297 556 q 195 443 218 496 q 172 321 172 390 q 194 199 172 251 q 256 115 217 146 q 347 85 296 85 z "},"ȱ":{"ha":694,"x_min":49,"x_max":646,"o":"m 347 -12 q 194 30 261 -12 q 88 147 126 72 q 49 319 49 222 q 88 492 49 417 q 194 610 126 567 q 347 653 261 653 q 501 610 433 653 q 607 492 568 567 q 646 319 646 417 q 607 147 646 222 q 501 30 568 72 q 347 -12 433 -12 m 347 85 q 438 115 399 85 q 499 199 476 146 q 522 321 522 251 q 499 443 522 390 q 438 526 476 496 q 347 556 399 556 q 258 526 297 556 q 195 443 218 496 q 172 321 172 390 q 194 199 172 251 q 256 115 217 146 q 347 85 296 85 z "},"ọ":{"ha":694,"x_min":49,"x_max":646,"o":"m 347 -12 q 194 30 261 -12 q 88 147 126 72 q 49 319 49 222 q 88 492 49 417 q 194 610 126 567 q 347 653 261 653 q 501 610 433 653 q 607 492 568 567 q 646 319 646 417 q 607 147 646 222 q 501 30 568 72 q 347 -12 433 -12 m 347 85 q 438 115 399 85 q 499 199 476 146 q 522 321 522 251 q 499 443 522 390 q 438 526 476 496 q 347 556 399 556 q 258 526 297 556 q 195 443 218 496 q 172 321 172 390 q 194 199 172 251 q 256 115 217 146 q 347 85 296 85 z "},"ò":{"ha":694,"x_min":49,"x_max":646,"o":"m 347 -12 q 194 30 261 -12 q 88 147 126 72 q 49 319 49 222 q 88 492 49 417 q 194 610 126 567 q 347 653 261 653 q 501 610 433 653 q 607 492 568 567 q 646 319 646 417 q 607 147 646 222 q 501 30 568 72 q 347 -12 433 -12 m 347 85 q 438 115 399 85 q 499 199 476 146 q 522 321 522 251 q 499 443 522 390 q 438 526 476 496 q 347 556 399 556 q 258 526 297 556 q 195 443 218 496 q 172 321 172 390 q 194 199 172 251 q 256 115 217 146 q 347 85 296 85 z "},"ỏ":{"ha":694,"x_min":49,"x_max":646,"o":"m 347 -12 q 194 30 261 -12 q 88 147 126 72 q 49 319 49 222 q 88 492 49 417 q 194 610 126 567 q 347 653 261 653 q 501 610 433 653 q 607 492 568 567 q 646 319 646 417 q 607 147 646 222 q 501 30 568 72 q 347 -12 433 -12 m 347 85 q 438 115 399 85 q 499 199 476 146 q 522 321 522 251 q 499 443 522 390 q 438 526 476 496 q 347 556 399 556 q 258 526 297 556 q 195 443 218 496 q 172 321 172 390 q 194 199 172 251 q 256 115 217 146 q 347 85 296 85 m 478 879 q 465 833 478 850 q 437 803 453 815 q 408 775 421 790 q 394 735 394 760 l 394 724 l 315 724 l 315 763 q 327 797 315 782 q 354 825 339 813 q 381 850 369 838 q 393 875 393 863 q 381 905 393 894 q 349 915 368 915 q 310 906 328 915 q 282 868 292 897 l 229 928 q 286 975 254 961 q 356 989 318 989 q 418 974 390 988 q 462 937 446 961 q 478 879 478 913 z "},"ơ":{"ha":694,"x_min":49,"x_max":646,"o":"m 347 -12 q 194 30 261 -12 q 88 147 126 72 q 49 319 49 222 q 88 492 49 417 q 194 610 126 567 q 347 653 261 653 q 501 610 433 653 q 607 492 568 567 q 646 319 646 417 q 607 147 646 222 q 501 30 568 72 q 347 -12 433 -12 m 347 85 q 438 115 399 85 q 499 199 476 146 q 522 321 522 251 q 499 443 522 390 q 438 526 476 496 q 347 556 399 556 q 258 526 297 556 q 195 443 218 496 q 172 321 172 390 q 194 199 172 251 q 256 115 217 146 q 347 85 296 85 m 633 731 q 622 613 633 657 q 580 549 610 568 q 496 531 550 531 l 496 608 q 526 633 517 608 q 535 731 535 658 l 633 731 z "},"ớ":{"ha":694,"x_min":49,"x_max":646,"o":"m 347 -12 q 194 30 261 -12 q 88 147 126 72 q 49 319 49 222 q 88 492 49 417 q 194 610 126 567 q 347 653 261 653 q 501 610 433 653 q 607 492 568 567 q 646 319 646 417 q 607 147 646 222 q 501 30 568 72 q 347 -12 433 -12 m 347 85 q 438 115 399 85 q 499 199 476 146 q 522 321 522 251 q 499 443 522 390 q 438 526 476 496 q 347 556 399 556 q 258 526 297 556 q 195 443 218 496 q 172 321 172 390 q 194 199 172 251 q 256 115 217 146 q 347 85 296 85 m 633 731 q 622 613 633 657 q 580 549 610 568 q 496 531 550 531 l 496 608 q 526 633 517 608 q 535 731 535 658 l 633 731 z "},"ợ":{"ha":694,"x_min":49,"x_max":646,"o":"m 347 -12 q 194 30 261 -12 q 88 147 126 72 q 49 319 49 222 q 88 492 49 417 q 194 610 126 567 q 347 653 261 653 q 501 610 433 653 q 607 492 568 567 q 646 319 646 417 q 607 147 646 222 q 501 30 568 72 q 347 -12 433 -12 m 347 85 q 438 115 399 85 q 499 199 476 146 q 522 321 522 251 q 499 443 522 390 q 438 526 476 496 q 347 556 399 556 q 258 526 297 556 q 195 443 218 496 q 172 321 172 390 q 194 199 172 251 q 256 115 217 146 q 347 85 296 85 m 633 731 q 622 613 633 657 q 580 549 610 568 q 496 531 550 531 l 496 608 q 526 633 517 608 q 535 731 535 658 l 633 731 z "},"ờ":{"ha":694,"x_min":49,"x_max":646,"o":"m 347 -12 q 194 30 261 -12 q 88 147 126 72 q 49 319 49 222 q 88 492 49 417 q 194 610 126 567 q 347 653 261 653 q 501 610 433 653 q 607 492 568 567 q 646 319 646 417 q 607 147 646 222 q 501 30 568 72 q 347 -12 433 -12 m 347 85 q 438 115 399 85 q 499 199 476 146 q 522 321 522 251 q 499 443 522 390 q 438 526 476 496 q 347 556 399 556 q 258 526 297 556 q 195 443 218 496 q 172 321 172 390 q 194 199 172 251 q 256 115 217 146 q 347 85 296 85 m 633 731 q 622 613 633 657 q 580 549 610 568 q 496 531 550 531 l 496 608 q 526 633 517 608 q 535 731 535 658 l 633 731 z "},"ở":{"ha":694,"x_min":49,"x_max":646,"o":"m 347 -12 q 194 30 261 -12 q 88 147 126 72 q 49 319 49 222 q 88 492 49 417 q 194 610 126 567 q 347 653 261 653 q 501 610 433 653 q 607 492 568 567 q 646 319 646 417 q 607 147 646 222 q 501 30 568 72 q 347 -12 433 -12 m 347 85 q 438 115 399 85 q 499 199 476 146 q 522 321 522 251 q 499 443 522 390 q 438 526 476 496 q 347 556 399 556 q 258 526 297 556 q 195 443 218 496 q 172 321 172 390 q 194 199 172 251 q 256 115 217 146 q 347 85 296 85 m 633 731 q 622 613 633 657 q 580 549 610 568 q 496 531 550 531 l 496 608 q 526 633 517 608 q 535 731 535 658 l 633 731 m 478 879 q 465 833 478 850 q 437 803 453 815 q 408 775 421 790 q 394 735 394 760 l 394 724 l 315 724 l 315 763 q 327 797 315 782 q 354 825 339 813 q 381 850 369 838 q 393 875 393 863 q 381 905 393 894 q 349 915 368 915 q 310 906 328 915 q 282 868 292 897 l 229 928 q 286 975 254 961 q 356 989 318 989 q 418 974 390 988 q 462 937 446 961 q 478 879 478 913 z "},"ỡ":{"ha":694,"x_min":49,"x_max":646,"o":"m 347 -12 q 194 30 261 -12 q 88 147 126 72 q 49 319 49 222 q 88 492 49 417 q 194 610 126 567 q 347 653 261 653 q 501 610 433 653 q 607 492 568 567 q 646 319 646 417 q 607 147 646 222 q 501 30 568 72 q 347 -12 433 -12 m 347 85 q 438 115 399 85 q 499 199 476 146 q 522 321 522 251 q 499 443 522 390 q 438 526 476 496 q 347 556 399 556 q 258 526 297 556 q 195 443 218 496 q 172 321 172 390 q 194 199 172 251 q 256 115 217 146 q 347 85 296 85 m 633 731 q 622 613 633 657 q 580 549 610 568 q 496 531 550 531 l 496 608 q 526 633 517 608 q 535 731 535 658 l 633 731 m 514 936 l 583 896 q 524 813 554 838 q 453 789 494 789 q 393 801 418 789 q 349 828 368 813 q 310 856 329 844 q 269 868 292 868 q 227 853 246 868 q 193 801 208 838 l 118 836 q 175 919 139 888 q 265 950 211 950 q 321 938 297 950 q 364 911 344 926 q 403 884 383 896 q 446 872 422 872 q 482 886 468 872 q 514 936 496 900 z "},"ő":{"ha":694,"x_min":49,"x_max":646,"o":"m 347 -12 q 194 30 261 -12 q 88 147 126 72 q 49 319 49 222 q 88 492 49 417 q 194 610 126 567 q 347 653 261 653 q 501 610 433 653 q 607 492 568 567 q 646 319 646 417 q 607 147 646 222 q 501 30 568 72 q 347 -12 433 -12 m 347 85 q 438 115 399 85 q 499 199 476 146 q 522 321 522 251 q 499 443 522 390 q 438 526 476 496 q 347 556 399 556 q 258 526 297 556 q 195 443 218 496 q 172 321 172 390 q 194 199 172 251 q 256 115 217 146 q 347 85 296 85 z "},"ȏ":{"ha":694,"x_min":49,"x_max":646,"o":"m 347 -12 q 194 30 261 -12 q 88 147 126 72 q 49 319 49 222 q 88 492 49 417 q 194 610 126 567 q 347 653 261 653 q 501 610 433 653 q 607 492 568 567 q 646 319 646 417 q 607 147 646 222 q 501 30 568 72 q 347 -12 433 -12 m 347 85 q 438 115 399 85 q 499 199 476 146 q 522 321 522 251 q 499 443 522 390 q 438 526 476 496 q 347 556 399 556 q 258 526 297 556 q 195 443 218 496 q 172 321 172 390 q 194 199 172 251 q 256 115 217 146 q 347 85 296 85 m 226 729 l 146 767 q 231 866 179 831 q 347 901 282 901 q 466 866 414 901 q 549 767 518 831 l 468 729 q 417 803 446 779 q 347 826 388 826 q 299 816 321 826 q 260 785 278 806 q 226 729 242 764 z "},"ō":{"ha":694,"x_min":49,"x_max":646,"o":"m 347 -12 q 194 30 261 -12 q 88 147 126 72 q 49 319 49 222 q 88 492 49 417 q 194 610 126 567 q 347 653 261 653 q 501 610 433 653 q 607 492 568 567 q 646 319 646 417 q 607 147 646 222 q 501 30 568 72 q 347 -12 433 -12 m 347 85 q 438 115 399 85 q 499 199 476 146 q 522 321 522 251 q 499 443 522 390 q 438 526 476 496 q 347 556 399 556 q 258 526 297 556 q 195 443 218 496 q 172 321 172 390 q 194 199 172 251 q 256 115 217 146 q 347 85 296 85 z "},"ṓ":{"ha":694,"x_min":49,"x_max":646,"o":"m 347 -12 q 194 30 261 -12 q 88 147 126 72 q 49 319 49 222 q 88 492 49 417 q 194 610 126 567 q 347 653 261 653 q 501 610 433 653 q 607 492 568 567 q 646 319 646 417 q 607 147 646 222 q 501 30 568 72 q 347 -12 433 -12 m 347 85 q 438 115 399 85 q 499 199 476 146 q 522 321 522 251 q 499 443 522 390 q 438 526 476 496 q 347 556 399 556 q 258 526 297 556 q 195 443 218 496 q 172 321 172 390 q 194 199 172 251 q 256 115 217 146 q 347 85 296 85 z "},"ṑ":{"ha":694,"x_min":49,"x_max":646,"o":"m 347 -12 q 194 30 261 -12 q 88 147 126 72 q 49 319 49 222 q 88 492 49 417 q 194 610 126 567 q 347 653 261 653 q 501 610 433 653 q 607 492 568 567 q 646 319 646 417 q 607 147 646 222 q 501 30 568 72 q 347 -12 433 -12 m 347 85 q 438 115 399 85 q 499 199 476 146 q 522 321 522 251 q 499 443 522 390 q 438 526 476 496 q 347 556 399 556 q 258 526 297 556 q 195 443 218 496 q 172 321 172 390 q 194 199 172 251 q 256 115 217 146 q 347 85 296 85 z "},"ǫ":{"ha":694,"x_min":49,"x_max":646,"o":"m 347 -12 q 194 30 261 -12 q 88 147 126 72 q 49 319 49 222 q 88 492 49 417 q 194 610 126 567 q 347 653 261 653 q 501 610 433 653 q 607 492 568 567 q 646 319 646 417 q 607 147 646 222 q 501 30 568 72 q 347 -12 433 -12 m 347 85 q 438 115 399 85 q 499 199 476 146 q 522 321 522 251 q 499 443 522 390 q 438 526 476 496 q 347 556 399 556 q 258 526 297 556 q 195 443 218 496 q 172 321 172 390 q 194 199 172 251 q 256 115 217 146 q 347 85 296 85 m 461 -214 l 426 -300 q 338 -271 375 -289 q 281 -226 301 -253 q 261 -164 261 -199 q 281 -91 261 -128 q 341 -19 301 -54 q 438 49 381 17 l 481 21 q 423 -34 447 -6 q 386 -89 399 -62 q 374 -137 374 -115 q 395 -185 374 -165 q 461 -214 417 -206 z "},"ø":{"ha":694,"x_min":49,"x_max":646,"o":"m 176 -90 l 92 -44 l 508 722 l 597 676 l 176 -90 m 347 -12 q 194 30 261 -12 q 88 147 126 72 q 49 319 49 222 q 88 492 49 417 q 194 610 126 567 q 347 653 261 653 q 501 610 433 653 q 607 492 568 567 q 646 319 646 417 q 607 147 646 222 q 501 30 568 72 q 347 -12 433 -12 m 347 85 q 438 115 399 85 q 499 199 476 146 q 522 321 522 251 q 499 443 522 390 q 438 526 476 496 q 347 556 399 556 q 258 526 297 556 q 195 443 218 496 q 172 321 172 390 q 194 199 172 251 q 256 115 217 146 q 347 85 296 85 z "},"ǿ":{"ha":694,"x_min":49,"x_max":646,"o":"m 176 -90 l 92 -44 l 508 722 l 597 676 l 176 -90 m 347 -12 q 194 30 261 -12 q 88 147 126 72 q 49 319 49 222 q 88 492 49 417 q 194 610 126 567 q 347 653 261 653 q 501 610 433 653 q 607 492 568 567 q 646 319 646 417 q 607 147 646 222 q 501 30 568 72 q 347 -12 433 -12 m 347 85 q 438 115 399 85 q 499 199 476 146 q 522 321 522 251 q 499 443 522 390 q 438 526 476 496 q 347 556 399 556 q 258 526 297 556 q 195 443 218 496 q 172 321 172 390 q 194 199 172 251 q 256 115 217 146 q 347 85 296 85 z "},"õ":{"ha":694,"x_min":49,"x_max":646,"o":"m 347 -12 q 194 30 261 -12 q 88 147 126 72 q 49 319 49 222 q 88 492 49 417 q 194 610 126 567 q 347 653 261 653 q 501 610 433 653 q 607 492 568 567 q 646 319 646 417 q 607 147 646 222 q 501 30 568 72 q 347 -12 433 -12 m 347 85 q 438 115 399 85 q 499 199 476 146 q 522 321 522 251 q 499 443 522 390 q 438 526 476 496 q 347 556 399 556 q 258 526 297 556 q 195 443 218 496 q 172 321 172 390 q 194 199 172 251 q 256 115 217 146 q 347 85 296 85 m 514 936 l 583 896 q 524 813 554 838 q 453 789 494 789 q 393 801 418 789 q 349 828 368 813 q 310 856 329 844 q 269 868 292 868 q 227 853 246 868 q 193 801 208 838 l 118 836 q 175 919 139 888 q 265 950 211 950 q 321 938 297 950 q 364 911 344 926 q 403 884 383 896 q 446 872 422 872 q 482 886 468 872 q 514 936 496 900 z "},"ṍ":{"ha":694,"x_min":49,"x_max":646,"o":"m 347 -12 q 194 30 261 -12 q 88 147 126 72 q 49 319 49 222 q 88 492 49 417 q 194 610 126 567 q 347 653 261 653 q 501 610 433 653 q 607 492 568 567 q 646 319 646 417 q 607 147 646 222 q 501 30 568 72 q 347 -12 433 -12 m 347 85 q 438 115 399 85 q 499 199 476 146 q 522 321 522 251 q 499 443 522 390 q 438 526 476 496 q 347 556 399 556 q 258 526 297 556 q 195 443 218 496 q 172 321 172 390 q 194 199 172 251 q 256 115 217 146 q 347 85 296 85 m 514 936 l 583 896 q 524 813 554 838 q 453 789 494 789 q 393 801 418 789 q 349 828 368 813 q 310 856 329 844 q 269 868 292 868 q 227 853 246 868 q 193 801 208 838 l 118 836 q 175 919 139 888 q 265 950 211 950 q 321 938 297 950 q 364 911 344 926 q 403 884 383 896 q 446 872 422 872 q 482 886 468 872 q 514 936 496 900 z "},"ṏ":{"ha":694,"x_min":49,"x_max":646,"o":"m 347 -12 q 194 30 261 -12 q 88 147 126 72 q 49 319 49 222 q 88 492 49 417 q 194 610 126 567 q 347 653 261 653 q 501 610 433 653 q 607 492 568 567 q 646 319 646 417 q 607 147 646 222 q 501 30 568 72 q 347 -12 433 -12 m 347 85 q 438 115 399 85 q 499 199 476 146 q 522 321 522 251 q 499 443 522 390 q 438 526 476 496 q 347 556 399 556 q 258 526 297 556 q 195 443 218 496 q 172 321 172 390 q 194 199 172 251 q 256 115 217 146 q 347 85 296 85 m 514 936 l 583 896 q 524 813 554 838 q 453 789 494 789 q 393 801 418 789 q 349 828 368 813 q 310 856 329 844 q 269 868 292 868 q 227 853 246 868 q 193 801 208 838 l 118 836 q 175 919 139 888 q 265 950 211 950 q 321 938 297 950 q 364 911 344 926 q 403 884 383 896 q 446 872 422 872 q 482 886 468 872 q 514 936 496 900 z "},"ȭ":{"ha":694,"x_min":49,"x_max":646,"o":"m 347 -12 q 194 30 261 -12 q 88 147 126 72 q 49 319 49 222 q 88 492 49 417 q 194 610 126 567 q 347 653 261 653 q 501 610 433 653 q 607 492 568 567 q 646 319 646 417 q 607 147 646 222 q 501 30 568 72 q 347 -12 433 -12 m 347 85 q 438 115 399 85 q 499 199 476 146 q 522 321 522 251 q 499 443 522 390 q 438 526 476 496 q 347 556 399 556 q 258 526 297 556 q 195 443 218 496 q 172 321 172 390 q 194 199 172 251 q 256 115 217 146 q 347 85 296 85 m 514 936 l 583 896 q 524 813 554 838 q 453 789 494 789 q 393 801 418 789 q 349 828 368 813 q 310 856 329 844 q 269 868 292 868 q 227 853 246 868 q 193 801 208 838 l 118 836 q 175 919 139 888 q 265 950 211 950 q 321 938 297 950 q 364 911 344 926 q 403 884 383 896 q 446 872 422 872 q 482 886 468 872 q 514 936 496 900 z "},"œ":{"ha":694,"x_min":8,"x_max":685,"o":"m 513 -17 q 428 -3 468 -17 q 353 39 388 11 q 289 -2 322 11 q 218 -15 256 -15 q 144 -1 181 -15 q 76 51 107 14 q 27 153 46 89 q 8 318 8 218 q 40 513 8 440 q 121 619 71 586 q 226 651 171 651 q 300 636 268 651 q 356 590 332 621 q 416 635 382 619 q 490 651 450 651 q 593 622 550 651 q 659 535 636 593 q 682 393 682 478 l 682 303 l 375 303 q 392 160 376 210 q 438 94 408 111 q 507 76 467 76 q 578 88 547 76 q 632 128 608 100 l 685 61 q 606 2 647 21 q 513 -17 564 -17 m 229 81 q 255 84 243 81 q 276 94 267 88 q 290 110 285 101 q 294 132 294 119 q 294 143 294 136 q 290 163 293 150 q 282 221 285 193 q 278 276 279 249 q 276 332 276 303 q 280 419 276 385 q 287 474 283 454 q 290 499 290 493 q 286 520 290 510 q 274 538 282 531 q 253 551 265 546 q 228 556 242 556 q 169 533 197 556 q 124 463 142 511 q 107 335 107 414 q 122 194 107 251 q 163 109 136 138 q 229 81 190 81 m 376 390 l 592 390 q 581 488 590 450 q 548 542 571 525 q 488 560 525 560 q 429 540 454 560 q 390 481 404 519 q 376 390 376 443 z "},"p":{"ha":694,"x_min":78,"x_max":649,"o":"m 78 -232 l 78 639 l 197 639 l 197 525 q 242 598 214 569 q 308 640 271 626 q 386 653 344 653 q 486 632 439 653 q 569 570 533 611 q 627 467 606 529 q 649 322 649 406 q 626 174 649 238 q 566 68 604 110 q 481 5 528 26 q 383 -17 433 -17 q 313 -6 347 -17 q 249 25 278 4 q 200 74 221 46 l 200 -232 l 78 -232 m 358 83 q 420 95 390 83 q 474 134 450 107 q 513 207 499 161 q 526 322 526 253 q 508 445 526 394 q 456 524 490 496 q 371 554 421 551 q 302 543 333 557 q 247 499 271 529 q 211 419 224 468 q 199 301 199 371 q 207 222 200 257 q 228 161 214 188 q 260 118 242 135 q 304 92 279 101 q 358 83 329 83 z "},"þ":{"ha":694,"x_min":78,"x_max":649,"o":"m 78 926 l 196 926 l 210 926 l 210 915 q 199 897 201 907 q 197 864 197 888 l 197 525 q 242 598 214 569 q 308 640 271 626 q 386 653 344 653 q 486 632 439 653 q 569 570 533 611 q 627 467 606 529 q 649 322 649 406 q 626 174 649 238 q 566 68 604 110 q 481 5 528 26 q 383 -17 433 -17 q 313 -6 347 -17 q 249 25 278 4 q 200 74 221 46 l 200 -232 l 78 -232 l 78 926 m 358 83 q 420 95 390 83 q 474 134 450 107 q 513 207 499 161 q 526 322 526 253 q 508 445 526 394 q 456 524 490 496 q 371 554 421 551 q 302 543 333 557 q 247 499 271 529 q 211 419 224 468 q 199 301 199 371 q 207 222 200 257 q 228 161 214 188 q 260 118 242 135 q 304 92 279 101 q 358 83 329 83 l 358 83 z "},"q":{"ha":694,"x_min":51,"x_max":619,"o":"m 500 -232 l 500 88 q 454 33 482 57 q 392 -2 426 10 q 318 -14 357 -14 q 212 10 261 -14 q 126 78 163 35 q 71 184 90 122 q 51 321 51 246 q 72 460 51 399 q 131 566 93 522 q 221 632 169 610 q 332 654 272 654 q 390 648 364 654 q 438 628 415 642 q 476 597 460 615 q 506 556 493 578 l 506 639 l 619 639 l 619 -232 l 500 -232 m 339 85 q 401 99 372 85 q 453 142 431 113 q 487 219 475 171 q 499 333 499 267 q 488 440 499 396 q 456 510 476 483 q 408 548 435 536 q 347 560 381 560 q 278 547 311 560 q 222 505 246 533 q 185 432 199 476 q 171 325 171 388 q 183 222 171 267 q 217 147 194 178 q 270 101 239 117 q 339 85 301 85 z "},"r":{"ha":694,"x_min":151,"x_max":640,"o":"m 151 639 l 275 639 l 272 456 l 257 472 q 285 549 265 515 q 334 606 306 582 q 397 642 363 629 q 469 654 432 654 q 563 637 521 654 q 640 583 606 619 l 589 488 l 583 475 l 574 481 q 565 502 569 492 q 542 526 560 513 q 501 547 521 542 q 457 553 482 553 q 390 540 424 553 q 330 501 357 528 q 288 434 303 475 q 272 338 272 393 l 272 -1 l 151 -1 l 151 639 z "},"ŕ":{"ha":694,"x_min":151,"x_max":640,"o":"m 151 639 l 275 639 l 272 456 l 257 472 q 285 549 265 515 q 334 606 306 582 q 397 642 363 629 q 469 654 432 654 q 563 637 521 654 q 640 583 606 619 l 589 488 l 583 475 l 574 481 q 565 502 569 492 q 542 526 560 513 q 501 547 521 542 q 457 553 482 553 q 390 540 424 553 q 330 501 357 528 q 288 434 303 475 q 272 338 272 393 l 272 -1 l 151 -1 l 151 639 z "},"ř":{"ha":694,"x_min":151,"x_max":640,"o":"m 151 639 l 275 639 l 272 456 l 257 472 q 285 549 265 515 q 334 606 306 582 q 397 642 363 629 q 469 654 432 654 q 563 637 521 654 q 640 583 606 619 l 589 488 l 583 475 l 574 481 q 565 502 569 492 q 542 526 560 513 q 501 547 521 542 q 457 553 482 553 q 390 540 424 553 q 330 501 357 528 q 288 434 303 475 q 272 338 272 393 l 272 -1 l 151 -1 l 151 639 m 243 963 l 397 814 l 551 963 l 613 908 l 417 715 l 378 715 l 182 908 l 243 963 z "}}}
